<svg xmlns="http://www.w3.org/2000/svg" width="1479.47" height="560.08" viewBox="0 0 1479.47 560.08">
  <g id="gitart" transform="translate(-220.53 -61)">
    <path id="Path_306" data-name="Path 306" d="M4,0H1475.47a4,4,0,0,1,4,4V556.08a4,4,0,0,1-4,4H4a4,4,0,0,1-4-4V4A4,4,0,0,1,4,0Z" transform="translate(220.53 61)" fill="#011628"/>
    <path id="Path_208" data-name="Path 208" d="M277.047,225.744c5.721-3.913,13.084,4.711,9.079,10.08-4.049,5.428-12.9,3.889-15.949-1.653-3.889-7.071-.016-15.482,6.251-19.587,7.12-4.663,15.845-4.926,24.066-4.489,8.3.441,16.406,1.027,24.678-.163a82.783,82.783,0,0,0,20.358-5.71,86.489,86.489,0,0,0,34.2-25.906,68.648,68.648,0,0,0,10.578-17.778c1.86-4.936,2.742-11.428.106-16.26a8.277,8.277,0,0,0-12.584-2.528c-4.393,3.6-5.58,10.282-2.221,14.939,3.6,5,10.406,6.71,16.262,5.8,8.138-1.265,14.729-7.01,20.959-11.957L458.971,113.9c7.609-6.041,15.14-12.2,22.846-18.114,6.267-4.81,13.915-9.475,22.077-6.905,3.29,1.036,6.607,3.488,7.429,7.012a9.024,9.024,0,0,1-3.236,8.742,5.55,5.55,0,0,1-8.119-1.018,9.495,9.495,0,0,1-.871-8.531c2.648-7.245,12.363-8,18.847-7.414A52.949,52.949,0,0,1,539.6,94.8c13.7,7.958,23.835,20.9,29.779,35.458,6.586,16.126,8.614,33.97,8.346,51.281-.055,3.531-.3,7.436-2.287,10.48-1.946,2.982-5.342,3.884-8.388,1.89-.992-.649-2.267-1.914-2.008-3.249.325-1.675,3.663-1.688,5-1.624a15.629,15.629,0,0,1,9.741,4.507c6.23,5.911,6.714,14.955,5.9,23-.892,8.828-3.436,17.608-2.426,26.545,1.656,14.641,13.669,22.777,25.469,29.508,6.043,3.447,12.218,6.743,17.652,11.128a72.7,72.7,0,0,1,14.39,15.661A79.105,79.105,0,0,1,654.278,338.6a72.356,72.356,0,0,1-1.645,20.915c-1.552,6.7-4,15.157-10.44,18.758a8.644,8.644,0,0,1-9.85-.884c-2.61-2.095-3.886-5.813-1.189-8.43,2.234-2.168,5.809-1.711,8.5-.83a21.316,21.316,0,0,1,8.19,5.382c4.611,4.46,10.01,9.936,17.025,8.511,1.3-.263.748-2.246-.547-1.983-8.469,1.72-13.575-8.124-19.821-11.913-4.522-2.744-12.245-4.784-15.779.567-3.813,5.774,2.318,12,8.016,12.748,7.408.967,12.544-6.277,15.031-12.255,5.769-13.866,5.948-30.125,2.419-44.564a79.485,79.485,0,0,0-21.988-38.511c-5.469-5.212-11.738-9.208-18.279-12.928-6.6-3.755-13.483-7.357-19.132-12.51a28.687,28.687,0,0,1-9.706-22.12c.061-9.607,3.149-18.93,2.957-28.555-.16-7.981-2.872-15.774-9.814-20.267a15.869,15.869,0,0,0-9.73-2.716c-1.4.115-3.377.352-4.534,1.231-.932.708-1.108,2.365-.92,3.437.446,2.545,2.853,4.313,5.191,5.021a7.434,7.434,0,0,0,8.028-2.369c2.248-2.6,3.029-6.059,3.347-9.394a99.132,99.132,0,0,0-.006-13.682c-.809-18.389-4.443-37.217-14-53.188-8.123-13.575-20.757-24.958-35.9-29.994-7.138-2.373-15.606-3.8-22.971-1.637-6.337,1.857-11.193,7.072-10.147,13.98.886,5.847,6.944,9.892,12.284,6.2a10.643,10.643,0,0,0,1.705-16.041c-5.161-5.405-13.578-5.366-20.018-2.619a48.886,48.886,0,0,0-10.624,6.707c-4.222,3.282-8.384,6.643-12.572,9.968l-50.449,40.053c-3.982,3.161-7.9,6.438-12.014,9.426-3.84,2.788-8.076,5.371-12.8,6.267-6.656,1.261-17.193-2.046-16.386-10.488.313-3.279,2.485-6.9,5.8-7.84,3.254-.922,6.326,1.172,7.535,4.135,2.667,6.533-.465,14-3.58,19.74a83.951,83.951,0,0,1-56.832,41.343c-8.894,1.748-17.622,1.406-26.615.86-8.717-.529-17.871-.475-25.641,4.068-6.371,3.725-10.621,10.48-9.6,18.008.887,6.537,6.129,11.533,12.891,10.981,5.675-.463,11.377-5.31,9.364-11.465-1.667-5.1-8.1-9.117-13.026-5.75-1.086.743-.058,2.526,1.038,1.776Z" transform="translate(936.231 5.627)" fill="#3f3d56"/>
    <path id="Path_209" data-name="Path 209" d="M893.391,506.7H843.555a2.94,2.94,0,0,0-2.937,2.937v31.027a2.94,2.94,0,0,0,2.937,2.937h49.835a2.94,2.94,0,0,0,2.937-2.937V509.639A2.94,2.94,0,0,0,893.391,506.7Z" transform="translate(755.787 -126.825)" fill="#cecee2"/>
    <path id="Path_210" data-name="Path 210" d="M893.391,506.7H843.555a2.94,2.94,0,0,0-2.937,2.937v31.027a2.94,2.94,0,0,0,2.937,2.937h49.835a2.94,2.94,0,0,0,2.937-2.937V509.639A2.94,2.94,0,0,0,893.391,506.7Zm.964,22.287a12.073,12.073,0,0,1-11.869,12.025c-5.057.066,2.8.091-3.3.091-13.946,0-28.488-.133-33.913-.22a2.736,2.736,0,0,1-2.679-2.725V509.641a.967.967,0,0,1,.964-.966h49.833a.967.967,0,0,1,.966.963Z" transform="translate(755.787 -126.825)" fill="#ababce"/>
    <path id="Path_211" data-name="Path 211" d="M887.8,480.644H849.826a1.632,1.632,0,0,0-1.534,1.082l-5.864,16.452a1.629,1.629,0,0,0,1.532,2.175l50.923.09h0a1.629,1.629,0,0,0,1.5-2.27l-.089.038.089-.038-7.09-16.542A1.626,1.626,0,0,0,887.8,480.644Z" transform="translate(755.248 -118.634)" fill="#ababce"/>
    <path id="Path_212" data-name="Path 212" d="M896.514,505.985a1.633,1.633,0,0,1-.132.642l-7.089,12.734a1.633,1.633,0,0,1-1.5.986H849.827a1.633,1.633,0,0,1-1.535-1.081l-5.863-12.643a1.628,1.628,0,0,1,.988-2.08,1.6,1.6,0,0,1,.543-.1l6.221-.012,2.539,0,33.408-.059,2.54,0,6.216-.012h0a1.629,1.629,0,0,1,1.629,1.629Z" transform="translate(755.248 -126.088)" fill="#ababce"/>
    <path id="Path_213" data-name="Path 213" d="M849.727,540.647c.753,0,11.092.632,11.092,1.385s-10.339,1.342-11.092,1.342a1.363,1.363,0,1,1,0-2.727Z" transform="translate(753.353 -137.497)" fill="#ababce"/>
    <path id="Path_214" data-name="Path 214" d="M889.029,466.046H857.014a3.24,3.24,0,0,0-3.236,3.236V508.3h37.616a1.607,1.607,0,0,0,.872-.253V469.282a3.24,3.24,0,0,0-3.236-3.236Z" transform="translate(751.65 -114.044)" fill="#cecee2"/>
    <path id="Path_215" data-name="Path 215" d="M877.973,469.873H860.429a2.95,2.95,0,0,0-2.948,2.946v36.687h33.408V482.788A12.93,12.93,0,0,0,877.973,469.873Z" transform="translate(750.486 -115.248)" fill="#e5f0ff"/>
    <path id="Path_216" data-name="Path 216" d="M887.477,522.926H865.453a.718.718,0,1,0,0,1.436h22.025a.718.718,0,0,0,0-1.436Z" transform="translate(748.206 -131.926)" fill="#d8e3f1"/>
    <path id="Path_217" data-name="Path 217" d="M887.477,518.785H865.452a.719.719,0,1,0,0,1.437h22.025a.719.719,0,1,0,0-1.437Z" transform="translate(748.206 -130.624)" fill="#d8e3f1"/>
    <path id="Path_218" data-name="Path 218" d="M875,514.646h-9.547a.718.718,0,1,0,0,1.436H875a.718.718,0,0,0,0-1.436Z" transform="translate(748.206 -129.323)" fill="#d8e3f1"/>
    <path id="Path_219" data-name="Path 219" d="M887.477,505.975H865.452a.719.719,0,1,0,0,1.437h22.025a.719.719,0,1,0,0-1.437Z" transform="translate(748.206 -126.597)" fill="#d8e3f1"/>
    <path id="Path_220" data-name="Path 220" d="M887.477,501.836H865.453a.718.718,0,1,0,0,1.436h22.025a.718.718,0,0,0,0-1.436Z" transform="translate(748.206 -125.296)" fill="#d8e3f1"/>
    <path id="Path_221" data-name="Path 221" d="M875,497.695h-9.547a.719.719,0,1,0,0,1.437H875a.719.719,0,1,0,0-1.437Z" transform="translate(748.206 -123.994)" fill="#d8e3f1"/>
    <path id="Path_222" data-name="Path 222" d="M887.477,489.025H865.452a.719.719,0,1,0,0,1.437h22.025a.719.719,0,1,0,0-1.437Z" transform="translate(748.206 -121.268)" fill="#d8e3f1"/>
    <path id="Path_223" data-name="Path 223" d="M887.477,484.886H865.452a.719.719,0,1,0,0,1.437h22.025a.719.719,0,1,0,0-1.437Z" transform="translate(748.206 -119.967)" fill="#d8e3f1"/>
    <path id="Path_224" data-name="Path 224" d="M875,480.745h-9.547a.719.719,0,1,0,0,1.437H875a.719.719,0,1,0,0-1.437Z" transform="translate(748.206 -118.665)" fill="#d8e3f1"/>
    <path id="Path_309" data-name="Path 309" d="M21.253,0A21.253,21.253,0,1,1,0,21.253,21.253,21.253,0,0,1,21.253,0Z" transform="translate(1364.756 185.022)" fill="#b28e8e"/>
    <path id="Path_225" data-name="Path 225" d="M547.609,227.784c-2.236-3.459-6.431-5.764-10.5-5.116a14.336,14.336,0,0,0-24.02-8.362,4.458,4.458,0,0,0-4.359-.436,9.192,9.192,0,0,0-3.542,2.843A20.629,20.629,0,0,0,502.3,237.7c-.5-1.807,1.314-3.507,3.143-3.912s3.749-.022,5.6-.286c2.378-.338,4.516-1.718,6.9-2.028a15.7,15.7,0,0,1,5.967.767,16.179,16.179,0,0,0,5.964.8c2-.238,4.587,7.359,4.552,12.709-.007,1.014.2,2.316,1.193,2.531,1.22.265,1.927-1.419,3.089-1.878a2.149,2.149,0,0,1,2.636,1.4,3.5,3.5,0,0,1-.669,3.137,10.354,10.354,0,0,1-2.51,2.177l.478.4a2.847,2.847,0,0,0,3.593.446,7.755,7.755,0,0,0,2.58-2.938,34.565,34.565,0,0,0,4.732-11.339A16.517,16.517,0,0,0,547.609,227.784Z" transform="translate(862.661 -33.678)" fill="#2f2e41"/>
    <path id="Path_226" data-name="Path 226" d="M295.719,690.65H284.241l-5.46-44.273h16.941Z" transform="translate(1115.221 -112.2)" fill="#b28e8e"/>
    <path id="Path_227" data-name="Path 227" d="M554.521,805.039h-35.3v-.446a13.739,13.739,0,0,1,13.737-13.738h0l6.447-4.891,12.029,4.892h3.081Z" transform="translate(856.823 -214.616)" fill="#2f2e41"/>
    <path id="Path_228" data-name="Path 228" d="M314.991,665.466l-9,7.117-31.741-31.344,13.29-10.506Z" transform="translate(1116.646 -107.282)" fill="#b28e8e"/>
    <path id="Path_229" data-name="Path 229" d="M597.415,775l-27.69,21.889-.277-.35a13.739,13.739,0,0,1,2.257-19.3h0l2.024-7.836,12.471-3.623,2.417-1.911Z" transform="translate(841.965 -207.67)" fill="#2f2e41"/>
    <path id="Path_230" data-name="Path 230" d="M216.6,403.843l-.7,12.919,3.408,4.117-.391,12.922,3.307,8.458,2.326,26.908,32.572,112.276,29.351-9.414L254.418,467.368l38.563-.963,1.3-59.015-6.834-13.211Z" transform="translate(1134.99 -32.917)" fill="#2f2e41"/>
    <path id="Path_231" data-name="Path 231" d="M304.832,484.522l3.709,8.9L294.2,618.7l-20.12,1.469-8.688-140.057Z" transform="translate(1119.43 -59.931)" fill="#2f2e41"/>
    <path id="Path_232" data-name="Path 232" d="M274.659,213.085l-6.607-9.145-21.333.855-.409,7.041L232.139,345.688l13.917-.312,17.276,4.034,33.228-11.63Z" transform="translate(1129.883 26.888)" fill="#ff4500"/>
    <path id="Path_233" data-name="Path 233" d="M491.749,437.158H459.033l8.536-60.249,3.461-24.421s-2.45-17.454-3.636-26.573a5.162,5.162,0,0,1,.486-2.839,9.363,9.363,0,0,1,1.5-2.268c3.979-4.589,12.93-8.568,18.543-10.746,2.891-1.115,4.9-1.756,4.9-1.756l7.621-7.472C511.387,314.5,491.749,437.158,491.749,437.158Z" transform="translate(875.745 -62.107)" fill="#3f3d56"/>
    <path id="Path_234" data-name="Path 234" d="M551.558,295.393l10.379,5.948s30.738,5.049,33.727,16.593L584.35,352.089v71.781l-27.429,11S533.259,318.9,551.558,295.393Z" transform="translate(848.841 -60.397)" fill="#3f3d56"/>
    <path id="Path_235" data-name="Path 235" d="M270.463,475.879l-5.071,58.737,8.634,68.36" transform="translate(1119.43 -58.601)" opacity="0.4"/>
    <path id="Path_236" data-name="Path 236" d="M359.464,401.044a7.122,7.122,0,0,1,10.579,2.707l25.147-2.844-5.96,11.723-22.966.9a7.16,7.16,0,0,1-6.8-12.489Z" transform="translate(907.996 -93.189)" fill="#b28e8e"/>
    <path id="Path_237" data-name="Path 237" d="M209.524,241.42l7.2,4.3-40.3,56.778-49.193,4.18-1.959-14.045,36.245-10.874,17.916-34.726Z" transform="translate(1163.481 15.105)" fill="#3f3d56"/>
    <path id="Path_238" data-name="Path 238" d="M712.344,394.044a7.121,7.121,0,0,0-10.579,2.707l-25.147-2.844,5.96,11.723,22.966.9a7.16,7.16,0,0,0,6.8-12.489Z" transform="translate(807.344 -90.989)" fill="#b28e8e"/>
    <path id="Path_239" data-name="Path 239" d="M304.857,234.42l-7.2,4.3,40.3,56.778,49.193,4.18,1.958-14.045-36.245-10.874-17.916-34.726Z" transform="translate(1109.285 17.306)" fill="#3f3d56"/>
    <path id="Path_240" data-name="Path 240" d="M413.214,291.937v-.75H400.634V273.681h-.749v17.505H385.469V277.668q-.378.3-.746.612v12.907H375.2c-.106.248-.208.5-.3.75h9.826v14.709h-12.2c.012.252.029.5.05.75h12.15v11.735h-9.1c.112.252.229.5.352.746h8.751v9.865h.747v-9.865h14.417v9.865h.748v-9.865h12.579v-.747H400.634A11.733,11.733,0,0,1,412.371,307.4h.842v-.75H400.634V291.937Zm-13.328,27.195H385.469V307.4h14.417Zm0-12.485H385.469v-.294a14.416,14.416,0,0,1,14.416-14.415Z" transform="translate(902.942 -53.571)" fill="#cecee2"/>
    <path id="Path_241" data-name="Path 241" d="M590.544,147.321a.4.4,0,0,1-.523-.217l-1.042-2.517a.4.4,0,1,1,.74-.306l1.042,2.517A.4.4,0,0,1,590.544,147.321Z" transform="translate(834.904 -12.814)" fill="#3f3d56"/>
    <path id="Path_242" data-name="Path 242" d="M609.044,116.854h0l-3.109-7.513a4.706,4.706,0,0,0-6.148-2.549h0l-15.918,6.587a4.706,4.706,0,0,0-2.549,6.148h0l17.057,41.218a4.706,4.706,0,0,0,6.148,2.549h0l15.918-6.587a4.706,4.706,0,0,0,2.549-6.148h0L611.258,122.2h0a.3.3,0,0,0,.161-.388l-1.986-4.8a.3.3,0,0,0-.388-.161Z" transform="translate(837.415 -0.994)" fill="#3f3d56"/>
    <path id="Path_243" data-name="Path 243" d="M605.618,110.28l17.033,41.159a3.512,3.512,0,0,1-1.868,4.575.19.19,0,0,1-.034.017l-16,6.619a3.516,3.516,0,0,1-4.593-1.9l-17.033-41.159A3.514,3.514,0,0,1,585.034,115l1.94-.8a1.67,1.67,0,0,0,2.31,1.535l9.119-3.774a1.627,1.627,0,0,0,.531-.357,1.666,1.666,0,0,0,.014-2.36l2.08-.861a3.514,3.514,0,0,1,4.589,1.9Z" transform="translate(836.818 -1.521)" fill="#ff4500"/>
    <path id="Path_244" data-name="Path 244" d="M587.953,141.058a.4.4,0,0,1-.523-.217l-1.042-2.517a.4.4,0,0,1,.74-.306l1.042,2.517A.4.4,0,0,1,587.953,141.058Z" transform="translate(835.719 -10.845)" fill="#3f3d56"/>
    <path id="Path_245" data-name="Path 245" d="M584.9,133.976a.4.4,0,0,1-.523-.217l-1.042-2.517a.4.4,0,1,1,.74-.306l1.042,2.517A.4.4,0,0,1,584.9,133.976Z" transform="translate(836.68 -8.619)" fill="#3f3d56"/>
    <path id="Path_246" data-name="Path 246" d="M594.166,114.773a.4.4,0,0,1,.217-.523l2.517-1.042a.4.4,0,0,1,.306.74l-2.517,1.042A.4.4,0,0,1,594.166,114.773Z" transform="translate(833.273 -3.114)" fill="#e5f0ff"/>
    <path id="Path_308" data-name="Path 308" d="M.4,0A.4.4,0,1,1,0,.4.4.4,0,0,1,.4,0Z" transform="translate(1431.333 109.482)" fill="#e5f0ff"/>
    <path id="Path_247" data-name="Path 247" d="M711.7,340.658l-.152,0a3.7,3.7,0,0,1-2.972-1.69,41.754,41.754,0,0,0-8.79-9.521c-2.063-1.649-4.218-3.182-6.3-4.665-5.378-3.824-10.442-7.425-13.254-12.4-6.129-10.851,1.089-25.964,11.4-32.742,11.566-7.6,26.78-8.794,41.5-8.951q2.294-.024,4.591-.024h0a437.778,437.778,0,0,1,79.061,7.229c8.672,1.6,17.75,3.56,25.045,8.317,7.251,4.729,11.659,12.175,11.229,18.971-.628,9.921-11.145,17.334-20.722,19.273-9.128,1.846-18.611.6-28.65-.723-2.216-.291-4.508-.593-6.774-.855-24.628-2.847-70.893,5.927-72.85,6.3l-1.942.372-7.535,9.7a3.616,3.616,0,0,1-2.882,1.415Z" transform="translate(806.917 -52.621)" fill="#ff4500"/>
    <path id="Path_248" data-name="Path 248" d="M838.351,300.085H734.258a2.265,2.265,0,0,1,0-4.53H838.351a2.265,2.265,0,0,1,0,4.53Z" transform="translate(789.936 -60.448)" fill="#e5f0ff"/>
    <path id="Path_249" data-name="Path 249" d="M838.35,320.361H734.257a2.265,2.265,0,1,1,0-4.53h104.1a2.265,2.265,0,1,1,0,4.53Z" transform="translate(789.937 -66.822)" fill="#e5f0ff"/>
    <path id="Path_250" data-name="Path 250" d="M746.388,340.637h-12.13a2.265,2.265,0,0,1,0-4.53h12.131a2.265,2.265,0,0,1,0,4.53Z" transform="translate(789.936 -73.196)" fill="#e5f0ff"/>
    <path id="Path_307" data-name="Path 307" d="M11.009,0A11.009,11.009,0,1,1,0,11.009,11.009,11.009,0,0,1,11.009,0Z" transform="translate(1508.893 281.808)" fill="#fff"/>
    <path id="Path_251" data-name="Path 251" d="M723.928,385.759a11.143,11.143,0,1,1,11.144-11.144A11.144,11.144,0,0,1,723.928,385.759Z" transform="translate(795.974 -81.799)" fill="#3f3d56"/>
    <path id="Path_252" data-name="Path 252" d="M726.33,381.989l-.07,0a1.44,1.44,0,0,1-1.067-.555l-1.84-2.365a1.44,1.44,0,0,1,.253-2.021l.066-.052a1.44,1.44,0,0,1,2.022.253,1.05,1.05,0,0,0,1.591.077l3.736-3.944a1.442,1.442,0,0,1,2.036-.055l.061.058a1.44,1.44,0,0,1,.055,2.036l-5.8,6.119A1.439,1.439,0,0,1,726.33,381.989Z" transform="translate(792.748 -84.772)" fill="#e5f0ff"/>
    <path id="Path_253" data-name="Path 253" d="M426.114,149.589l-6.735-40.5a3.138,3.138,0,0,1,2.578-3.606l30.59-5.087a3.138,3.138,0,0,1,3.606,2.578l6.735,40.5a3.138,3.138,0,0,1-2.578,3.606l-30.59,5.087A3.138,3.138,0,0,1,426.114,149.589Z" transform="translate(888.225 0.919)" fill="#3f3d56"/>
    <path id="Path_254" data-name="Path 254" d="M427.673,138.243l-4.33-26.04a2.939,2.939,0,0,1,2.414-3.377l26.289-4.372a2.939,2.939,0,0,1,3.378,2.414l5.994,36.043A2.939,2.939,0,0,1,459,146.289L442.718,149a13.091,13.091,0,0,1-15.044-10.754Z" transform="translate(886.978 -0.359)" fill="#e5f0ff"/>
    <path id="Path_255" data-name="Path 255" d="M431.314,122.417a2.872,2.872,0,0,1,2.359-3.3l18.237-3.033a2.869,2.869,0,1,1,.941,5.66l-18.237,3.033A2.872,2.872,0,0,1,431.314,122.417Z" transform="translate(884.472 -4.015)" fill="#ff4500"/>
    <path id="Path_256" data-name="Path 256" d="M433.449,135.258a2.872,2.872,0,0,1,2.359-3.3l18.237-3.033a2.869,2.869,0,0,1,.941,5.66l-18.237,3.033A2.872,2.872,0,0,1,433.449,135.258Z" transform="translate(883.8 -8.052)" fill="#ff4500"/>
    <path id="Path_257" data-name="Path 257" d="M435.584,148.1a2.872,2.872,0,0,1,2.359-3.3l18.237-3.033a2.869,2.869,0,0,1,.941,5.66l-18.237,3.033a2.872,2.872,0,0,1-3.3-2.359Z" transform="translate(883.129 -12.089)" fill="#ff4500"/>
    <path id="Path_258" data-name="Path 258" d="M654.059,766.066l.485-10.9a35.211,35.211,0,0,1,16.423-4.157c-7.888,6.449-6.9,18.879-12.249,27.551a21.179,21.179,0,0,1-15.53,9.787l-6.6,4.041a35.488,35.488,0,0,1,7.48-28.757,34.278,34.278,0,0,1,6.3-5.854C651.947,761.944,654.059,766.066,654.059,766.066Z" transform="translate(820.104 -203.627)" fill="#cecee2"/>
    <path id="Path_259" data-name="Path 259" d="M452.207,813.34c.011.625-.136.312-.218.311H369.121c-.17,0-.308-.477-.308-1.065s.138-1.065.308-1.065h82.869A7.3,7.3,0,0,1,452.207,813.34Z" transform="translate(1007.235 -222.651)" fill="rgba(171,171,206,0.5)"/>
    <path id="Path_260" data-name="Path 260" d="M350.211,393.316c-5.083-.1-32.389-.885-36.867-.692-.253-.887-8.742,9.991-8.948,10.059a1.24,1.24,0,0,0,.415,1.994c.5.3,44.519-.511,45.053-.4a1.224,1.224,0,0,0,1.093-.712l.294-.659c.031-1.127.4-6.889.068-7.874a1.219,1.219,0,0,0-1.108-1.71Z" transform="translate(924.465 -90.947)" fill="#3f3d56"/>
    <path id="Path_261" data-name="Path 261" d="M351.252,407.634c-.258.621-.589,1.4-1.387,1.372l-44.588.5A1.23,1.23,0,0,1,304.2,407.7Z" transform="translate(924.464 -95.682)" opacity="0.17"/>
    <path id="Path_262" data-name="Path 262" d="M306.216,359.875c-.48-.83-12.4-59.813-13.4-60.307l-8.139-9.956-.727-.547c-1.012-.556-3.438-.18-3.219,1.365h0c1.912,9.167,14.21,61.377,14.48,69.516l1.481,10.37a1.277,1.277,0,0,0,1.577,1.049,2.456,2.456,0,0,0,1.973-1.426C300.356,369.574,306.774,360.087,306.216,359.875Z" transform="translate(931.801 -58.331)" fill="#3f3d56"/>
    <path id="Path_263" data-name="Path 263" d="M284.685,289.62l15.566,80.329c-.521,1.318-2.956,2.241-3.524.512-.01,0-15.969-79.975-15.985-80.022C280.572,288.514,283.752,288.453,284.685,289.62Z" transform="translate(931.796 -58.339)" opacity="0.17"/>
    <path id="Path_264" data-name="Path 264" d="M20.55,209.392l7.906,11.02,8.873,42.142-4.125,3.6Z" transform="translate(1196.4 25.174)" fill="#ff4500"/>
    <path id="Path_265" data-name="Path 265" d="M363.93,399.55l2.187.089a8.6,8.6,0,0,1,.315-1.892c.329-1.563.624-3.421-.74-3.414-.926-.089-1.241,1.083-1.406,2.359A18.047,18.047,0,0,1,363.93,399.55Z" transform="translate(905.643 -91.499)" fill="#2f2e41"/>
    <path id="Path_266" data-name="Path 266" d="M345.63,396.371l1.474.055.713.027c-.014-.782.35-2.393-.535-2.79a1.1,1.1,0,0,0-.446-.089c-.83-.048-1.076.583-1.152,1.31-.048.439-.027.905-.041,1.268C345.644,396.227,345.637,396.3,345.63,396.371Z" transform="translate(911.396 -91.261)" fill="#2f2e41"/>
    <path id="Path_267" data-name="Path 267" d="M339.26,396.111l1.481.062.706.027c-.014-.9.459-2.859-.98-2.886-1.33-.075-1.159,1.618-1.193,2.578C339.274,395.967,339.267,396.042,339.26,396.111Z" transform="translate(913.398 -91.179)" fill="#2f2e41"/>
    <path id="Path_268" data-name="Path 268" d="M332.89,395.861l1.474.055.713.027c-.014-.891.459-2.852-.98-2.88-1.33-.082-1.159,1.611-1.193,2.578C332.9,395.717,332.9,395.792,332.89,395.861Z" transform="translate(915.401 -91.1)" fill="#2f2e41"/>
    <path id="Path_269" data-name="Path 269" d="M326.52,395.6l1.481.062.706.027c-.014-.9.459-2.852-.98-2.887-1.33-.075-1.159,1.618-1.193,2.578C326.534,395.457,326.527,395.533,326.52,395.6Z" transform="translate(917.403 -91.019)" fill="#2f2e41"/>
    <path id="Path_270" data-name="Path 270" d="M320.15,395.351l1.474.055.713.027c-.014-.823.384-2.544-.672-2.839h-.007a1,1,0,0,0-.3-.041,1.032,1.032,0,0,0-.37.034h-.007c-.919.24-.789,1.68-.816,2.544C320.164,395.206,320.157,395.282,320.15,395.351Z" transform="translate(919.406 -90.939)" fill="#2f2e41"/>
    <path id="Path_271" data-name="Path 271" d="M357.5,394.671l2.187.089c0-.082,0-.171.007-.274a9.14,9.14,0,0,0,.027-1.57c-.075-.576-.322-1.028-1.015-1.042-.706-.041-.987.411-1.1.994a2.129,2.129,0,0,0-.055.3v.007C357.5,393.711,357.534,394.287,357.5,394.671Z" transform="translate(907.664 -90.726)" fill="#2f2e41"/>
    <path id="Path_272" data-name="Path 272" d="M351.13,394.414l2.187.089a15.958,15.958,0,0,0,.041-1.769c-.062-.6-.3-1.1-1.022-1.111-.727-.048-1.008.446-1.118,1.056C351.116,393.269,351.171,393.975,351.13,394.414Z" transform="translate(909.667 -90.647)" fill="#2f2e41"/>
    <path id="Path_273" data-name="Path 273" d="M344.76,394.161l.651.027,1.536.062c-.007-.329.055-.809.062-1.282a2.9,2.9,0,0,0-.014-.425c-.055-.638-.281-1.166-1.028-1.179-.761-.041-1.028.487-1.124,1.131C344.746,393.07,344.8,393.736,344.76,394.161Z" transform="translate(911.669 -90.566)" fill="#2f2e41"/>
    <path id="Path_274" data-name="Path 274" d="M357.56,400.411l2.187.082c-.007-.891.459-2.852-.98-2.88C357.327,397.524,357.642,399.513,357.56,400.411Z" transform="translate(907.646 -92.531)" fill="#2f2e41"/>
    <path id="Path_275" data-name="Path 275" d="M351.19,400.151l2.187.089c-.007-.9.459-2.859-.98-2.887C350.957,397.271,351.272,399.26,351.19,400.151Z" transform="translate(909.648 -92.449)" fill="#2f2e41"/>
    <path id="Path_276" data-name="Path 276" d="M344.82,399.9l2.187.082c-.007-.638.233-1.817-.158-2.448a.9.9,0,0,0-.823-.432.964.964,0,0,0-.638.158C344.69,397.72,344.889,399.173,344.82,399.9Z" transform="translate(911.65 -92.369)" fill="#2f2e41"/>
    <path id="Path_277" data-name="Path 277" d="M338.45,399.639l2.187.089c-.007-.638.226-1.81-.151-2.448a.907.907,0,0,0-.83-.439.952.952,0,0,0-.638.158C338.32,397.473,338.519,398.92,338.45,399.639Z" transform="translate(913.653 -92.287)" fill="#2f2e41"/>
    <path id="Path_278" data-name="Path 278" d="M332.08,399.389l2.187.082c-.007-.638.233-1.817-.158-2.448a.9.9,0,0,0-.823-.432.963.963,0,0,0-.638.158C331.95,397.209,332.149,398.663,332.08,399.389Z" transform="translate(915.655 -92.208)" fill="#2f2e41"/>
    <path id="Path_279" data-name="Path 279" d="M325.71,399.13l2.187.089c-.007-.638.226-1.81-.151-2.448a.9.9,0,0,0-.83-.439.953.953,0,0,0-.638.158C325.58,396.963,325.779,398.41,325.71,399.13Z" transform="translate(917.658 -92.127)" fill="#2f2e41"/>
    <path id="Path_280" data-name="Path 280" d="M319.34,398.88l2.187.082c-.007-.638.226-1.81-.158-2.448a.9.9,0,0,0-.823-.432.963.963,0,0,0-.638.158C319.21,396.706,319.409,398.152,319.34,398.88Z" transform="translate(919.66 -92.048)" fill="#2f2e41"/>
    <path id="Path_315" data-name="Path 315" d="M-.665,34,10.045,9.5h8.12L28.875,34h-8.54l-7.91-20.58h3.22L7.735,34ZM5.7,29.73l2.1-5.95h11.27l2.1,5.95ZM42.805,34V9.5H54.6a14.432,14.432,0,0,1,5.932,1.12,8.45,8.45,0,0,1,5.232,8.12A8.6,8.6,0,0,1,64.4,23.622a8.637,8.637,0,0,1-3.868,3.132A14.839,14.839,0,0,1,54.6,27.84H47.39l3.675-3.4V34ZM57.47,34l-6.02-8.925H60.2L66.29,34Zm-6.4-8.645L47.39,21.61h6.685a3.608,3.608,0,0,0,2.538-.77,2.737,2.737,0,0,0,.822-2.1,2.737,2.737,0,0,0-.822-2.1,3.608,3.608,0,0,0-2.538-.77H47.39l3.675-3.745Zm29.19,8.995a13.574,13.574,0,0,1-6.107-1.295A9.856,9.856,0,0,1,70.1,29.5,9.291,9.291,0,0,1,68.67,24.41a9.415,9.415,0,0,1,1.417-5.145,9.732,9.732,0,0,1,3.885-3.5A12.021,12.021,0,0,1,79.52,14.5a12.208,12.208,0,0,1,5.233,1.12A9.173,9.173,0,0,1,88.6,18.95a9.717,9.717,0,0,1,1.452,5.46q0,.42-.035.927t-.07.927H75.215V22.45H85.75l-2.975,1.015a4.151,4.151,0,0,0-.4-1.908,3.039,3.039,0,0,0-1.1-1.225,3.106,3.106,0,0,0-1.68-.437,3.2,3.2,0,0,0-1.7.438,2.881,2.881,0,0,0-1.1,1.225,4.311,4.311,0,0,0-.385,1.908v1.19a4.235,4.235,0,0,0,.49,2.1,3.112,3.112,0,0,0,1.4,1.313A5.055,5.055,0,0,0,80.5,28.5a5.842,5.842,0,0,0,2.188-.35,8.422,8.422,0,0,0,1.8-1.05l4.13,4.165a9.082,9.082,0,0,1-3.447,2.292A13.712,13.712,0,0,1,80.255,34.35Zm20.825,0a22.356,22.356,0,0,1-4.83-.525A13.841,13.841,0,0,1,92.4,32.46l2.17-5.215a11.974,11.974,0,0,0,3.167,1.26,14.344,14.344,0,0,0,3.518.455,5.111,5.111,0,0,0,1.942-.245.745.745,0,0,0,.507-.665q0-.42-.595-.612a8.076,8.076,0,0,0-1.575-.3q-.98-.1-2.152-.262A19.236,19.236,0,0,1,97.02,26.4a7.561,7.561,0,0,1-2.17-.945,4.7,4.7,0,0,1-1.575-1.7,5.525,5.525,0,0,1-.6-2.712,5.349,5.349,0,0,1,1.1-3.29,7.549,7.549,0,0,1,3.29-2.363,14.363,14.363,0,0,1,5.408-.892,23.246,23.246,0,0,1,4.2.385,12.344,12.344,0,0,1,3.6,1.19l-2.17,5.215a10.532,10.532,0,0,0-2.888-1.1,12.911,12.911,0,0,0-2.642-.3,5.035,5.035,0,0,0-2.048.28q-.543.28-.543.63,0,.42.6.63a7.161,7.161,0,0,0,1.575.315q.98.1,2.153.262a16.772,16.772,0,0,1,2.345.49,7.981,7.981,0,0,1,2.152.963,4.7,4.7,0,0,1,1.575,1.7,5.525,5.525,0,0,1,.6,2.712,5.33,5.33,0,0,1-1.085,3.2,7.351,7.351,0,0,1-3.29,2.38A14.832,14.832,0,0,1,101.08,34.35Zm23.9,0a13.574,13.574,0,0,1-6.107-1.295,9.856,9.856,0,0,1-4.043-3.552A9.291,9.291,0,0,1,113.4,24.41a9.415,9.415,0,0,1,1.417-5.145,9.732,9.732,0,0,1,3.885-3.5,12.021,12.021,0,0,1,5.548-1.26,12.208,12.208,0,0,1,5.233,1.12,9.173,9.173,0,0,1,3.85,3.325,9.716,9.716,0,0,1,1.452,5.46q0,.42-.035.927t-.07.927H119.945V22.45H130.48L127.5,23.465a4.151,4.151,0,0,0-.4-1.908,3.039,3.039,0,0,0-1.1-1.225,3.106,3.106,0,0,0-1.68-.437,3.2,3.2,0,0,0-1.7.438,2.881,2.881,0,0,0-1.1,1.225,4.311,4.311,0,0,0-.385,1.908v1.19a4.235,4.235,0,0,0,.49,2.1,3.112,3.112,0,0,0,1.4,1.313,5.055,5.055,0,0,0,2.205.438,5.842,5.842,0,0,0,2.188-.35,8.423,8.423,0,0,0,1.8-1.05l4.13,4.165a9.082,9.082,0,0,1-3.447,2.292A13.712,13.712,0,0,1,124.985,34.35Zm24.4-.35V30.6l-.56-.91v-6.44a2.657,2.657,0,0,0-.857-2.135,4.249,4.249,0,0,0-2.783-.735,9.029,9.029,0,0,0-2.625.4,7.377,7.377,0,0,0-2.275,1.1l-2.52-5.215a13.441,13.441,0,0,1,4.025-1.61,19.7,19.7,0,0,1,4.585-.56q4.935,0,7.648,2.2t2.712,7V34Zm-5.425.35a8.56,8.56,0,0,1-3.92-.805A5.583,5.583,0,0,1,136.85,28.4a5.2,5.2,0,0,1,.945-3.15,5.742,5.742,0,0,1,2.887-1.96,15.405,15.405,0,0,1,4.918-.665h3.99V26.44h-2.73a3.274,3.274,0,0,0-1.838.4,1.374,1.374,0,0,0-.577,1.208,1.394,1.394,0,0,0,.508,1.1,2.047,2.047,0,0,0,1.382.438,2.7,2.7,0,0,0,1.488-.437,2.509,2.509,0,0,0,1-1.382l1.015,2.345A5.008,5.008,0,0,1,147.91,33.3,6.677,6.677,0,0,1,143.955,34.35ZM161.21,34V14.855h7.525V20.63l-1.225-1.645a6.465,6.465,0,0,1,2.8-3.36,9.034,9.034,0,0,1,4.62-1.12v7q-.525-.07-.928-.1t-.822-.035a4.475,4.475,0,0,0-2.923.928,3.924,3.924,0,0,0-1.137,3.2V34Zm27.125.35a13.047,13.047,0,0,1-5.845-1.26,9.808,9.808,0,0,1-4.008-3.517,9.331,9.331,0,0,1-1.452-5.163,9.246,9.246,0,0,1,1.452-5.145,9.853,9.853,0,0,1,4.008-3.5,13.047,13.047,0,0,1,5.845-1.26,11.342,11.342,0,0,1,5.985,1.505,7.809,7.809,0,0,1,3.43,4.165l-6.125,3.01a4.506,4.506,0,0,0-1.452-1.925,3.216,3.216,0,0,0-1.872-.595,3.285,3.285,0,0,0-1.628.42,2.987,2.987,0,0,0-1.19,1.243,4.408,4.408,0,0,0-.437,2.083,4.516,4.516,0,0,0,.438,2.1,2.966,2.966,0,0,0,1.19,1.26,3.285,3.285,0,0,0,1.628.42,3.216,3.216,0,0,0,1.872-.595,4.506,4.506,0,0,0,1.452-1.925l6.125,3.01a7.809,7.809,0,0,1-3.43,4.165A11.342,11.342,0,0,1,188.335,34.35ZM213.92,14.5a8.8,8.8,0,0,1,3.99.892,6.483,6.483,0,0,1,2.818,2.783,10.18,10.18,0,0,1,1.033,4.9V34h-7.91V24.445a3.981,3.981,0,0,0-.63-2.538,2.119,2.119,0,0,0-1.715-.753,3.088,3.088,0,0,0-1.487.368,2.574,2.574,0,0,0-1.085,1.208,5.335,5.335,0,0,0-.4,2.275V34h-7.91V8.03h7.91V20.455l-1.89-1.61a7.669,7.669,0,0,1,3.027-3.255A8.448,8.448,0,0,1,213.92,14.5ZM237.16,34.35a13.574,13.574,0,0,1-6.108-1.295A9.856,9.856,0,0,1,227.01,29.5a9.291,9.291,0,0,1-1.435-5.093,9.415,9.415,0,0,1,1.417-5.145,9.732,9.732,0,0,1,3.885-3.5,12.021,12.021,0,0,1,5.548-1.26,12.208,12.208,0,0,1,5.232,1.12,9.173,9.173,0,0,1,3.85,3.325,9.716,9.716,0,0,1,1.452,5.46q0,.42-.035.927t-.07.927H232.12V22.45h10.535l-2.975,1.015a4.151,4.151,0,0,0-.4-1.908,3.039,3.039,0,0,0-1.1-1.225,3.106,3.106,0,0,0-1.68-.437,3.2,3.2,0,0,0-1.7.438,2.882,2.882,0,0,0-1.1,1.225,4.311,4.311,0,0,0-.385,1.908v1.19a4.234,4.234,0,0,0,.49,2.1,3.112,3.112,0,0,0,1.4,1.313,5.055,5.055,0,0,0,2.205.438,5.842,5.842,0,0,0,2.188-.35,8.422,8.422,0,0,0,1.8-1.05l4.13,4.165a9.082,9.082,0,0,1-3.447,2.292A13.712,13.712,0,0,1,237.16,34.35ZM250.495,34V14.855h7.525V20.63l-1.225-1.645a6.465,6.465,0,0,1,2.8-3.36,9.035,9.035,0,0,1,4.62-1.12v7q-.525-.07-.927-.1t-.823-.035a4.475,4.475,0,0,0-2.922.928,3.924,3.924,0,0,0-1.138,3.2V34Zm16.135,5.6,2.94-9.835,1.155,4.41A4.764,4.764,0,0,1,267.4,33a4.1,4.1,0,0,1-1.295-3.2,4.228,4.228,0,0,1,1.313-3.272,5.134,5.134,0,0,1,6.615,0,4.228,4.228,0,0,1,1.313,3.272,7.246,7.246,0,0,1-.087,1.12,7.692,7.692,0,0,1-.368,1.348q-.28.787-.91,2.117L271.53,39.6Zm33.145-5.04a25.021,25.021,0,0,1-5.95-.7,16.93,16.93,0,0,1-4.725-1.82l2.66-6.02a17.036,17.036,0,0,0,3.9,1.627,15.251,15.251,0,0,0,4.183.613,8.724,8.724,0,0,0,1.872-.157,2.149,2.149,0,0,0,1-.455.951.951,0,0,0,.315-.717,1.167,1.167,0,0,0-.735-1.05,7.846,7.846,0,0,0-1.943-.648q-1.207-.262-2.642-.56a24.751,24.751,0,0,1-2.888-.787,11.255,11.255,0,0,1-2.66-1.3,6.058,6.058,0,0,1-1.942-2.118,6.624,6.624,0,0,1-.735-3.273,7.2,7.2,0,0,1,1.277-4.147,8.728,8.728,0,0,1,3.815-2.993,15.664,15.664,0,0,1,6.318-1.12,23,23,0,0,1,4.9.525,15.48,15.48,0,0,1,4.34,1.61L307.65,17.06a18.76,18.76,0,0,0-3.518-1.365,12.749,12.749,0,0,0-3.307-.455,6.811,6.811,0,0,0-1.89.21,2.06,2.06,0,0,0-1,.56,1.163,1.163,0,0,0-.3.77,1.113,1.113,0,0,0,.735,1,7.961,7.961,0,0,0,1.942.612q1.208.245,2.66.525a21.552,21.552,0,0,1,2.888.77,11.352,11.352,0,0,1,2.642,1.3,6.105,6.105,0,0,1,1.943,2.1,6.444,6.444,0,0,1,.735,3.22,7.143,7.143,0,0,1-1.277,4.113,8.855,8.855,0,0,1-3.8,3.01A15.424,15.424,0,0,1,299.775,34.56Zm24.78-.21a12.49,12.49,0,0,1-5.757-1.278,9.931,9.931,0,0,1-3.937-3.517,9.329,9.329,0,0,1-1.435-5.145,9.329,9.329,0,0,1,1.435-5.145,9.8,9.8,0,0,1,3.938-3.5,13.824,13.824,0,0,1,11.532,0,9.653,9.653,0,0,1,3.938,3.5,9.415,9.415,0,0,1,1.417,5.145,9.415,9.415,0,0,1-1.417,5.145,9.776,9.776,0,0,1-3.938,3.517A12.6,12.6,0,0,1,324.555,34.35Zm0-6.16a3,3,0,0,0,1.575-.42,2.95,2.95,0,0,0,1.12-1.278,4.7,4.7,0,0,0,.42-2.083,4.563,4.563,0,0,0-.42-2.083,2.994,2.994,0,0,0-5.39,0,4.563,4.563,0,0,0-.42,2.083,4.7,4.7,0,0,0,.42,2.083,2.95,2.95,0,0,0,1.12,1.278A3,3,0,0,0,324.555,28.19ZM340.095,34V15.8a7.958,7.958,0,0,1,2.223-5.915,8.586,8.586,0,0,1,6.318-2.205,14.45,14.45,0,0,1,2.538.228,6.858,6.858,0,0,1,2.152.718l-1.89,5.495a7.02,7.02,0,0,0-.84-.315,3.2,3.2,0,0,0-.945-.14,1.847,1.847,0,0,0-1.365.525,2.3,2.3,0,0,0-.525,1.68v.91L348,20.035V34ZM337.47,21.68V15.9h14.455V21.68Zm26.95,12.67a9.117,9.117,0,0,1-6.16-1.907q-2.205-1.908-2.2-5.863V10.55h7.91V26.51a1.885,1.885,0,0,0,.473,1.365,1.563,1.563,0,0,0,1.172.49,3.092,3.092,0,0,0,1.785-.525l1.89,5.495a6.992,6.992,0,0,1-2.187.77A14.194,14.194,0,0,1,364.42,34.35ZM353.43,21.68V15.9h14.455V21.68ZM376.67,34l-6.65-19.145h7.49l5.04,15.54h-3.605l5.285-15.54h6.72l5.04,15.54h-3.5l5.215-15.54h6.93L397.985,34h-7.7L386.26,21.68h2.31L384.37,34Zm41.44,0V30.6l-.56-.91v-6.44a2.657,2.657,0,0,0-.857-2.135,4.249,4.249,0,0,0-2.783-.735,9.029,9.029,0,0,0-2.625.4,7.377,7.377,0,0,0-2.275,1.1l-2.52-5.215a13.441,13.441,0,0,1,4.025-1.61,19.7,19.7,0,0,1,4.585-.56q4.935,0,7.647,2.2t2.712,7V34Zm-5.425.35a8.56,8.56,0,0,1-3.92-.805A5.583,5.583,0,0,1,405.58,28.4a5.2,5.2,0,0,1,.945-3.15,5.742,5.742,0,0,1,2.888-1.96,15.405,15.405,0,0,1,4.917-.665h3.99V26.44h-2.73a3.274,3.274,0,0,0-1.837.4,1.374,1.374,0,0,0-.578,1.208,1.394,1.394,0,0,0,.508,1.1,2.047,2.047,0,0,0,1.383.438,2.7,2.7,0,0,0,1.487-.437,2.509,2.509,0,0,0,1-1.382l1.015,2.345A5.009,5.009,0,0,1,416.64,33.3,6.677,6.677,0,0,1,412.685,34.35ZM429.94,34V14.855h7.525V20.63l-1.225-1.645a6.465,6.465,0,0,1,2.8-3.36,9.034,9.034,0,0,1,4.62-1.12v7q-.525-.07-.927-.1t-.823-.035a4.475,4.475,0,0,0-2.922.928,3.924,3.924,0,0,0-1.138,3.2V34Zm27.4.35a13.574,13.574,0,0,1-6.108-1.295,9.856,9.856,0,0,1-4.042-3.552,9.291,9.291,0,0,1-1.435-5.093,9.415,9.415,0,0,1,1.418-5.145,9.732,9.732,0,0,1,3.885-3.5,12.021,12.021,0,0,1,5.547-1.26,12.208,12.208,0,0,1,5.233,1.12,9.173,9.173,0,0,1,3.85,3.325,9.717,9.717,0,0,1,1.452,5.46q0,.42-.035.927t-.07.927H452.3V22.45H462.84l-2.975,1.015a4.151,4.151,0,0,0-.4-1.908,3.039,3.039,0,0,0-1.1-1.225,3.106,3.106,0,0,0-1.68-.437,3.2,3.2,0,0,0-1.7.438,2.881,2.881,0,0,0-1.1,1.225,4.31,4.31,0,0,0-.385,1.908v1.19a4.235,4.235,0,0,0,.49,2.1,3.112,3.112,0,0,0,1.4,1.313,5.055,5.055,0,0,0,2.205.438,5.842,5.842,0,0,0,2.188-.35,8.423,8.423,0,0,0,1.8-1.05l4.13,4.165a9.082,9.082,0,0,1-3.448,2.292A13.712,13.712,0,0,1,457.345,34.35Zm32.69-15.75h10.92v5.95h-10.92Zm.56,9.17h12.25V34h-20.37V9.5H502.39v6.23h-11.8ZM520.135,14.5a8.8,8.8,0,0,1,3.99.892,6.482,6.482,0,0,1,2.818,2.783,10.18,10.18,0,0,1,1.033,4.9V34h-7.91V24.445a3.982,3.982,0,0,0-.63-2.538,2.119,2.119,0,0,0-1.715-.753,3.088,3.088,0,0,0-1.487.368,2.574,2.574,0,0,0-1.085,1.208,5.335,5.335,0,0,0-.4,2.275V34h-7.91V14.855h7.525v5.6l-1.505-1.61a7.668,7.668,0,0,1,3.027-3.255A8.448,8.448,0,0,1,520.135,14.5Zm22.4,26.635a22.8,22.8,0,0,1-5.32-.6,13.153,13.153,0,0,1-4.27-1.785l2.66-5.39a8.447,8.447,0,0,0,2.853,1.382,11.657,11.657,0,0,0,3.272.507,4.883,4.883,0,0,0,3.5-1.032,3.963,3.963,0,0,0,1.05-2.958V29.66l.35-5.95.035-5.95V14.855h7.525v15.33q0,5.565-3.08,8.26T542.535,41.14Zm-1.54-8.19a9.334,9.334,0,0,1-4.515-1.138,8.866,8.866,0,0,1-4.69-8.1,9.032,9.032,0,0,1,1.3-4.9,8.893,8.893,0,0,1,3.395-3.185,9.45,9.45,0,0,1,4.515-1.12,7.674,7.674,0,0,1,4.078.98,5.8,5.8,0,0,1,2.362,3.028,14.938,14.938,0,0,1,.77,5.2,14.938,14.938,0,0,1-.77,5.2,5.894,5.894,0,0,1-2.362,3.045A7.568,7.568,0,0,1,540.995,32.95Zm2.1-6.16a3.567,3.567,0,0,0,1.68-.385,2.875,2.875,0,0,0,1.155-1.085,3.33,3.33,0,0,0,0-3.237,2.793,2.793,0,0,0-1.155-1.05,3.984,3.984,0,0,0-3.342,0,2.888,2.888,0,0,0-1.19,1.05,3.034,3.034,0,0,0,1.19,4.322A3.6,3.6,0,0,0,543.095,26.79ZM558.74,34V14.855h7.91V34Zm3.955-20.685a5.013,5.013,0,0,1-3.465-1.155,3.69,3.69,0,0,1-1.295-2.87,3.69,3.69,0,0,1,1.295-2.87,5.013,5.013,0,0,1,3.465-1.155A5.221,5.221,0,0,1,566.16,6.35a3.485,3.485,0,0,1,1.3,2.8,3.857,3.857,0,0,1-1.3,2.993A4.966,4.966,0,0,1,562.695,13.315Zm21.8,1.19a8.8,8.8,0,0,1,3.99.892,6.482,6.482,0,0,1,2.818,2.783,10.18,10.18,0,0,1,1.033,4.9V34h-7.91V24.445a3.982,3.982,0,0,0-.63-2.538,2.119,2.119,0,0,0-1.715-.753,3.088,3.088,0,0,0-1.487.368,2.574,2.574,0,0,0-1.085,1.208,5.335,5.335,0,0,0-.4,2.275V34H571.2V14.855h7.525v5.6l-1.505-1.61a7.668,7.668,0,0,1,3.027-3.255A8.448,8.448,0,0,1,584.5,14.5ZM607.74,34.35a13.574,13.574,0,0,1-6.107-1.295A9.856,9.856,0,0,1,597.59,29.5a9.291,9.291,0,0,1-1.435-5.093,9.415,9.415,0,0,1,1.418-5.145,9.732,9.732,0,0,1,3.885-3.5A12.022,12.022,0,0,1,607,14.5a12.208,12.208,0,0,1,5.232,1.12,9.173,9.173,0,0,1,3.85,3.325,9.717,9.717,0,0,1,1.453,5.46q0,.42-.035.927t-.07.927H602.7V22.45h10.535l-2.975,1.015a4.151,4.151,0,0,0-.4-1.908,3.04,3.04,0,0,0-1.1-1.225,3.106,3.106,0,0,0-1.68-.437,3.2,3.2,0,0,0-1.7.438,2.882,2.882,0,0,0-1.1,1.225,4.311,4.311,0,0,0-.385,1.908v1.19a4.234,4.234,0,0,0,.49,2.1,3.112,3.112,0,0,0,1.4,1.313,5.055,5.055,0,0,0,2.205.438,5.842,5.842,0,0,0,2.188-.35,8.423,8.423,0,0,0,1.8-1.05l4.13,4.165a9.082,9.082,0,0,1-3.448,2.292A13.712,13.712,0,0,1,607.74,34.35Zm23.905,0a13.574,13.574,0,0,1-6.107-1.295,9.856,9.856,0,0,1-4.043-3.552,9.291,9.291,0,0,1-1.435-5.093,9.415,9.415,0,0,1,1.418-5.145,9.732,9.732,0,0,1,3.885-3.5,12.022,12.022,0,0,1,5.548-1.26,12.208,12.208,0,0,1,5.232,1.12,9.173,9.173,0,0,1,3.85,3.325,9.717,9.717,0,0,1,1.453,5.46q0,.42-.035.927t-.07.927H626.6V22.45H637.14l-2.975,1.015a4.151,4.151,0,0,0-.4-1.908,3.04,3.04,0,0,0-1.1-1.225,3.106,3.106,0,0,0-1.68-.437,3.2,3.2,0,0,0-1.7.438,2.882,2.882,0,0,0-1.1,1.225,4.311,4.311,0,0,0-.385,1.908v1.19a4.234,4.234,0,0,0,.49,2.1,3.112,3.112,0,0,0,1.4,1.313,5.055,5.055,0,0,0,2.205.438,5.842,5.842,0,0,0,2.188-.35,8.423,8.423,0,0,0,1.8-1.05l4.13,4.165a9.082,9.082,0,0,1-3.448,2.292A13.712,13.712,0,0,1,631.645,34.35ZM644.98,34V14.855h7.525V20.63l-1.225-1.645a6.465,6.465,0,0,1,2.8-3.36,9.035,9.035,0,0,1,4.62-1.12v7q-.525-.07-.927-.1t-.823-.035a4.475,4.475,0,0,0-2.922.928,3.924,3.924,0,0,0-1.138,3.2V34Zm16.135,5.6,2.94-9.835,1.155,4.41A4.764,4.764,0,0,1,661.885,33a4.1,4.1,0,0,1-1.295-3.2,4.228,4.228,0,0,1,1.313-3.272,5.134,5.134,0,0,1,6.615,0A4.228,4.228,0,0,1,669.83,29.8a7.243,7.243,0,0,1-.088,1.12,7.686,7.686,0,0,1-.367,1.348q-.28.787-.91,2.117l-2.45,5.215Zm35.735-5.04q-5.635,0-8.785-3.045t-3.15-8.54V9.5h8.26V22.73A6.087,6.087,0,0,0,694.19,26.7a3.785,3.785,0,0,0,5.477,0,6.166,6.166,0,0,0,1-3.972V9.5h8.12V22.975q0,5.5-3.15,8.54T696.85,34.56ZM713.615,34V9.5h8.26V34Zm21.455,3.5L746.62,4.53h7L742.07,37.5Zm43.12-2.94q-5.635,0-8.785-3.045t-3.15-8.54V9.5h8.26V22.73A6.087,6.087,0,0,0,775.53,26.7a3.785,3.785,0,0,0,5.477,0,6.166,6.166,0,0,0,1-3.972V9.5h8.12V22.975q0,5.5-3.15,8.54T778.19,34.56ZM792.33,34l10.92-15.26-.035,5.775L792.645,9.5h9.275l6.16,9.1-3.955.035,6.02-9.135h8.89l-10.57,14.7V18.46L819.56,34h-9.45l-6.16-9.52,3.815-.035L801.745,34ZM2,88V63.5H14.07a16.55,16.55,0,0,1,7.21,1.488,11.534,11.534,0,0,1,4.865,4.217,13.081,13.081,0,0,1,0,13.072,11.493,11.493,0,0,1-4.865,4.235A16.55,16.55,0,0,1,14.07,88Zm8.26-6.44H13.72a6.665,6.665,0,0,0,3.08-.665,4.806,4.806,0,0,0,2.03-1.978,7.23,7.23,0,0,0,0-6.352A4.832,4.832,0,0,0,16.8,70.6a6.665,6.665,0,0,0-3.08-.665H10.255ZM42.28,88.35a13.574,13.574,0,0,1-6.107-1.295A9.856,9.856,0,0,1,32.13,83.5a9.291,9.291,0,0,1-1.435-5.093,9.415,9.415,0,0,1,1.417-5.145A9.732,9.732,0,0,1,36,69.765a12.021,12.021,0,0,1,5.548-1.26,12.208,12.208,0,0,1,5.233,1.12,9.173,9.173,0,0,1,3.85,3.325,9.716,9.716,0,0,1,1.452,5.46q0,.42-.035.928t-.07.927H37.24V76.45H47.775L44.8,77.465a4.151,4.151,0,0,0-.4-1.907,3.039,3.039,0,0,0-1.1-1.225,3.106,3.106,0,0,0-1.68-.437,3.2,3.2,0,0,0-1.7.438,2.882,2.882,0,0,0-1.1,1.225,4.311,4.311,0,0,0-.385,1.907v1.19a4.235,4.235,0,0,0,.49,2.1,3.112,3.112,0,0,0,1.4,1.313,5.055,5.055,0,0,0,2.205.438,5.842,5.842,0,0,0,2.188-.35,8.422,8.422,0,0,0,1.8-1.05l4.13,4.165A9.082,9.082,0,0,1,47.2,87.563,13.712,13.712,0,0,1,42.28,88.35Zm20.825,0a22.356,22.356,0,0,1-4.83-.525,13.84,13.84,0,0,1-3.85-1.365l2.17-5.215a11.974,11.974,0,0,0,3.167,1.26,14.344,14.344,0,0,0,3.518.455,5.111,5.111,0,0,0,1.942-.245.744.744,0,0,0,.507-.665q0-.42-.6-.613a8.075,8.075,0,0,0-1.575-.3q-.98-.1-2.153-.262a19.237,19.237,0,0,1-2.362-.473,7.562,7.562,0,0,1-2.17-.945,4.7,4.7,0,0,1-1.575-1.7,5.525,5.525,0,0,1-.6-2.712,5.349,5.349,0,0,1,1.1-3.29A7.549,7.549,0,0,1,59.1,69.4,14.363,14.363,0,0,1,64.5,68.5a23.246,23.246,0,0,1,4.2.385,12.344,12.344,0,0,1,3.6,1.19l-2.17,5.215a10.532,10.532,0,0,0-2.887-1.1,12.912,12.912,0,0,0-2.643-.3,5.035,5.035,0,0,0-2.048.28q-.543.28-.543.63,0,.42.6.63a7.162,7.162,0,0,0,1.575.315q.98.1,2.152.262a16.772,16.772,0,0,1,2.345.49,7.981,7.981,0,0,1,2.152.962,4.7,4.7,0,0,1,1.575,1.7,5.525,5.525,0,0,1,.6,2.713,5.33,5.33,0,0,1-1.085,3.2,7.35,7.35,0,0,1-3.29,2.38A14.832,14.832,0,0,1,63.1,88.35ZM76.44,88V68.855h7.91V88Zm3.955-20.685A5.013,5.013,0,0,1,76.93,66.16a3.828,3.828,0,0,1,0-5.74,5.013,5.013,0,0,1,3.465-1.155A5.221,5.221,0,0,1,83.86,60.35a3.485,3.485,0,0,1,1.3,2.8,3.857,3.857,0,0,1-1.3,2.993A4.966,4.966,0,0,1,80.395,67.315ZM98.63,95.14a22.8,22.8,0,0,1-5.32-.6,13.154,13.154,0,0,1-4.27-1.785l2.66-5.39a8.447,8.447,0,0,0,2.852,1.382,11.658,11.658,0,0,0,3.273.507,4.883,4.883,0,0,0,3.5-1.033,3.963,3.963,0,0,0,1.05-2.958V83.66l.35-5.95.035-5.95V68.855h7.525v15.33q0,5.565-3.08,8.26T98.63,95.14Zm-1.54-8.19a9.334,9.334,0,0,1-4.515-1.137,9.524,9.524,0,0,1-3.4-13,8.893,8.893,0,0,1,3.4-3.185A9.45,9.45,0,0,1,97.09,68.5a7.674,7.674,0,0,1,4.077.98,5.8,5.8,0,0,1,2.363,3.027,14.939,14.939,0,0,1,.77,5.2,14.939,14.939,0,0,1-.77,5.2,5.894,5.894,0,0,1-2.363,3.045A7.567,7.567,0,0,1,97.09,86.95Zm2.1-6.16a3.567,3.567,0,0,0,1.68-.385,2.876,2.876,0,0,0,1.155-1.085,3.329,3.329,0,0,0,0-3.238,2.793,2.793,0,0,0-1.155-1.05,3.984,3.984,0,0,0-3.342,0,2.888,2.888,0,0,0-1.19,1.05,3.034,3.034,0,0,0,1.19,4.323A3.6,3.6,0,0,0,99.19,80.79ZM128.135,68.5a8.8,8.8,0,0,1,3.99.893,6.483,6.483,0,0,1,2.817,2.783,10.18,10.18,0,0,1,1.033,4.9V88h-7.91V78.445a3.981,3.981,0,0,0-.63-2.537,2.119,2.119,0,0,0-1.715-.753,3.088,3.088,0,0,0-1.488.368,2.574,2.574,0,0,0-1.085,1.207,5.335,5.335,0,0,0-.4,2.275v9h-7.91V68.855h7.525v5.6l-1.5-1.61a7.669,7.669,0,0,1,3.027-3.255A8.448,8.448,0,0,1,128.135,68.5Zm23.24,19.845a13.574,13.574,0,0,1-6.108-1.295,9.856,9.856,0,0,1-4.042-3.552,9.291,9.291,0,0,1-1.435-5.093,9.415,9.415,0,0,1,1.417-5.145,9.732,9.732,0,0,1,3.885-3.5,12.021,12.021,0,0,1,5.548-1.26,12.208,12.208,0,0,1,5.232,1.12,9.173,9.173,0,0,1,3.85,3.325,9.716,9.716,0,0,1,1.452,5.46q0,.42-.035.928t-.07.927H146.335V76.45H156.87l-2.975,1.015a4.151,4.151,0,0,0-.4-1.907,3.039,3.039,0,0,0-1.1-1.225,3.106,3.106,0,0,0-1.68-.437,3.2,3.2,0,0,0-1.7.438,2.882,2.882,0,0,0-1.1,1.225,4.311,4.311,0,0,0-.385,1.907v1.19a4.234,4.234,0,0,0,.49,2.1,3.112,3.112,0,0,0,1.4,1.313,5.055,5.055,0,0,0,2.205.438,5.842,5.842,0,0,0,2.188-.35,8.422,8.422,0,0,0,1.8-1.05l4.13,4.165a9.082,9.082,0,0,1-3.447,2.293A13.712,13.712,0,0,1,151.375,88.35ZM164.71,88V68.855h7.525V74.63l-1.225-1.645a6.465,6.465,0,0,1,2.8-3.36,9.034,9.034,0,0,1,4.62-1.12v7q-.525-.07-.928-.1t-.822-.035a4.475,4.475,0,0,0-2.923.927,3.924,3.924,0,0,0-1.137,3.2V88Zm40.145,0V84.605l-.56-.91v-6.44a2.657,2.657,0,0,0-.857-2.135,4.249,4.249,0,0,0-2.783-.735,9.029,9.029,0,0,0-2.625.4,7.377,7.377,0,0,0-2.275,1.1l-2.52-5.215a13.441,13.441,0,0,1,4.025-1.61,19.7,19.7,0,0,1,4.585-.56q4.935,0,7.648,2.205t2.712,7V88Zm-5.425.35a8.56,8.56,0,0,1-3.92-.805,5.583,5.583,0,0,1-3.185-5.145,5.2,5.2,0,0,1,.945-3.15,5.742,5.742,0,0,1,2.887-1.96,15.405,15.405,0,0,1,4.917-.665h3.99V80.44h-2.73a3.274,3.274,0,0,0-1.838.4,1.374,1.374,0,0,0-.577,1.208,1.394,1.394,0,0,0,.508,1.1,2.047,2.047,0,0,0,1.382.438,2.7,2.7,0,0,0,1.488-.437,2.509,2.509,0,0,0,1-1.382l1.015,2.345a5.009,5.009,0,0,1-1.925,3.185A6.677,6.677,0,0,1,199.43,88.35ZM229.985,68.5a8.8,8.8,0,0,1,3.99.893,6.483,6.483,0,0,1,2.818,2.783,10.18,10.18,0,0,1,1.033,4.9V88h-7.91V78.445a3.981,3.981,0,0,0-.63-2.537,2.119,2.119,0,0,0-1.715-.753,3.088,3.088,0,0,0-1.487.368A2.574,2.574,0,0,0,225,76.73a5.335,5.335,0,0,0-.4,2.275v9h-7.91V68.855h7.525v5.6l-1.5-1.61a7.669,7.669,0,0,1,3.027-3.255A8.448,8.448,0,0,1,229.985,68.5Zm21.07,19.845a9.133,9.133,0,0,1-4.6-1.207,8.921,8.921,0,0,1-3.378-3.43,11.787,11.787,0,0,1,0-10.605,8.794,8.794,0,0,1,3.378-3.412,9.238,9.238,0,0,1,4.6-1.19,7.336,7.336,0,0,1,4.13,1.067,6.224,6.224,0,0,1,2.38,3.255,17.073,17.073,0,0,1,.77,5.582,18.548,18.548,0,0,1-.717,5.635,5.92,5.92,0,0,1-2.31,3.255A7.624,7.624,0,0,1,251.055,88.35Zm1.89-6.16a3,3,0,0,0,1.575-.42,2.95,2.95,0,0,0,1.12-1.277,4.7,4.7,0,0,0,.42-2.083,4.562,4.562,0,0,0-.42-2.082,2.994,2.994,0,0,0-5.39,0,4.563,4.563,0,0,0-.42,2.082,4.7,4.7,0,0,0,.42,2.083,2.95,2.95,0,0,0,1.12,1.277A3,3,0,0,0,252.945,82.19ZM256.3,88V85.41l-.035-7-.35-7V62.03h7.91V88Zm23.87,0V63.5h13.09q5.075,0,7.49,1.8a5.676,5.676,0,0,1,1.382,7.91,6.881,6.881,0,0,1-2.992,2.292,12.271,12.271,0,0,1-4.83.84l.7-1.89a13.728,13.728,0,0,1,4.953.805,7.083,7.083,0,0,1,3.22,2.327,5.938,5.938,0,0,1,1.137,3.658,5.671,5.671,0,0,1-2.642,4.97Q299.04,88,293.965,88Zm8.12-5.775h4.97a3.511,3.511,0,0,0,2.048-.49,1.85,1.85,0,0,0,0-2.87,3.511,3.511,0,0,0-2.048-.49h-5.53v-5.46h4.41a3.511,3.511,0,0,0,2.048-.473,1.744,1.744,0,0,0,0-2.713,3.618,3.618,0,0,0-2.048-.455h-3.85ZM308.28,88V63.5h8.26V88Zm22.19,0,10.71-24.5h8.12L360.01,88h-8.54l-7.91-20.58h3.22L338.87,88Zm6.37-4.27,2.1-5.95h11.27l2.1,5.95ZM375.445,68.5a8.8,8.8,0,0,1,3.99.893,6.483,6.483,0,0,1,2.818,2.783,10.18,10.18,0,0,1,1.033,4.9V88h-7.91V78.445a3.981,3.981,0,0,0-.63-2.537,2.119,2.119,0,0,0-1.715-.753,3.088,3.088,0,0,0-1.488.368,2.574,2.574,0,0,0-1.085,1.207,5.335,5.335,0,0,0-.4,2.275v9h-7.91V68.855h7.525v5.6l-1.505-1.61a7.669,7.669,0,0,1,3.027-3.255A8.448,8.448,0,0,1,375.445,68.5ZM399.35,88V84.605l-.56-.91v-6.44a2.657,2.657,0,0,0-.857-2.135,4.249,4.249,0,0,0-2.783-.735,9.029,9.029,0,0,0-2.625.4,7.377,7.377,0,0,0-2.275,1.1l-2.52-5.215a13.441,13.441,0,0,1,4.025-1.61,19.7,19.7,0,0,1,4.585-.56q4.935,0,7.647,2.205t2.712,7V88Zm-5.425.35a8.56,8.56,0,0,1-3.92-.805A5.583,5.583,0,0,1,386.82,82.4a5.2,5.2,0,0,1,.945-3.15,5.742,5.742,0,0,1,2.888-1.96,15.405,15.405,0,0,1,4.917-.665h3.99V80.44h-2.73a3.274,3.274,0,0,0-1.837.4,1.374,1.374,0,0,0-.578,1.208,1.394,1.394,0,0,0,.508,1.1,2.047,2.047,0,0,0,1.383.438,2.7,2.7,0,0,0,1.487-.437,2.509,2.509,0,0,0,1-1.382l1.015,2.345A5.009,5.009,0,0,1,397.88,87.3,6.677,6.677,0,0,1,393.925,88.35ZM411.18,88V62.03h7.91V88Zm16.66,7.14a11.45,11.45,0,0,1-3.2-.472,7.646,7.646,0,0,1-2.607-1.243L424.655,88a5.169,5.169,0,0,0,1.347.735,4.157,4.157,0,0,0,1.453.28,2.569,2.569,0,0,0,1.61-.437,3.06,3.06,0,0,0,.91-1.312l.805-2.03.56-.77,6.125-15.61h7.49l-7.875,19.53a12.967,12.967,0,0,1-2.432,4.1,7.727,7.727,0,0,1-3.08,2.065A11.2,11.2,0,0,1,427.84,95.14Zm1.855-6.265-8.33-20.02h8.12l5.74,14.91Zm24.675-.525a22.356,22.356,0,0,1-4.83-.525,13.841,13.841,0,0,1-3.85-1.365l2.17-5.215a11.974,11.974,0,0,0,3.167,1.26,14.344,14.344,0,0,0,3.518.455,5.111,5.111,0,0,0,1.943-.245.744.744,0,0,0,.507-.665q0-.42-.6-.613a8.075,8.075,0,0,0-1.575-.3q-.98-.1-2.152-.262a19.237,19.237,0,0,1-2.363-.473,7.561,7.561,0,0,1-2.17-.945,4.7,4.7,0,0,1-1.575-1.7,5.525,5.525,0,0,1-.6-2.712,5.349,5.349,0,0,1,1.1-3.29,7.549,7.549,0,0,1,3.29-2.363,14.363,14.363,0,0,1,5.408-.893,23.246,23.246,0,0,1,4.2.385,12.345,12.345,0,0,1,3.605,1.19l-2.17,5.215a10.532,10.532,0,0,0-2.887-1.1,12.912,12.912,0,0,0-2.643-.3,5.035,5.035,0,0,0-2.047.28q-.542.28-.543.63,0,.42.6.63a7.161,7.161,0,0,0,1.575.315q.98.1,2.152.262a16.773,16.773,0,0,1,2.345.49,7.982,7.982,0,0,1,2.152.962,4.7,4.7,0,0,1,1.575,1.7,5.525,5.525,0,0,1,.6,2.713,5.33,5.33,0,0,1-1.085,3.2,7.35,7.35,0,0,1-3.29,2.38A14.832,14.832,0,0,1,454.37,88.35Zm22.575,0a9.117,9.117,0,0,1-6.16-1.908q-2.205-1.907-2.2-5.862V64.55h7.91V80.51a1.885,1.885,0,0,0,.473,1.365,1.563,1.563,0,0,0,1.172.49,3.092,3.092,0,0,0,1.785-.525l1.89,5.5a6.992,6.992,0,0,1-2.187.77A14.194,14.194,0,0,1,476.945,88.35Zm-10.99-12.67V69.9H480.41V75.68ZM501.095,88l-6.65-19.145h7.49l5.04,15.54H503.37l5.285-15.54h6.72l5.04,15.54h-3.5l5.215-15.54h6.93L522.41,88h-7.7l-4.025-12.32h2.31L508.795,88Zm30.555,0V68.855h7.91V88ZM535.6,67.315a5.013,5.013,0,0,1-3.465-1.155,3.828,3.828,0,0,1,0-5.74,5.013,5.013,0,0,1,3.465-1.155,5.221,5.221,0,0,1,3.465,1.085,3.485,3.485,0,0,1,1.3,2.8,3.857,3.857,0,0,1-1.3,2.993A4.966,4.966,0,0,1,535.6,67.315ZM553.35,88.35a9.117,9.117,0,0,1-6.16-1.908q-2.205-1.907-2.205-5.862V64.55h7.91V80.51a1.885,1.885,0,0,0,.473,1.365,1.563,1.563,0,0,0,1.172.49,3.092,3.092,0,0,0,1.785-.525l1.89,5.5a6.991,6.991,0,0,1-2.187.77A14.193,14.193,0,0,1,553.35,88.35ZM542.36,75.68V69.9h14.455V75.68Zm32.2-7.175a8.8,8.8,0,0,1,3.99.893,6.482,6.482,0,0,1,2.818,2.783,10.18,10.18,0,0,1,1.033,4.9V88h-7.91V78.445a3.982,3.982,0,0,0-.63-2.537,2.119,2.119,0,0,0-1.715-.753,3.088,3.088,0,0,0-1.487.368,2.574,2.574,0,0,0-1.085,1.207,5.335,5.335,0,0,0-.4,2.275v9h-7.91V62.03h7.91V74.455l-1.89-1.61a7.669,7.669,0,0,1,3.027-3.255A8.448,8.448,0,0,1,574.56,68.5ZM602.63,95.14a11.45,11.45,0,0,1-3.2-.472,7.646,7.646,0,0,1-2.607-1.243L599.445,88a5.17,5.17,0,0,0,1.347.735,4.157,4.157,0,0,0,1.453.28,2.569,2.569,0,0,0,1.61-.437,3.059,3.059,0,0,0,.91-1.312l.8-2.03.56-.77,6.125-15.61h7.49l-7.875,19.53a12.967,12.967,0,0,1-2.432,4.1,7.727,7.727,0,0,1-3.08,2.065A11.2,11.2,0,0,1,602.63,95.14Zm1.855-6.265-8.33-20.02h8.12l5.74,14.91Zm27.58-.525a13.574,13.574,0,0,1-6.107-1.295,9.856,9.856,0,0,1-4.043-3.552,9.291,9.291,0,0,1-1.435-5.093,9.415,9.415,0,0,1,1.418-5.145,9.732,9.732,0,0,1,3.885-3.5,12.022,12.022,0,0,1,5.548-1.26,12.208,12.208,0,0,1,5.232,1.12,9.173,9.173,0,0,1,3.85,3.325,9.717,9.717,0,0,1,1.453,5.46q0,.42-.035.928t-.07.927H627.025V76.45H637.56l-2.975,1.015a4.151,4.151,0,0,0-.4-1.907,3.04,3.04,0,0,0-1.1-1.225,3.106,3.106,0,0,0-1.68-.437,3.2,3.2,0,0,0-1.7.438,2.882,2.882,0,0,0-1.1,1.225,4.311,4.311,0,0,0-.385,1.907v1.19a4.234,4.234,0,0,0,.49,2.1,3.112,3.112,0,0,0,1.4,1.313,5.055,5.055,0,0,0,2.205.438,5.842,5.842,0,0,0,2.188-.35,8.423,8.423,0,0,0,1.8-1.05l4.13,4.165a9.082,9.082,0,0,1-3.448,2.293A13.712,13.712,0,0,1,632.065,88.35Zm24.4-.35V84.605l-.56-.91v-6.44a2.657,2.657,0,0,0-.858-2.135,4.249,4.249,0,0,0-2.782-.735,9.029,9.029,0,0,0-2.625.4,7.377,7.377,0,0,0-2.275,1.1l-2.52-5.215a13.441,13.441,0,0,1,4.025-1.61,19.7,19.7,0,0,1,4.585-.56q4.935,0,7.647,2.205t2.713,7V88Zm-5.425.35a8.56,8.56,0,0,1-3.92-.805A5.583,5.583,0,0,1,643.93,82.4a5.2,5.2,0,0,1,.945-3.15,5.742,5.742,0,0,1,2.888-1.96,15.405,15.405,0,0,1,4.917-.665h3.99V80.44h-2.73a3.274,3.274,0,0,0-1.838.4,1.374,1.374,0,0,0-.577,1.208,1.394,1.394,0,0,0,.507,1.1,2.047,2.047,0,0,0,1.383.438,2.7,2.7,0,0,0,1.488-.437,2.509,2.509,0,0,0,1-1.382l1.015,2.345A5.008,5.008,0,0,1,654.99,87.3,6.677,6.677,0,0,1,651.035,88.35ZM668.29,88V68.855h7.525V74.63l-1.225-1.645a6.465,6.465,0,0,1,2.8-3.36,9.035,9.035,0,0,1,4.62-1.12v7q-.525-.07-.928-.1t-.823-.035a4.475,4.475,0,0,0-2.922.927,3.924,3.924,0,0,0-1.138,3.2V88Zm24.5.35a22.356,22.356,0,0,1-4.83-.525,13.841,13.841,0,0,1-3.85-1.365l2.17-5.215a11.973,11.973,0,0,0,3.168,1.26,14.343,14.343,0,0,0,3.517.455,5.111,5.111,0,0,0,1.943-.245.745.745,0,0,0,.508-.665q0-.42-.595-.613a8.076,8.076,0,0,0-1.575-.3q-.98-.1-2.153-.262a19.237,19.237,0,0,1-2.362-.473,7.561,7.561,0,0,1-2.17-.945,4.7,4.7,0,0,1-1.575-1.7,5.525,5.525,0,0,1-.595-2.712,5.349,5.349,0,0,1,1.1-3.29,7.549,7.549,0,0,1,3.29-2.363,14.363,14.363,0,0,1,5.408-.893,23.246,23.246,0,0,1,4.2.385,12.345,12.345,0,0,1,3.6,1.19l-2.17,5.215a10.532,10.532,0,0,0-2.888-1.1,12.912,12.912,0,0,0-2.643-.3,5.035,5.035,0,0,0-2.047.28q-.542.28-.542.63,0,.42.595.63a7.161,7.161,0,0,0,1.575.315q.98.1,2.152.262a16.772,16.772,0,0,1,2.345.49,7.981,7.981,0,0,1,2.152.962,4.7,4.7,0,0,1,1.575,1.7,5.525,5.525,0,0,1,.6,2.713,5.33,5.33,0,0,1-1.085,3.2,7.35,7.35,0,0,1-3.29,2.38A14.832,14.832,0,0,1,692.79,88.35Zm35,0a12.49,12.49,0,0,1-5.758-1.277,9.931,9.931,0,0,1-3.937-3.518,9.941,9.941,0,0,1,0-10.29,9.8,9.8,0,0,1,3.938-3.5,13.824,13.824,0,0,1,11.533,0,9.654,9.654,0,0,1,3.938,3.5,10.046,10.046,0,0,1,0,10.29,9.776,9.776,0,0,1-3.937,3.518A12.6,12.6,0,0,1,727.79,88.35Zm0-6.16a3,3,0,0,0,1.575-.42,2.95,2.95,0,0,0,1.12-1.277,4.7,4.7,0,0,0,.42-2.083,4.563,4.563,0,0,0-.42-2.082,2.994,2.994,0,0,0-5.39,0,4.563,4.563,0,0,0-.42,2.082,4.7,4.7,0,0,0,.42,2.083,2.95,2.95,0,0,0,1.12,1.277A3,3,0,0,0,727.79,82.19ZM743.33,88V69.8a7.958,7.958,0,0,1,2.222-5.915,8.586,8.586,0,0,1,6.318-2.205,14.449,14.449,0,0,1,2.538.228,6.858,6.858,0,0,1,2.152.717l-1.89,5.495a7.017,7.017,0,0,0-.84-.315,3.2,3.2,0,0,0-.945-.14,1.847,1.847,0,0,0-1.365.525,2.3,2.3,0,0,0-.525,1.68v.91l.245,3.255V88ZM740.7,75.68V69.9H755.16V75.68ZM12.32,142.35a13.573,13.573,0,0,1-6.108-1.3A9.856,9.856,0,0,1,2.17,137.5,9.291,9.291,0,0,1,.735,132.41a9.415,9.415,0,0,1,1.418-5.145,9.732,9.732,0,0,1,3.885-3.5,12.021,12.021,0,0,1,5.548-1.26,12.208,12.208,0,0,1,5.233,1.12,9.173,9.173,0,0,1,3.85,3.325,9.716,9.716,0,0,1,1.452,5.46q0,.42-.035.927t-.07.928H7.28V130.45H17.815l-2.975,1.015a4.151,4.151,0,0,0-.4-1.908,3.039,3.039,0,0,0-1.1-1.225,3.106,3.106,0,0,0-1.68-.438,3.2,3.2,0,0,0-1.7.438,2.882,2.882,0,0,0-1.1,1.225,4.311,4.311,0,0,0-.385,1.908v1.19a4.235,4.235,0,0,0,.49,2.1,3.112,3.112,0,0,0,1.4,1.313,5.055,5.055,0,0,0,2.2.438,5.842,5.842,0,0,0,2.188-.35,8.423,8.423,0,0,0,1.8-1.05l4.13,4.165a9.082,9.082,0,0,1-3.448,2.292A13.712,13.712,0,0,1,12.32,142.35ZM23.065,142l9.03-11.83-.21,4.55-8.61-11.865H32.2l4.235,6.335-3.29.245,4.655-6.58h8.3l-8.645,11.48V129.96L46.27,142H37.205l-4.375-6.755,3.325.455L31.64,142Zm38.465.35a7.354,7.354,0,0,1-4.113-1.068,6.188,6.188,0,0,1-2.4-3.255,17.073,17.073,0,0,1-.77-5.582,18.514,18.514,0,0,1,.717-5.653,5.884,5.884,0,0,1,2.327-3.237,7.641,7.641,0,0,1,4.235-1.05,9.1,9.1,0,0,1,4.62,1.207,8.959,8.959,0,0,1,3.36,3.43,11.787,11.787,0,0,1,0,10.6,8.831,8.831,0,0,1-3.36,3.413A9.208,9.208,0,0,1,61.53,142.35Zm-12.775,6.44V122.855H56.28v2.59l.035,7,.35,7v9.345Zm10.885-12.6a3,3,0,0,0,1.575-.42,2.967,2.967,0,0,0,1.12-1.26,4.586,4.586,0,0,0,.42-2.065,4.675,4.675,0,0,0-.42-2.1,2.967,2.967,0,0,0-1.12-1.26,3.163,3.163,0,0,0-3.15,0,2.967,2.967,0,0,0-1.12,1.26,4.675,4.675,0,0,0-.42,2.1,4.586,4.586,0,0,0,.42,2.065,2.967,2.967,0,0,0,1.12,1.26A3,3,0,0,0,59.64,136.19Zm25.235,6.16a13.573,13.573,0,0,1-6.107-1.3,9.856,9.856,0,0,1-4.043-3.552,9.291,9.291,0,0,1-1.435-5.092,9.415,9.415,0,0,1,1.417-5.145,9.732,9.732,0,0,1,3.885-3.5,12.021,12.021,0,0,1,5.548-1.26,12.208,12.208,0,0,1,5.233,1.12,9.173,9.173,0,0,1,3.85,3.325,9.717,9.717,0,0,1,1.452,5.46q0,.42-.035.927t-.07.928H79.835V130.45H90.37l-2.975,1.015a4.151,4.151,0,0,0-.4-1.908,3.039,3.039,0,0,0-1.1-1.225,3.106,3.106,0,0,0-1.68-.438,3.2,3.2,0,0,0-1.7.438,2.882,2.882,0,0,0-1.1,1.225,4.311,4.311,0,0,0-.385,1.908v1.19a4.235,4.235,0,0,0,.49,2.1,3.112,3.112,0,0,0,1.4,1.313,5.055,5.055,0,0,0,2.205.438,5.842,5.842,0,0,0,2.188-.35,8.423,8.423,0,0,0,1.8-1.05l4.13,4.165a9.082,9.082,0,0,1-3.447,2.292A13.712,13.712,0,0,1,84.875,142.35ZM98.21,142V122.855h7.525v5.775l-1.225-1.645a6.465,6.465,0,0,1,2.8-3.36,9.035,9.035,0,0,1,4.62-1.12v7q-.525-.07-.927-.105t-.823-.035a4.475,4.475,0,0,0-2.923.927,3.924,3.924,0,0,0-1.137,3.2V142Zm17.01,0V122.855h7.91V142Zm3.955-20.685a5.013,5.013,0,0,1-3.465-1.155,3.828,3.828,0,0,1,0-5.74,5.013,5.013,0,0,1,3.465-1.155,5.221,5.221,0,0,1,3.465,1.085,3.485,3.485,0,0,1,1.3,2.8,3.857,3.857,0,0,1-1.3,2.993A4.966,4.966,0,0,1,119.175,121.315ZM138.25,142.35a13.574,13.574,0,0,1-6.108-1.3A9.856,9.856,0,0,1,128.1,137.5a9.291,9.291,0,0,1-1.435-5.092,9.415,9.415,0,0,1,1.417-5.145,9.732,9.732,0,0,1,3.885-3.5,12.021,12.021,0,0,1,5.548-1.26,12.208,12.208,0,0,1,5.232,1.12,9.173,9.173,0,0,1,3.85,3.325,9.716,9.716,0,0,1,1.452,5.46q0,.42-.035.927t-.07.928H133.21V130.45h10.535l-2.975,1.015a4.151,4.151,0,0,0-.4-1.908,3.039,3.039,0,0,0-1.1-1.225,3.106,3.106,0,0,0-1.68-.438,3.2,3.2,0,0,0-1.7.438,2.882,2.882,0,0,0-1.1,1.225,4.311,4.311,0,0,0-.385,1.908v1.19a4.234,4.234,0,0,0,.49,2.1,3.112,3.112,0,0,0,1.4,1.313,5.055,5.055,0,0,0,2.205.438,5.842,5.842,0,0,0,2.188-.35,8.423,8.423,0,0,0,1.8-1.05l4.13,4.165a9.082,9.082,0,0,1-3.447,2.292A13.712,13.712,0,0,1,138.25,142.35ZM164.885,122.5a8.8,8.8,0,0,1,3.99.893,6.483,6.483,0,0,1,2.817,2.783,10.18,10.18,0,0,1,1.033,4.9V142h-7.91v-9.555a3.981,3.981,0,0,0-.63-2.538,2.119,2.119,0,0,0-1.715-.753,3.088,3.088,0,0,0-1.487.367,2.574,2.574,0,0,0-1.085,1.208,5.335,5.335,0,0,0-.4,2.275V142h-7.91V122.855h7.525v5.6l-1.5-1.61a7.669,7.669,0,0,1,3.027-3.255A8.448,8.448,0,0,1,164.885,122.5Zm22.96,19.845A13.047,13.047,0,0,1,182,141.09a9.808,9.808,0,0,1-4.008-3.518,9.869,9.869,0,0,1,0-10.307,9.853,9.853,0,0,1,4.008-3.5,13.047,13.047,0,0,1,5.845-1.26,11.342,11.342,0,0,1,5.985,1.505,7.809,7.809,0,0,1,3.43,4.165l-6.125,3.01a4.506,4.506,0,0,0-1.452-1.925,3.217,3.217,0,0,0-1.872-.6,3.285,3.285,0,0,0-1.628.42,2.988,2.988,0,0,0-1.19,1.243,4.408,4.408,0,0,0-.437,2.083,4.516,4.516,0,0,0,.438,2.1,2.966,2.966,0,0,0,1.19,1.26,3.285,3.285,0,0,0,1.628.42,3.216,3.216,0,0,0,1.872-.6,4.506,4.506,0,0,0,1.452-1.925l6.125,3.01a7.809,7.809,0,0,1-3.43,4.165A11.341,11.341,0,0,1,187.845,142.35Zm22.68,0a13.574,13.574,0,0,1-6.108-1.3,9.856,9.856,0,0,1-4.042-3.552,9.291,9.291,0,0,1-1.435-5.092,9.415,9.415,0,0,1,1.417-5.145,9.732,9.732,0,0,1,3.885-3.5,12.021,12.021,0,0,1,5.548-1.26,12.208,12.208,0,0,1,5.232,1.12,9.173,9.173,0,0,1,3.85,3.325,9.716,9.716,0,0,1,1.452,5.46q0,.42-.035.927t-.07.928H205.485V130.45H216.02l-2.975,1.015a4.151,4.151,0,0,0-.4-1.908,3.039,3.039,0,0,0-1.1-1.225,3.106,3.106,0,0,0-1.68-.438,3.2,3.2,0,0,0-1.7.438,2.882,2.882,0,0,0-1.1,1.225,4.311,4.311,0,0,0-.385,1.908v1.19a4.234,4.234,0,0,0,.49,2.1,3.112,3.112,0,0,0,1.4,1.313,5.055,5.055,0,0,0,2.205.438,5.842,5.842,0,0,0,2.188-.35,8.423,8.423,0,0,0,1.8-1.05l4.13,4.165a9.082,9.082,0,0,1-3.447,2.292A13.712,13.712,0,0,1,210.525,142.35ZM235.41,142V122.855h7.525v5.775l-1.225-1.645a6.465,6.465,0,0,1,2.8-3.36,9.034,9.034,0,0,1,4.62-1.12v7q-.525-.07-.928-.105t-.822-.035a4.475,4.475,0,0,0-2.923.927,3.924,3.924,0,0,0-1.137,3.2V142Zm27.405.35a13.574,13.574,0,0,1-6.108-1.3,9.856,9.856,0,0,1-4.042-3.552,9.291,9.291,0,0,1-1.435-5.092,9.415,9.415,0,0,1,1.417-5.145,9.732,9.732,0,0,1,3.885-3.5,12.021,12.021,0,0,1,5.547-1.26,12.208,12.208,0,0,1,5.233,1.12,9.173,9.173,0,0,1,3.85,3.325,9.717,9.717,0,0,1,1.452,5.46q0,.42-.035.927t-.07.928H257.775V130.45H268.31l-2.975,1.015a4.151,4.151,0,0,0-.4-1.908,3.039,3.039,0,0,0-1.1-1.225,3.106,3.106,0,0,0-1.68-.438,3.2,3.2,0,0,0-1.7.438,2.881,2.881,0,0,0-1.1,1.225,4.31,4.31,0,0,0-.385,1.908v1.19a4.235,4.235,0,0,0,.49,2.1,3.112,3.112,0,0,0,1.4,1.313,5.055,5.055,0,0,0,2.205.438,5.842,5.842,0,0,0,2.188-.35,8.423,8.423,0,0,0,1.8-1.05l4.13,4.165a9.082,9.082,0,0,1-3.448,2.292A13.712,13.712,0,0,1,262.815,142.35Zm20.825,0a22.356,22.356,0,0,1-4.83-.525,13.841,13.841,0,0,1-3.85-1.365l2.17-5.215a11.974,11.974,0,0,0,3.167,1.26,14.344,14.344,0,0,0,3.518.455,5.111,5.111,0,0,0,1.943-.245.744.744,0,0,0,.507-.665q0-.42-.6-.613a8.074,8.074,0,0,0-1.575-.3q-.98-.1-2.152-.262a19.234,19.234,0,0,1-2.363-.473,7.561,7.561,0,0,1-2.17-.945,4.7,4.7,0,0,1-1.575-1.7,5.525,5.525,0,0,1-.6-2.712,5.349,5.349,0,0,1,1.1-3.29,7.549,7.549,0,0,1,3.29-2.363,14.363,14.363,0,0,1,5.408-.893,23.246,23.246,0,0,1,4.2.385,12.345,12.345,0,0,1,3.605,1.19l-2.17,5.215a10.532,10.532,0,0,0-2.887-1.1,12.911,12.911,0,0,0-2.643-.3,5.035,5.035,0,0,0-2.047.28q-.542.28-.543.63,0,.42.6.63a7.161,7.161,0,0,0,1.575.315q.98.1,2.152.262a16.773,16.773,0,0,1,2.345.49,7.982,7.982,0,0,1,2.152.962,4.7,4.7,0,0,1,1.575,1.7,5.525,5.525,0,0,1,.6,2.712,5.33,5.33,0,0,1-1.085,3.2,7.35,7.35,0,0,1-3.29,2.38A14.832,14.832,0,0,1,283.64,142.35Zm23.905,0a13.574,13.574,0,0,1-6.108-1.3A9.856,9.856,0,0,1,297.4,137.5a9.291,9.291,0,0,1-1.435-5.092,9.415,9.415,0,0,1,1.418-5.145,9.732,9.732,0,0,1,3.885-3.5,12.021,12.021,0,0,1,5.547-1.26,12.208,12.208,0,0,1,5.233,1.12,9.173,9.173,0,0,1,3.85,3.325,9.717,9.717,0,0,1,1.452,5.46q0,.42-.035.927t-.07.928H302.505V130.45H313.04l-2.975,1.015a4.151,4.151,0,0,0-.4-1.908,3.039,3.039,0,0,0-1.1-1.225,3.106,3.106,0,0,0-1.68-.438,3.2,3.2,0,0,0-1.7.438,2.881,2.881,0,0,0-1.1,1.225,4.31,4.31,0,0,0-.385,1.908v1.19a4.235,4.235,0,0,0,.49,2.1,3.112,3.112,0,0,0,1.4,1.313,5.055,5.055,0,0,0,2.2.438,5.842,5.842,0,0,0,2.188-.35,8.423,8.423,0,0,0,1.8-1.05l4.13,4.165a9.082,9.082,0,0,1-3.448,2.292A13.712,13.712,0,0,1,307.545,142.35ZM331.94,142v-3.4l-.56-.91v-6.44a2.657,2.657,0,0,0-.857-2.135,4.249,4.249,0,0,0-2.783-.735,9.029,9.029,0,0,0-2.625.4,7.377,7.377,0,0,0-2.275,1.1l-2.52-5.215a13.441,13.441,0,0,1,4.025-1.61,19.7,19.7,0,0,1,4.585-.56q4.935,0,7.647,2.205t2.712,7V142Zm-5.425.35a8.56,8.56,0,0,1-3.92-.805,5.583,5.583,0,0,1-3.185-5.145,5.2,5.2,0,0,1,.945-3.15,5.742,5.742,0,0,1,2.888-1.96,15.405,15.405,0,0,1,4.917-.665h3.99v3.815h-2.73a3.274,3.274,0,0,0-1.837.4,1.374,1.374,0,0,0-.578,1.208,1.394,1.394,0,0,0,.508,1.1,2.047,2.047,0,0,0,1.383.438,2.7,2.7,0,0,0,1.487-.437,2.509,2.509,0,0,0,1-1.382l1.015,2.345a5.009,5.009,0,0,1-1.925,3.185A6.677,6.677,0,0,1,326.515,142.35ZM343.77,142V122.855H351.3v5.775l-1.225-1.645a6.465,6.465,0,0,1,2.8-3.36,9.034,9.034,0,0,1,4.62-1.12v7q-.525-.07-.927-.105t-.823-.035a4.475,4.475,0,0,0-2.923.927,3.924,3.924,0,0,0-1.137,3.2V142Zm27.125.35a13.047,13.047,0,0,1-5.845-1.26,9.808,9.808,0,0,1-4.008-3.518,9.869,9.869,0,0,1,0-10.307,9.853,9.853,0,0,1,4.008-3.5,13.047,13.047,0,0,1,5.845-1.26,11.341,11.341,0,0,1,5.985,1.505,7.809,7.809,0,0,1,3.43,4.165l-6.125,3.01a4.505,4.505,0,0,0-1.452-1.925,3.217,3.217,0,0,0-1.872-.6,3.285,3.285,0,0,0-1.628.42,2.987,2.987,0,0,0-1.19,1.243,4.408,4.408,0,0,0-.437,2.083,4.516,4.516,0,0,0,.438,2.1,2.965,2.965,0,0,0,1.19,1.26,3.285,3.285,0,0,0,1.628.42,3.216,3.216,0,0,0,1.872-.6,4.505,4.505,0,0,0,1.452-1.925l6.125,3.01a7.809,7.809,0,0,1-3.43,4.165A11.341,11.341,0,0,1,370.9,142.35ZM396.48,122.5a8.8,8.8,0,0,1,3.99.893,6.483,6.483,0,0,1,2.818,2.783,10.18,10.18,0,0,1,1.033,4.9V142h-7.91v-9.555a3.981,3.981,0,0,0-.63-2.538,2.119,2.119,0,0,0-1.715-.753,3.088,3.088,0,0,0-1.488.367,2.574,2.574,0,0,0-1.085,1.208,5.335,5.335,0,0,0-.4,2.275V142h-7.91V116.03h7.91v12.425l-1.89-1.61a7.669,7.669,0,0,1,3.028-3.255A8.448,8.448,0,0,1,396.48,122.5ZM408.8,142V122.855h7.91V142Zm3.955-20.685a5.013,5.013,0,0,1-3.465-1.155,3.828,3.828,0,0,1,0-5.74,5.013,5.013,0,0,1,3.465-1.155,5.221,5.221,0,0,1,3.465,1.085,3.485,3.485,0,0,1,1.295,2.8,3.858,3.858,0,0,1-1.295,2.993A4.966,4.966,0,0,1,412.755,121.315Zm21.8,1.19a8.8,8.8,0,0,1,3.99.893,6.483,6.483,0,0,1,2.818,2.783,10.18,10.18,0,0,1,1.033,4.9V142h-7.91v-9.555a3.981,3.981,0,0,0-.63-2.538,2.119,2.119,0,0,0-1.715-.753,3.088,3.088,0,0,0-1.488.367,2.574,2.574,0,0,0-1.085,1.208,5.335,5.335,0,0,0-.4,2.275V142h-7.91V122.855h7.525v5.6l-1.505-1.61a7.669,7.669,0,0,1,3.027-3.255A8.448,8.448,0,0,1,434.56,122.5Zm22.4,26.635a22.8,22.8,0,0,1-5.32-.6,13.153,13.153,0,0,1-4.27-1.785l2.66-5.39a8.447,8.447,0,0,0,2.853,1.383,11.657,11.657,0,0,0,3.272.507,4.883,4.883,0,0,0,3.5-1.033,3.963,3.963,0,0,0,1.05-2.957v-1.61l.35-5.95.035-5.95v-2.905h7.525v15.33q0,5.565-3.08,8.26T456.96,149.14Zm-1.54-8.19a9.334,9.334,0,0,1-4.515-1.137,9.524,9.524,0,0,1-3.395-13,8.893,8.893,0,0,1,3.395-3.185,9.45,9.45,0,0,1,4.515-1.12,7.674,7.674,0,0,1,4.077.98,5.8,5.8,0,0,1,2.363,3.027,17.927,17.927,0,0,1,0,10.4,5.894,5.894,0,0,1-2.363,3.045A7.567,7.567,0,0,1,455.42,140.95Zm2.1-6.16a3.567,3.567,0,0,0,1.68-.385,2.876,2.876,0,0,0,1.155-1.085,3.329,3.329,0,0,0,0-3.238,2.793,2.793,0,0,0-1.155-1.05,3.984,3.984,0,0,0-3.342,0,2.888,2.888,0,0,0-1.19,1.05,3.034,3.034,0,0,0,1.19,4.322A3.6,3.6,0,0,0,457.52,134.79Zm15.12,12.81,2.94-9.835,1.155,4.41A4.764,4.764,0,0,1,473.41,141a4.1,4.1,0,0,1-1.295-3.2,4.228,4.228,0,0,1,1.313-3.273,5.134,5.134,0,0,1,6.615,0,4.228,4.228,0,0,1,1.313,3.273,7.246,7.246,0,0,1-.087,1.12,7.692,7.692,0,0,1-.367,1.348q-.28.787-.91,2.117l-2.45,5.215Zm32.165-5.25a9.133,9.133,0,0,1-4.6-1.208,8.921,8.921,0,0,1-3.377-3.43,11.787,11.787,0,0,1,0-10.6,8.794,8.794,0,0,1,3.377-3.412,9.238,9.238,0,0,1,4.6-1.19,7.336,7.336,0,0,1,4.13,1.067,6.224,6.224,0,0,1,2.38,3.255,17.073,17.073,0,0,1,.77,5.583,18.547,18.547,0,0,1-.718,5.635,5.92,5.92,0,0,1-2.31,3.255A7.624,7.624,0,0,1,504.8,142.35Zm1.89-6.16a3,3,0,0,0,1.575-.42,2.95,2.95,0,0,0,1.12-1.278,4.7,4.7,0,0,0,.42-2.082,4.563,4.563,0,0,0-.42-2.083,2.994,2.994,0,0,0-5.39,0,4.563,4.563,0,0,0-.42,2.083,4.7,4.7,0,0,0,.42,2.082,2.95,2.95,0,0,0,1.12,1.278A3,3,0,0,0,506.7,136.19Zm3.36,5.81v-2.59l-.035-7-.35-7v-9.38h7.91V142Zm22.645.35a13.574,13.574,0,0,1-6.107-1.3,9.856,9.856,0,0,1-4.043-3.552,9.291,9.291,0,0,1-1.435-5.092,9.415,9.415,0,0,1,1.418-5.145,9.732,9.732,0,0,1,3.885-3.5,12.022,12.022,0,0,1,5.548-1.26,12.208,12.208,0,0,1,5.232,1.12,9.173,9.173,0,0,1,3.85,3.325,9.717,9.717,0,0,1,1.453,5.46q0,.42-.035.927t-.07.928H527.66V130.45H538.2l-2.975,1.015a4.151,4.151,0,0,0-.4-1.908,3.04,3.04,0,0,0-1.1-1.225,3.106,3.106,0,0,0-1.68-.438,3.2,3.2,0,0,0-1.7.438,2.882,2.882,0,0,0-1.1,1.225,4.311,4.311,0,0,0-.385,1.908v1.19a4.234,4.234,0,0,0,.49,2.1,3.112,3.112,0,0,0,1.4,1.313,5.055,5.055,0,0,0,2.205.438,5.842,5.842,0,0,0,2.188-.35,8.423,8.423,0,0,0,1.8-1.05l4.13,4.165a9.082,9.082,0,0,1-3.448,2.292A13.712,13.712,0,0,1,532.7,142.35Zm20.825,0a22.356,22.356,0,0,1-4.83-.525,13.841,13.841,0,0,1-3.85-1.365l2.17-5.215a11.973,11.973,0,0,0,3.168,1.26,14.344,14.344,0,0,0,3.517.455,5.111,5.111,0,0,0,1.943-.245.745.745,0,0,0,.508-.665q0-.42-.595-.613a8.074,8.074,0,0,0-1.575-.3q-.98-.1-2.153-.262a19.234,19.234,0,0,1-2.362-.473,7.561,7.561,0,0,1-2.17-.945,4.7,4.7,0,0,1-1.575-1.7,5.525,5.525,0,0,1-.595-2.712,5.349,5.349,0,0,1,1.1-3.29,7.549,7.549,0,0,1,3.29-2.363,14.363,14.363,0,0,1,5.408-.893,23.246,23.246,0,0,1,4.2.385,12.345,12.345,0,0,1,3.6,1.19l-2.17,5.215a10.532,10.532,0,0,0-2.888-1.1,12.912,12.912,0,0,0-2.643-.3,5.035,5.035,0,0,0-2.047.28q-.542.28-.542.63,0,.42.595.63a7.161,7.161,0,0,0,1.575.315q.98.1,2.152.262a16.772,16.772,0,0,1,2.345.49,7.981,7.981,0,0,1,2.152.962,4.7,4.7,0,0,1,1.575,1.7,5.525,5.525,0,0,1,.6,2.712,5.33,5.33,0,0,1-1.085,3.2,7.351,7.351,0,0,1-3.29,2.38A14.832,14.832,0,0,1,553.525,142.35ZM566.86,142V122.855h7.91V142Zm3.955-20.685a5.013,5.013,0,0,1-3.465-1.155,3.828,3.828,0,0,1,0-5.74,5.013,5.013,0,0,1,3.465-1.155,5.221,5.221,0,0,1,3.465,1.085,3.485,3.485,0,0,1,1.3,2.8,3.857,3.857,0,0,1-1.3,2.993A4.966,4.966,0,0,1,570.815,121.315ZM589.05,149.14a22.8,22.8,0,0,1-5.32-.6,13.153,13.153,0,0,1-4.27-1.785l2.66-5.39a8.447,8.447,0,0,0,2.853,1.383,11.657,11.657,0,0,0,3.272.507,4.883,4.883,0,0,0,3.5-1.033,3.963,3.963,0,0,0,1.05-2.957v-1.61l.35-5.95.035-5.95v-2.905h7.525v15.33q0,5.565-3.08,8.26T589.05,149.14Zm-1.54-8.19A9.334,9.334,0,0,1,583,139.813a9.524,9.524,0,0,1-3.395-13A8.893,8.893,0,0,1,583,123.625a9.45,9.45,0,0,1,4.515-1.12,7.674,7.674,0,0,1,4.078.98,5.8,5.8,0,0,1,2.362,3.027,17.926,17.926,0,0,1,0,10.4,5.894,5.894,0,0,1-2.362,3.045A7.568,7.568,0,0,1,587.51,140.95Zm2.1-6.16a3.567,3.567,0,0,0,1.68-.385,2.875,2.875,0,0,0,1.155-1.085,3.33,3.33,0,0,0,0-3.238,2.793,2.793,0,0,0-1.155-1.05,3.984,3.984,0,0,0-3.342,0,2.888,2.888,0,0,0-1.19,1.05,3.034,3.034,0,0,0,1.19,4.322A3.6,3.6,0,0,0,589.61,134.79ZM618.555,122.5a8.8,8.8,0,0,1,3.99.893,6.482,6.482,0,0,1,2.818,2.783,10.18,10.18,0,0,1,1.033,4.9V142h-7.91v-9.555a3.982,3.982,0,0,0-.63-2.538,2.119,2.119,0,0,0-1.715-.753,3.088,3.088,0,0,0-1.487.367,2.574,2.574,0,0,0-1.085,1.208,5.335,5.335,0,0,0-.4,2.275V142h-7.91V122.855h7.525v5.6l-1.505-1.61a7.669,7.669,0,0,1,3.027-3.255A8.448,8.448,0,0,1,618.555,122.5Zm12.32,19.5V122.855h7.91V142Zm3.955-20.685a5.013,5.013,0,0,1-3.465-1.155,3.828,3.828,0,0,1,0-5.74,5.013,5.013,0,0,1,3.465-1.155,5.221,5.221,0,0,1,3.465,1.085,3.485,3.485,0,0,1,1.3,2.8,3.857,3.857,0,0,1-1.3,2.993A4.966,4.966,0,0,1,634.83,121.315Zm21.8,1.19a8.8,8.8,0,0,1,3.99.893,6.482,6.482,0,0,1,2.818,2.783,10.18,10.18,0,0,1,1.033,4.9V142h-7.91v-9.555a3.982,3.982,0,0,0-.63-2.538,2.119,2.119,0,0,0-1.715-.753,3.088,3.088,0,0,0-1.487.367,2.574,2.574,0,0,0-1.085,1.208,5.335,5.335,0,0,0-.4,2.275V142h-7.91V122.855h7.525v5.6l-1.505-1.61a7.669,7.669,0,0,1,3.027-3.255A8.448,8.448,0,0,1,656.635,122.5Zm22.4,26.635a22.8,22.8,0,0,1-5.32-.6,13.153,13.153,0,0,1-4.27-1.785l2.66-5.39a8.447,8.447,0,0,0,2.853,1.383,11.657,11.657,0,0,0,3.272.507,4.883,4.883,0,0,0,3.5-1.033,3.963,3.963,0,0,0,1.05-2.957v-1.61l.35-5.95.035-5.95v-2.905h7.525v15.33q0,5.565-3.08,8.26T679.035,149.14Zm-1.54-8.19a9.334,9.334,0,0,1-4.515-1.137,9.524,9.524,0,0,1-3.395-13,8.893,8.893,0,0,1,3.395-3.185,9.45,9.45,0,0,1,4.515-1.12,7.674,7.674,0,0,1,4.078.98,5.8,5.8,0,0,1,2.362,3.027,17.926,17.926,0,0,1,0,10.4,5.894,5.894,0,0,1-2.362,3.045A7.568,7.568,0,0,1,677.5,140.95Zm2.1-6.16a3.567,3.567,0,0,0,1.68-.385,2.875,2.875,0,0,0,1.155-1.085,3.33,3.33,0,0,0,0-3.238,2.793,2.793,0,0,0-1.155-1.05,3.984,3.984,0,0,0-3.342,0,2.888,2.888,0,0,0-1.19,1.05,3.034,3.034,0,0,0,1.19,4.322A3.6,3.6,0,0,0,679.6,134.79Zm15.12,12.81,2.94-9.835,1.155,4.41A4.764,4.764,0,0,1,695.485,141a4.1,4.1,0,0,1-1.295-3.2,4.228,4.228,0,0,1,1.313-3.273,5.134,5.134,0,0,1,6.615,0,4.228,4.228,0,0,1,1.313,3.273,7.243,7.243,0,0,1-.088,1.12,7.686,7.686,0,0,1-.367,1.348q-.28.787-.91,2.117l-2.45,5.215Zm33.145-5.04a14,14,0,0,1-5.25-.927,8.909,8.909,0,0,1-3.64-2.538,5.563,5.563,0,0,1-1.33-3.64,7.087,7.087,0,0,1,.893-3.588,8.515,8.515,0,0,1,2.765-2.8,23.95,23.95,0,0,1,4.742-2.328,21.2,21.2,0,0,0,2.747-1.225,5.094,5.094,0,0,0,1.417-1.067,1.578,1.578,0,0,0,.42-1,1.2,1.2,0,0,0-.367-.91,1.544,1.544,0,0,0-1.1-.35,1.769,1.769,0,0,0-1.242.4,1.3,1.3,0,0,0-.437,1,1.708,1.708,0,0,0,.193.77,3.772,3.772,0,0,0,.753.927q.56.543,1.575,1.418l12.88,10.955-4.235,4.795-14.84-12.74a12.487,12.487,0,0,1-1.96-1.977,7.889,7.889,0,0,1-1.155-2.013,5.794,5.794,0,0,1,.717-5.478,7.257,7.257,0,0,1,3.08-2.327,11.8,11.8,0,0,1,4.638-.84,11.124,11.124,0,0,1,4.27.752,6.438,6.438,0,0,1,2.835,2.153,5.455,5.455,0,0,1,1.015,3.29,5.607,5.607,0,0,1-.857,3.045,8.2,8.2,0,0,1-2.625,2.485,24.623,24.623,0,0,1-4.463,2.135,12.26,12.26,0,0,0-2.275,1.085,3.991,3.991,0,0,0-1.26,1.173,2.544,2.544,0,0,0-.385,1.383,1.718,1.718,0,0,0,.367,1.05,2.422,2.422,0,0,0,1.05.77,4.384,4.384,0,0,0,1.662.28,6.79,6.79,0,0,0,3.553-1,8.813,8.813,0,0,0,2.87-2.887,12.152,12.152,0,0,0,1.662-4.515l6.335,1.89a16.4,16.4,0,0,1-2.923,6.4,15.144,15.144,0,0,1-5.215,4.393A14.818,14.818,0,0,1,727.86,142.56ZM14.525,196.35a7.641,7.641,0,0,1-4.235-1.05,5.888,5.888,0,0,1-2.327-3.255,18.548,18.548,0,0,1-.717-5.635,17.073,17.073,0,0,1,.77-5.583,6.188,6.188,0,0,1,2.4-3.255,7.354,7.354,0,0,1,4.113-1.067,9.208,9.208,0,0,1,4.62,1.19,8.831,8.831,0,0,1,3.36,3.412,11.787,11.787,0,0,1,0,10.6,8.959,8.959,0,0,1-3.36,3.43A9.1,9.1,0,0,1,14.525,196.35ZM1.75,196V170.03H9.66v9.38l-.35,7-.035,7V196Zm10.885-5.81a3,3,0,0,0,1.575-.42,2.95,2.95,0,0,0,1.12-1.278,4.7,4.7,0,0,0,.42-2.082,4.563,4.563,0,0,0-.42-2.083,2.994,2.994,0,0,0-5.39,0,4.563,4.563,0,0,0-.42,2.083,4.7,4.7,0,0,0,.42,2.082,2.95,2.95,0,0,0,1.12,1.278A3,3,0,0,0,12.635,190.19Zm22.645,6.16a9,9,0,0,1-4.112-.928,6.618,6.618,0,0,1-2.888-2.9,10.824,10.824,0,0,1-1.05-5.092v-10.57h7.91v9.205a4.55,4.55,0,0,0,.665,2.835,2.234,2.234,0,0,0,1.82.8,2.508,2.508,0,0,0,1.313-.367,2.616,2.616,0,0,0,1-1.225,5.572,5.572,0,0,0,.385-2.257v-9h7.91V196H40.705v-5.53l1.5,1.505a6.97,6.97,0,0,1-2.887,3.307A8.027,8.027,0,0,1,35.28,196.35Zm17.5-.35V176.855h7.91V196Zm3.955-20.685a5.013,5.013,0,0,1-3.465-1.155,3.828,3.828,0,0,1,0-5.74,5.013,5.013,0,0,1,3.465-1.155A5.221,5.221,0,0,1,60.2,168.35a3.485,3.485,0,0,1,1.295,2.8,3.857,3.857,0,0,1-1.295,2.993A4.966,4.966,0,0,1,56.735,175.315ZM65.24,196V170.03h7.91V196Zm20.86.35a9.133,9.133,0,0,1-4.6-1.208,8.921,8.921,0,0,1-3.378-3.43,11.787,11.787,0,0,1,0-10.6A8.794,8.794,0,0,1,81.5,177.7a9.238,9.238,0,0,1,4.6-1.19,7.336,7.336,0,0,1,4.13,1.067,6.224,6.224,0,0,1,2.38,3.255,17.073,17.073,0,0,1,.77,5.583,18.548,18.548,0,0,1-.717,5.635,5.92,5.92,0,0,1-2.31,3.255A7.624,7.624,0,0,1,86.1,196.35Zm1.89-6.16a3,3,0,0,0,1.575-.42,2.95,2.95,0,0,0,1.12-1.278,4.7,4.7,0,0,0,.42-2.082,4.563,4.563,0,0,0-.42-2.083,2.994,2.994,0,0,0-5.39,0,4.563,4.563,0,0,0-.42,2.083,4.7,4.7,0,0,0,.42,2.082,2.95,2.95,0,0,0,1.12,1.278A3,3,0,0,0,87.99,190.19ZM91.35,196v-2.59l-.035-7-.35-7v-9.38h7.91V196Zm12.075,0V176.855h7.91V196Zm3.955-20.685a5.013,5.013,0,0,1-3.465-1.155,3.828,3.828,0,0,1,0-5.74,5.013,5.013,0,0,1,3.465-1.155,5.221,5.221,0,0,1,3.465,1.085,3.485,3.485,0,0,1,1.3,2.8,3.857,3.857,0,0,1-1.3,2.993A4.966,4.966,0,0,1,107.38,175.315Zm21.805,1.19a8.8,8.8,0,0,1,3.99.892,6.483,6.483,0,0,1,2.818,2.783,10.18,10.18,0,0,1,1.033,4.9V196h-7.91v-9.555a3.981,3.981,0,0,0-.63-2.538,2.119,2.119,0,0,0-1.715-.753,3.088,3.088,0,0,0-1.488.367,2.574,2.574,0,0,0-1.085,1.208,5.335,5.335,0,0,0-.4,2.275V196h-7.91V176.855h7.525v5.6l-1.5-1.61a7.669,7.669,0,0,1,3.027-3.255A8.448,8.448,0,0,1,129.185,176.505Zm22.4,26.635a22.8,22.8,0,0,1-5.32-.6,13.154,13.154,0,0,1-4.27-1.785l2.66-5.39a8.447,8.447,0,0,0,2.852,1.383,11.657,11.657,0,0,0,3.273.507,4.883,4.883,0,0,0,3.5-1.033,3.963,3.963,0,0,0,1.05-2.957v-1.61l.35-5.95.035-5.95v-2.9h7.525v15.33q0,5.565-3.08,8.26T151.585,203.14Zm-1.54-8.19a9.334,9.334,0,0,1-4.515-1.137,9.524,9.524,0,0,1-3.4-13,8.893,8.893,0,0,1,3.4-3.185,9.45,9.45,0,0,1,4.515-1.12,7.674,7.674,0,0,1,4.077.98,5.8,5.8,0,0,1,2.363,3.027,17.927,17.927,0,0,1,0,10.4,5.894,5.894,0,0,1-2.363,3.045A7.567,7.567,0,0,1,150.045,194.95Zm2.1-6.16a3.567,3.567,0,0,0,1.68-.385,2.876,2.876,0,0,0,1.155-1.085,3.329,3.329,0,0,0,0-3.238,2.793,2.793,0,0,0-1.155-1.05,3.984,3.984,0,0,0-3.342,0,2.888,2.888,0,0,0-1.19,1.05,3.034,3.034,0,0,0,1.19,4.322A3.6,3.6,0,0,0,152.145,188.79Zm35.6,7.56a9.133,9.133,0,0,1-4.6-1.208,8.921,8.921,0,0,1-3.378-3.43,11.787,11.787,0,0,1,0-10.6,8.794,8.794,0,0,1,3.378-3.412,9.238,9.238,0,0,1,4.6-1.19,7.336,7.336,0,0,1,4.13,1.067,6.224,6.224,0,0,1,2.38,3.255,17.073,17.073,0,0,1,.77,5.583,18.548,18.548,0,0,1-.717,5.635,5.92,5.92,0,0,1-2.31,3.255A7.624,7.624,0,0,1,187.74,196.35Zm1.89-6.16a3,3,0,0,0,1.575-.42,2.95,2.95,0,0,0,1.12-1.278,4.7,4.7,0,0,0,.42-2.082,4.563,4.563,0,0,0-.42-2.083,2.994,2.994,0,0,0-5.39,0,4.563,4.563,0,0,0-.42,2.083,4.7,4.7,0,0,0,.42,2.082,2.95,2.95,0,0,0,1.12,1.278A3,3,0,0,0,189.63,190.19Zm3.36,5.81v-2.59l-.035-7-.35-7v-9.38h7.91V196Zm23.66,0v-3.4l-.56-.91v-6.44a2.657,2.657,0,0,0-.857-2.135,4.249,4.249,0,0,0-2.783-.735,9.029,9.029,0,0,0-2.625.4,7.377,7.377,0,0,0-2.275,1.1l-2.52-5.215a13.441,13.441,0,0,1,4.025-1.61,19.7,19.7,0,0,1,4.585-.56q4.935,0,7.648,2.2t2.712,7V196Zm-5.425.35a8.56,8.56,0,0,1-3.92-.805,5.583,5.583,0,0,1-3.185-5.145,5.2,5.2,0,0,1,.945-3.15,5.742,5.742,0,0,1,2.887-1.96,15.406,15.406,0,0,1,4.917-.665h3.99v3.815h-2.73a3.274,3.274,0,0,0-1.838.4,1.374,1.374,0,0,0-.577,1.208,1.394,1.394,0,0,0,.508,1.1,2.047,2.047,0,0,0,1.382.438,2.7,2.7,0,0,0,1.488-.437,2.509,2.509,0,0,0,1-1.382l1.015,2.345a5.009,5.009,0,0,1-1.925,3.185A6.677,6.677,0,0,1,211.225,196.35Zm26.495,0a9.117,9.117,0,0,1-6.16-1.908q-2.205-1.908-2.205-5.863V172.55h7.91v15.96a1.885,1.885,0,0,0,.472,1.365,1.563,1.563,0,0,0,1.173.49,3.092,3.092,0,0,0,1.785-.525l1.89,5.5a6.992,6.992,0,0,1-2.187.77A14.193,14.193,0,0,1,237.72,196.35Zm-10.99-12.67V177.9h14.455v5.775ZM257.215,196v-3.4l-.56-.91v-6.44a2.657,2.657,0,0,0-.858-2.135,4.249,4.249,0,0,0-2.783-.735,9.029,9.029,0,0,0-2.625.4,7.377,7.377,0,0,0-2.275,1.1l-2.52-5.215a13.441,13.441,0,0,1,4.025-1.61,19.7,19.7,0,0,1,4.585-.56q4.935,0,7.647,2.2t2.713,7V196Zm-5.425.35a8.56,8.56,0,0,1-3.92-.805,5.583,5.583,0,0,1-3.185-5.145,5.2,5.2,0,0,1,.945-3.15,5.742,5.742,0,0,1,2.887-1.96,15.406,15.406,0,0,1,4.918-.665h3.99v3.815h-2.73a3.274,3.274,0,0,0-1.838.4,1.374,1.374,0,0,0-.577,1.208,1.394,1.394,0,0,0,.508,1.1,2.047,2.047,0,0,0,1.382.438,2.7,2.7,0,0,0,1.488-.437,2.509,2.509,0,0,0,1-1.382l1.015,2.345a5.008,5.008,0,0,1-1.925,3.185A6.677,6.677,0,0,1,251.79,196.35Zm17.08-7.49v-5.95h10.5v5.95Zm23.625,7.49a9.133,9.133,0,0,1-4.6-1.208,8.921,8.921,0,0,1-3.377-3.43,11.787,11.787,0,0,1,0-10.6,8.794,8.794,0,0,1,3.377-3.412,9.238,9.238,0,0,1,4.6-1.19,7.336,7.336,0,0,1,4.13,1.067,6.224,6.224,0,0,1,2.38,3.255,17.073,17.073,0,0,1,.77,5.583,18.548,18.548,0,0,1-.717,5.635,5.92,5.92,0,0,1-2.31,3.255A7.624,7.624,0,0,1,292.495,196.35Zm1.89-6.16a3,3,0,0,0,1.575-.42,2.95,2.95,0,0,0,1.12-1.278,4.7,4.7,0,0,0,.42-2.082,4.563,4.563,0,0,0-.42-2.083,2.994,2.994,0,0,0-5.39,0,4.563,4.563,0,0,0-.42,2.083,4.7,4.7,0,0,0,.42,2.082,2.95,2.95,0,0,0,1.12,1.278A3,3,0,0,0,294.385,190.19Zm3.36,5.81v-2.59l-.035-7-.35-7v-9.38h7.91V196Zm12.075,0V176.855h7.525v5.775l-1.225-1.645a6.465,6.465,0,0,1,2.8-3.36,9.034,9.034,0,0,1,4.62-1.12v7q-.525-.07-.927-.105t-.823-.035a4.475,4.475,0,0,0-2.922.927,3.924,3.924,0,0,0-1.138,3.2V196Zm17.01,0V176.855h7.91V196Zm3.955-20.685a5.013,5.013,0,0,1-3.465-1.155,3.828,3.828,0,0,1,0-5.74,5.013,5.013,0,0,1,3.465-1.155,5.221,5.221,0,0,1,3.465,1.085,3.485,3.485,0,0,1,1.295,2.8,3.858,3.858,0,0,1-1.295,2.993A4.966,4.966,0,0,1,330.785,175.315ZM344.715,196l-7.7-19.145h8.12l5.845,15.54h-4.1l6.23-15.54h7.49L352.9,196Zm28.21.35a13.574,13.574,0,0,1-6.108-1.3,9.856,9.856,0,0,1-4.042-3.552,9.291,9.291,0,0,1-1.435-5.092,9.415,9.415,0,0,1,1.418-5.145,9.732,9.732,0,0,1,3.885-3.5,12.021,12.021,0,0,1,5.547-1.26,12.208,12.208,0,0,1,5.233,1.12,9.173,9.173,0,0,1,3.85,3.325,9.717,9.717,0,0,1,1.452,5.46q0,.42-.035.927t-.07.928H367.885V184.45H378.42l-2.975,1.015a4.151,4.151,0,0,0-.4-1.908,3.039,3.039,0,0,0-1.1-1.225,3.106,3.106,0,0,0-1.68-.437,3.2,3.2,0,0,0-1.7.438,2.881,2.881,0,0,0-1.1,1.225,4.31,4.31,0,0,0-.385,1.908v1.19a4.235,4.235,0,0,0,.49,2.1,3.112,3.112,0,0,0,1.4,1.313,5.055,5.055,0,0,0,2.205.438,5.842,5.842,0,0,0,2.188-.35,8.423,8.423,0,0,0,1.8-1.05l4.13,4.165a9.082,9.082,0,0,1-3.448,2.292A13.712,13.712,0,0,1,372.925,196.35Zm26.635-19.845a8.8,8.8,0,0,1,3.99.892,6.483,6.483,0,0,1,2.818,2.783,10.18,10.18,0,0,1,1.033,4.9V196h-7.91v-9.555a3.981,3.981,0,0,0-.63-2.538,2.119,2.119,0,0,0-1.715-.753,3.088,3.088,0,0,0-1.488.367,2.574,2.574,0,0,0-1.085,1.208,5.335,5.335,0,0,0-.4,2.275V196h-7.91V176.855h7.525v5.6l-1.505-1.61a7.669,7.669,0,0,1,3.028-3.255A8.448,8.448,0,0,1,399.56,176.505Zm31.36,19.845a22.356,22.356,0,0,1-4.83-.525,13.841,13.841,0,0,1-3.85-1.365l2.17-5.215a11.974,11.974,0,0,0,3.167,1.26,14.344,14.344,0,0,0,3.518.455,5.111,5.111,0,0,0,1.943-.245.744.744,0,0,0,.507-.665q0-.42-.6-.613a8.074,8.074,0,0,0-1.575-.3q-.98-.1-2.152-.262a19.234,19.234,0,0,1-2.363-.473,7.561,7.561,0,0,1-2.17-.945,4.7,4.7,0,0,1-1.575-1.7,5.525,5.525,0,0,1-.6-2.712,5.349,5.349,0,0,1,1.1-3.29,7.549,7.549,0,0,1,3.29-2.363,14.363,14.363,0,0,1,5.408-.892,23.246,23.246,0,0,1,4.2.385,12.345,12.345,0,0,1,3.605,1.19l-2.17,5.215a10.532,10.532,0,0,0-2.887-1.1,12.911,12.911,0,0,0-2.643-.3,5.035,5.035,0,0,0-2.047.28q-.542.28-.543.63,0,.42.6.63a7.161,7.161,0,0,0,1.575.315q.98.1,2.152.262a16.773,16.773,0,0,1,2.345.49,7.982,7.982,0,0,1,2.152.962,4.7,4.7,0,0,1,1.575,1.7,5.525,5.525,0,0,1,.6,2.712,5.33,5.33,0,0,1-1.085,3.2,7.35,7.35,0,0,1-3.29,2.38A14.832,14.832,0,0,1,430.92,196.35Zm23.45,0a12.49,12.49,0,0,1-5.757-1.278,9.931,9.931,0,0,1-3.937-3.518,9.941,9.941,0,0,1,0-10.29,9.8,9.8,0,0,1,3.938-3.5,13.824,13.824,0,0,1,11.532,0,9.653,9.653,0,0,1,3.938,3.5,10.046,10.046,0,0,1,0,10.29,9.776,9.776,0,0,1-3.938,3.518A12.6,12.6,0,0,1,454.37,196.35Zm0-6.16a3,3,0,0,0,1.575-.42,2.95,2.95,0,0,0,1.12-1.278,4.7,4.7,0,0,0,.42-2.082,4.563,4.563,0,0,0-.42-2.083,2.994,2.994,0,0,0-5.39,0,4.563,4.563,0,0,0-.42,2.083,4.7,4.7,0,0,0,.42,2.082,2.95,2.95,0,0,0,1.12,1.278A3,3,0,0,0,454.37,190.19ZM469.035,196V170.03h7.91V196Zm20.44.35a9,9,0,0,1-4.113-.928,6.618,6.618,0,0,1-2.887-2.9,10.824,10.824,0,0,1-1.05-5.092v-10.57h7.91v9.205A4.55,4.55,0,0,0,490,188.9a2.234,2.234,0,0,0,1.82.8,2.508,2.508,0,0,0,1.313-.367,2.616,2.616,0,0,0,1-1.225,5.572,5.572,0,0,0,.385-2.257v-9h7.91V196H494.9v-5.53l1.505,1.505a6.97,6.97,0,0,1-2.888,3.307A8.027,8.027,0,0,1,489.475,196.35Zm26.74,0a9.117,9.117,0,0,1-6.16-1.908q-2.205-1.908-2.2-5.863V172.55h7.91v15.96a1.885,1.885,0,0,0,.473,1.365,1.563,1.563,0,0,0,1.172.49,3.092,3.092,0,0,0,1.785-.525l1.89,5.5a6.991,6.991,0,0,1-2.187.77A14.192,14.192,0,0,1,516.215,196.35Zm-10.99-12.67V177.9H519.68v5.775Zm18.9,12.32V176.855h7.91V196Zm3.955-20.685a5.013,5.013,0,0,1-3.465-1.155,3.828,3.828,0,0,1,0-5.74,5.013,5.013,0,0,1,3.465-1.155,5.221,5.221,0,0,1,3.465,1.085,3.485,3.485,0,0,1,1.3,2.8,3.857,3.857,0,0,1-1.3,2.993A4.966,4.966,0,0,1,528.08,175.315ZM546.7,196.35a12.49,12.49,0,0,1-5.758-1.278,9.931,9.931,0,0,1-3.937-3.518,9.941,9.941,0,0,1,0-10.29,9.8,9.8,0,0,1,3.938-3.5,13.824,13.824,0,0,1,11.533,0,9.654,9.654,0,0,1,3.938,3.5,10.046,10.046,0,0,1,0,10.29,9.776,9.776,0,0,1-3.937,3.518A12.6,12.6,0,0,1,546.7,196.35Zm0-6.16a3,3,0,0,0,1.575-.42,2.95,2.95,0,0,0,1.12-1.278,4.7,4.7,0,0,0,.42-2.082,4.563,4.563,0,0,0-.42-2.083,2.994,2.994,0,0,0-5.39,0,4.563,4.563,0,0,0-.42,2.083,4.7,4.7,0,0,0,.42,2.082,2.95,2.95,0,0,0,1.12,1.278A3,3,0,0,0,546.7,190.19Zm27.965-13.685a8.8,8.8,0,0,1,3.99.892,6.483,6.483,0,0,1,2.818,2.783,10.18,10.18,0,0,1,1.033,4.9V196h-7.91v-9.555a3.982,3.982,0,0,0-.63-2.538,2.119,2.119,0,0,0-1.715-.753,3.088,3.088,0,0,0-1.487.367,2.574,2.574,0,0,0-1.085,1.208,5.335,5.335,0,0,0-.4,2.275V196h-7.91V176.855h7.525v5.6l-1.505-1.61a7.669,7.669,0,0,1,3.027-3.255A8.448,8.448,0,0,1,574.665,176.505Zm19.81,19.845a22.356,22.356,0,0,1-4.83-.525,13.841,13.841,0,0,1-3.85-1.365l2.17-5.215a11.973,11.973,0,0,0,3.168,1.26,14.344,14.344,0,0,0,3.517.455,5.111,5.111,0,0,0,1.943-.245.745.745,0,0,0,.508-.665q0-.42-.595-.613a8.074,8.074,0,0,0-1.575-.3q-.98-.1-2.153-.262a19.234,19.234,0,0,1-2.362-.473,7.561,7.561,0,0,1-2.17-.945,4.7,4.7,0,0,1-1.575-1.7,5.525,5.525,0,0,1-.595-2.712,5.349,5.349,0,0,1,1.1-3.29,7.549,7.549,0,0,1,3.29-2.363,14.363,14.363,0,0,1,5.408-.892,23.246,23.246,0,0,1,4.2.385,12.345,12.345,0,0,1,3.6,1.19l-2.17,5.215a10.532,10.532,0,0,0-2.888-1.1,12.911,12.911,0,0,0-2.643-.3,5.035,5.035,0,0,0-2.047.28q-.542.28-.542.63,0,.42.595.63a7.161,7.161,0,0,0,1.575.315q.98.1,2.152.262a16.772,16.772,0,0,1,2.345.49,7.981,7.981,0,0,1,2.152.962,4.7,4.7,0,0,1,1.575,1.7,5.525,5.525,0,0,1,.6,2.712,5.33,5.33,0,0,1-1.085,3.2,7.351,7.351,0,0,1-3.29,2.38A14.832,14.832,0,0,1,594.475,196.35Z" transform="translate(261.195 303.29)" fill="#ababce"/>
    <path id="Path_316" data-name="Path 316" d="M34.45-2.3A26.456,26.456,0,0,1,27.7-.025,39.269,39.269,0,0,1,19.65.8,31.939,31.939,0,0,1,9.625-.575,13.56,13.56,0,0,1,3.4-4.425,8.52,8.52,0,0,1,1.3-10.1a8.264,8.264,0,0,1,1.425-4.75A9.194,9.194,0,0,1,6.8-18.1a7.64,7.64,0,0,1-3.025-2.875A7.708,7.708,0,0,1,2.75-24.9a8.642,8.642,0,0,1,1.925-5.425,13.112,13.112,0,0,1,5.9-3.975,27.839,27.839,0,0,1,9.775-1.5,38.775,38.775,0,0,1,6.975.625A33.538,33.538,0,0,1,33.45-33.5l-3.2,8.6a25.036,25.036,0,0,0-9.45-1.9,11.629,11.629,0,0,0-4.625.7,2.165,2.165,0,0,0-1.525,1.95,1.861,1.861,0,0,0,.75,1.6,4.333,4.333,0,0,0,2.5.55H28.15v8.7H17.1a5.491,5.491,0,0,0-2.925.625A1.99,1.99,0,0,0,13.2-10.9q0,2.7,6.9,2.7a23.792,23.792,0,0,0,5.625-.725A23.31,23.31,0,0,0,31-10.85ZM38,10.2a15.159,15.159,0,0,1-6.95-1.35L33.75,1a5.275,5.275,0,0,0,2.55.65A2.112,2.112,0,0,0,38,.875,3.64,3.64,0,0,0,38.65-1.5V-27.35h11.3V-1.4a11.35,11.35,0,0,1-3.175,8.475Q43.6,10.2,38,10.2Zm6.3-39.75a7.252,7.252,0,0,1-4.925-1.625A5.22,5.22,0,0,1,37.5-35.3a5.22,5.22,0,0,1,1.875-4.125A7.252,7.252,0,0,1,44.3-41.05a7.459,7.459,0,0,1,4.95,1.55,4.978,4.978,0,0,1,1.85,4,5.511,5.511,0,0,1-1.85,4.275A7.1,7.1,0,0,1,44.3-29.55Zm11.65,2.2h11.3V0H55.95Zm5.65-2.2a7.252,7.252,0,0,1-4.925-1.625A5.22,5.22,0,0,1,54.8-35.3a5.22,5.22,0,0,1,1.875-4.125A7.252,7.252,0,0,1,61.6-41.05a7.459,7.459,0,0,1,4.95,1.55,4.978,4.978,0,0,1,1.85,4,5.511,5.511,0,0,1-1.85,4.275A7.1,7.1,0,0,1,61.6-29.55Zm47.85,1.7a10.566,10.566,0,0,1,7.925,3.05q2.975,3.05,2.975,9.2V0h-11.3V-13.65q0-4.7-3.05-4.7a3.154,3.154,0,0,0-2.575,1.2,6,6,0,0,0-.975,3.8V0H91.15V-13.65q0-4.7-3.05-4.7a3.154,3.154,0,0,0-2.575,1.2,6,6,0,0,0-.975,3.8V0H73.25V-27.35H84v2.55a10.5,10.5,0,0,1,7.75-3.05,11.584,11.584,0,0,1,4.95,1.025,8.67,8.67,0,0,1,3.6,3.125,11.117,11.117,0,0,1,4-3.075A12.232,12.232,0,0,1,109.45-27.85ZM139.35-8.4l-1.8,1.95V0h-11.3V-37.1h11.3v17.7l7.85-7.95h13.35L147.45-15.5,159.65,0H146Zm52.3-18.95V0H180.9V-2.25Q178.45.5,173.4.5a13.142,13.142,0,0,1-6.625-1.725,12.443,12.443,0,0,1-4.8-4.975,15.4,15.4,0,0,1-1.775-7.5,15.253,15.253,0,0,1,1.775-7.475,12.483,12.483,0,0,1,4.8-4.95A13.142,13.142,0,0,1,173.4-27.85q4.55,0,6.95,2.35v-1.85ZM176.1-8.3a4.065,4.065,0,0,0,3.2-1.425,5.829,5.829,0,0,0,1.25-3.975,5.731,5.731,0,0,0-1.25-3.95,4.1,4.1,0,0,0-3.2-1.4,4.1,4.1,0,0,0-3.2,1.4,5.731,5.731,0,0,0-1.25,3.95,5.829,5.829,0,0,0,1.25,3.975A4.065,4.065,0,0,0,176.1-8.3Zm32.3-16.1q3-3.45,8.85-3.45v10a17.139,17.139,0,0,0-2.5-.2q-5.8,0-5.8,5.9V0h-11.3V-27.35H208.4Zm42.8-2.95V0H240.45V-2.25Q238,.5,232.95.5a13.142,13.142,0,0,1-6.625-1.725,12.443,12.443,0,0,1-4.8-4.975,15.4,15.4,0,0,1-1.775-7.5,15.253,15.253,0,0,1,1.775-7.475,12.483,12.483,0,0,1,4.8-4.95,13.142,13.142,0,0,1,6.625-1.725q4.55,0,6.95,2.35v-1.85ZM235.65-8.3a4.065,4.065,0,0,0,3.2-1.425A5.829,5.829,0,0,0,240.1-13.7a5.731,5.731,0,0,0-1.25-3.95,4.1,4.1,0,0,0-3.2-1.4,4.1,4.1,0,0,0-3.2,1.4,5.731,5.731,0,0,0-1.25,3.95,5.829,5.829,0,0,0,1.25,3.975A4.065,4.065,0,0,0,235.65-8.3Zm36,8.8a17.926,17.926,0,0,1-8.175-1.825,14.045,14.045,0,0,1-5.675-5.05,13.362,13.362,0,0,1-2.05-7.325,13.362,13.362,0,0,1,2.05-7.325,13.87,13.87,0,0,1,5.675-5.025,18.132,18.132,0,0,1,8.175-1.8,18.247,18.247,0,0,1,8.225,1.8,13.7,13.7,0,0,1,5.65,5.025A13.485,13.485,0,0,1,287.55-13.7a13.485,13.485,0,0,1-2.025,7.325,13.867,13.867,0,0,1-5.65,5.05A18.039,18.039,0,0,1,271.65.5Zm0-8.8a4.065,4.065,0,0,0,3.2-1.425A5.829,5.829,0,0,0,276.1-13.7a5.731,5.731,0,0,0-1.25-3.95,4.1,4.1,0,0,0-3.2-1.4,4.1,4.1,0,0,0-3.2,1.4,5.731,5.731,0,0,0-1.25,3.95,5.829,5.829,0,0,0,1.25,3.975A4.065,4.065,0,0,0,271.65-8.3ZM311.1-27.85a11.034,11.034,0,0,1,8.125,3.05q3.075,3.05,3.075,9.2V0H311V-13.65q0-4.7-3.35-4.7a3.914,3.914,0,0,0-3.075,1.325A6.184,6.184,0,0,0,303.4-12.85V0H292.1V-27.35h10.75v2.7a10.428,10.428,0,0,1,3.7-2.4A12.676,12.676,0,0,1,311.1-27.85Zm47,.5v21.9q0,7.8-4.325,11.725T341.55,10.2a31.372,31.372,0,0,1-7.575-.875A19.3,19.3,0,0,1,327.95,6.8l3.8-7.7a13.127,13.127,0,0,0,4.025,1.95,15.652,15.652,0,0,0,4.625.75q3.35,0,4.875-1.45A5.592,5.592,0,0,0,346.8-3.9v-.2a10.505,10.505,0,0,1-7.2,2.6,11.238,11.238,0,0,1-8.35-3.175Q328.1-7.85,328.1-14.25v-13.1h11.3V-16.2a6.811,6.811,0,0,0,.9,4,3.105,3.105,0,0,0,2.65,1.2,3.431,3.431,0,0,0,2.75-1.325,6.483,6.483,0,0,0,1.1-4.175V-27.35Zm21.45,19.5a8.836,8.836,0,0,0,3.025-.45,10.611,10.611,0,0,0,2.675-1.55l5.9,5.95Q387.05.5,379.2.5a19.655,19.655,0,0,1-8.7-1.825A13.817,13.817,0,0,1,364.7-6.4a13.4,13.4,0,0,1-2.05-7.3,13.362,13.362,0,0,1,2.05-7.325,13.942,13.942,0,0,1,5.625-5.025,17.593,17.593,0,0,1,8.025-1.8,17.052,17.052,0,0,1,7.45,1.625,12.758,12.758,0,0,1,5.4,4.8,13.918,13.918,0,0,1,2,7.575l-18.7,3.6Q375.75-7.85,379.55-7.85Zm-1.15-12.3A4.452,4.452,0,0,0,375.225-19a5.288,5.288,0,0,0-1.475,3.4l8.75-1.7a4.172,4.172,0,0,0-1.525-2.075A4.285,4.285,0,0,0,378.4-20.15Zm24.45,7.75a6.632,6.632,0,0,1,4.75,1.75A6.1,6.1,0,0,1,409.45-6a9.963,9.963,0,0,1-.35,2.6A26.822,26.822,0,0,1,407.5.55L404,8h-7l2.5-8.45a5.527,5.527,0,0,1-2.4-2.175A6.466,6.466,0,0,1,396.25-6a6.1,6.1,0,0,1,1.85-4.65A6.632,6.632,0,0,1,402.85-12.4ZM448.4.8a21.266,21.266,0,0,1-10-2.325,17.382,17.382,0,0,1-6.975-6.5A17.946,17.946,0,0,1,428.9-17.5a17.946,17.946,0,0,1,2.525-9.475,17.382,17.382,0,0,1,6.975-6.5,21.266,21.266,0,0,1,10-2.325,21.953,21.953,0,0,1,9.1,1.8,16.891,16.891,0,0,1,6.6,5.2l-7.45,6.65q-3.25-4.1-7.65-4.1a7.814,7.814,0,0,0-5.95,2.375A8.889,8.889,0,0,0,440.8-17.5a8.889,8.889,0,0,0,2.25,6.375A7.814,7.814,0,0,0,449-8.75q4.4,0,7.65-4.1L464.1-6.2A16.891,16.891,0,0,1,457.5-1,21.953,21.953,0,0,1,448.4.8Zm38.75-28.65a11.034,11.034,0,0,1,8.125,3.05q3.075,3.05,3.075,9.2V0h-11.3V-13.65q0-4.7-3.35-4.7a3.914,3.914,0,0,0-3.075,1.325,6.184,6.184,0,0,0-1.175,4.175V0h-11.3V-37.1h11.3v11.95A11.425,11.425,0,0,1,487.15-27.85Zm47,.5V0H523.4V-2.6a9.688,9.688,0,0,1-3.5,2.325A11.658,11.658,0,0,1,515.65.5a11.238,11.238,0,0,1-8.35-3.175q-3.15-3.175-3.15-9.575v-15.1h11.3V-14.2a6.81,6.81,0,0,0,.9,4A3.105,3.105,0,0,0,519-9a3.431,3.431,0,0,0,2.75-1.325,6.483,6.483,0,0,0,1.1-4.175V-27.35ZM553.25-8.4l-1.8,1.95V0h-11.3V-37.1h11.3v17.7l7.85-7.95h13.35L561.35-15.5,573.55,0H559.9ZM622.2-27.35v15.1q0,6.1-3.7,9.425T608.15.5a16.423,16.423,0,0,1-5.05-.725,9.354,9.354,0,0,1-3.9-2.425,9.793,9.793,0,0,1-3.9,2.425A16.123,16.123,0,0,1,590.25.5q-6.7,0-10.375-3.3T576.2-12.25v-15.1h11.3V-13q0,4.5,3,4.5,3.05,0,3.05-4.5V-27.35h11.3V-13q0,4.5,3.05,4.5a2.571,2.571,0,0,0,2.275-1.05A6.251,6.251,0,0,0,610.9-13V-27.35Zm35.8,0V0H647.25V-2.6a9.688,9.688,0,0,1-3.5,2.325A11.658,11.658,0,0,1,639.5.5a11.238,11.238,0,0,1-8.35-3.175Q628-5.85,628-12.25v-15.1h11.3V-14.2a6.811,6.811,0,0,0,.9,4A3.105,3.105,0,0,0,642.85-9a3.431,3.431,0,0,0,2.75-1.325,6.483,6.483,0,0,0,1.1-4.175V-27.35Zm21.45,19.5a8.836,8.836,0,0,0,3.025-.45,10.611,10.611,0,0,0,2.675-1.55l5.9,5.95Q686.95.5,679.1.5a19.655,19.655,0,0,1-8.7-1.825A13.817,13.817,0,0,1,664.6-6.4a13.4,13.4,0,0,1-2.05-7.3,13.362,13.362,0,0,1,2.05-7.325,13.943,13.943,0,0,1,5.625-5.025,17.593,17.593,0,0,1,8.025-1.8,17.051,17.051,0,0,1,7.45,1.625,12.757,12.757,0,0,1,5.4,4.8,13.918,13.918,0,0,1,2,7.575l-18.7,3.6Q675.65-7.85,679.45-7.85Zm-1.15-12.3A4.452,4.452,0,0,0,675.125-19a5.288,5.288,0,0,0-1.475,3.4l8.75-1.7a4.172,4.172,0,0,0-1.525-2.075A4.285,4.285,0,0,0,678.3-20.15Zm55.55-7.7a10.566,10.566,0,0,1,7.925,3.05q2.975,3.05,2.975,9.2V0h-11.3V-13.65q0-4.7-3.05-4.7a3.154,3.154,0,0,0-2.575,1.2,6,6,0,0,0-.975,3.8V0h-11.3V-13.65q0-4.7-3.05-4.7a3.154,3.154,0,0,0-2.575,1.2,6,6,0,0,0-.975,3.8V0h-11.3V-27.35H708.4v2.55a10.5,10.5,0,0,1,7.75-3.05,11.584,11.584,0,0,1,4.95,1.025,8.669,8.669,0,0,1,3.6,3.125,11.118,11.118,0,0,1,4-3.075A12.232,12.232,0,0,1,733.85-27.85Zm32.75,20a8.836,8.836,0,0,0,3.025-.45A10.611,10.611,0,0,0,772.3-9.85l5.9,5.95Q774.1.5,766.25.5a19.655,19.655,0,0,1-8.7-1.825,13.817,13.817,0,0,1-5.8-5.075,13.4,13.4,0,0,1-2.05-7.3,13.362,13.362,0,0,1,2.05-7.325,13.943,13.943,0,0,1,5.625-5.025,17.593,17.593,0,0,1,8.025-1.8,17.051,17.051,0,0,1,7.45,1.625,12.757,12.757,0,0,1,5.4,4.8,13.918,13.918,0,0,1,2,7.575l-18.7,3.6Q762.8-7.85,766.6-7.85Zm-1.15-12.3A4.452,4.452,0,0,0,762.275-19a5.288,5.288,0,0,0-1.475,3.4l8.75-1.7a4.172,4.172,0,0,0-1.525-2.075A4.285,4.285,0,0,0,765.45-20.15ZM797.9-8.4l-1.8,1.95V0H784.8V-37.1h11.3v17.7l7.85-7.95H817.3L806-15.5,818.2,0H804.55Zm52.3-18.95V0H839.45V-2.25Q837,.5,831.95.5a13.142,13.142,0,0,1-6.625-1.725,12.443,12.443,0,0,1-4.8-4.975,15.4,15.4,0,0,1-1.775-7.5,15.253,15.253,0,0,1,1.775-7.475,12.483,12.483,0,0,1,4.8-4.95,13.142,13.142,0,0,1,6.625-1.725q4.55,0,6.95,2.35v-1.85ZM834.65-8.3a4.065,4.065,0,0,0,3.2-1.425A5.829,5.829,0,0,0,839.1-13.7a5.731,5.731,0,0,0-1.25-3.95,4.1,4.1,0,0,0-3.2-1.4,4.1,4.1,0,0,0-3.2,1.4,5.731,5.731,0,0,0-1.25,3.95,5.829,5.829,0,0,0,1.25,3.975A4.065,4.065,0,0,0,834.65-8.3Z" transform="translate(259.23 273.62)" fill="#e5f0ff"/>
    <path id="Path_317" data-name="Path 317" d="M26.145-24.5V0h-8.26V-9.03h-7.63V0H2V-24.5h8.26v8.68h7.63V-24.5ZM42.455-5.5a6.185,6.185,0,0,0,2.118-.315A7.428,7.428,0,0,0,46.445-6.9l4.13,4.165Q47.7.35,42.21.35A13.759,13.759,0,0,1,36.12-.928,9.672,9.672,0,0,1,32.06-4.48a9.378,9.378,0,0,1-1.435-5.11,9.353,9.353,0,0,1,1.435-5.127A9.76,9.76,0,0,1,36-18.235a12.315,12.315,0,0,1,5.618-1.26,11.936,11.936,0,0,1,5.215,1.138A8.93,8.93,0,0,1,50.61-15a9.743,9.743,0,0,1,1.4,5.3L38.92-7.175Q39.795-5.5,42.455-5.5Zm-.805-8.61a3.116,3.116,0,0,0-2.223.8A3.7,3.7,0,0,0,38.4-10.92l6.125-1.19a2.92,2.92,0,0,0-1.068-1.453A3,3,0,0,0,41.65-14.105ZM64.26.35a8.5,8.5,0,0,1-5.9-1.908A7.037,7.037,0,0,1,56.245-7.07v-18.9h7.91V-7.49a1.917,1.917,0,0,0,.455,1.383,1.714,1.714,0,0,0,1.295.472,3.113,3.113,0,0,0,.787-.105,2.694,2.694,0,0,0,.647-.245L67.655-.14A12.068,12.068,0,0,1,64.26.35Zm15.26,0a8.5,8.5,0,0,1-5.9-1.908A7.037,7.037,0,0,1,71.5-7.07v-18.9h7.91V-7.49a1.918,1.918,0,0,0,.455,1.383,1.714,1.714,0,0,0,1.295.472,3.113,3.113,0,0,0,.788-.105,2.694,2.694,0,0,0,.647-.245L82.915-.14A12.068,12.068,0,0,1,79.52.35Zm17.01,0A12.548,12.548,0,0,1,90.807-.928a9.831,9.831,0,0,1-3.973-3.535A9.353,9.353,0,0,1,85.4-9.59a9.353,9.353,0,0,1,1.435-5.127,9.709,9.709,0,0,1,3.973-3.517A12.693,12.693,0,0,1,96.53-19.5a12.773,12.773,0,0,1,5.757,1.26,9.587,9.587,0,0,1,3.955,3.517A9.44,9.44,0,0,1,107.66-9.59a9.44,9.44,0,0,1-1.418,5.128,9.707,9.707,0,0,1-3.955,3.535A12.627,12.627,0,0,1,96.53.35Zm0-6.16a2.846,2.846,0,0,0,2.24-1,4.08,4.08,0,0,0,.875-2.783,4.012,4.012,0,0,0-.875-2.765,2.868,2.868,0,0,0-2.24-.98,2.868,2.868,0,0,0-2.24.98,4.012,4.012,0,0,0-.875,2.765,4.08,4.08,0,0,0,.875,2.783A2.846,2.846,0,0,0,96.53-5.81Zm18.935-2.87a4.643,4.643,0,0,1,3.325,1.225A4.27,4.27,0,0,1,120.085-4.2a6.974,6.974,0,0,1-.245,1.82A18.776,18.776,0,0,1,118.72.385L116.27,5.6h-4.9l1.75-5.915a3.869,3.869,0,0,1-1.68-1.523,4.526,4.526,0,0,1-.6-2.363,4.27,4.27,0,0,1,1.3-3.255A4.643,4.643,0,0,1,115.465-8.68Zm32.48-9.59V-6.23h3.675V0H136.01V-6.23h3.675V-18.27H136.01V-24.5h15.61v6.23Zm7.77-6.23h6.65L161.84-14h-5.6Zm36.61,5.005a7.4,7.4,0,0,1,5.548,2.135q2.083,2.135,2.083,6.44V0h-7.91V-9.555q0-3.29-2.135-3.29a2.208,2.208,0,0,0-1.8.84,4.2,4.2,0,0,0-.682,2.66V0h-7.91V-9.555q0-3.29-2.135-3.29a2.208,2.208,0,0,0-1.8.84,4.2,4.2,0,0,0-.682,2.66V0h-7.91V-19.145h7.525v1.785a7.35,7.35,0,0,1,5.425-2.135,8.109,8.109,0,0,1,3.465.717,6.069,6.069,0,0,1,2.52,2.188,7.782,7.782,0,0,1,2.8-2.153A8.562,8.562,0,0,1,192.325-19.5Z" transform="translate(258.535 201.97)" fill="#ff4500"/>
  </g>
</svg>
