<svg xmlns="http://www.w3.org/2000/svg" width="50" height="50" viewBox="0 0 50 50">
  <path id="favicon" d="M2582-25a25.029,25.029,0,0,1,25-25,25.03,25.03,0,0,1,25,25,25.027,25.027,0,0,1-25,25,25.027,25.027,0,0,1-25-25Zm14.476,20.059A22.5,22.5,0,0,0,2607-2.344a22.524,22.524,0,0,0,10.5-2.583c.328-.17.652-.35.967-.537a5.122,5.122,0,0,0,2.7-1.237,4.715,4.715,0,0,0,1.094-1.567c.784-1.739.831-4.054.883-6.468.068-3.453.14-7.019,2.506-9.269l.021-.017a7.275,7.275,0,0,1,1.386-.976,7.476,7.476,0,0,1-1.386-.98l-.025-.022c-2.361-2.258-2.433-5.825-2.5-9.272-.052-2.429-.1-4.757-.9-6.478a4.633,4.633,0,0,0-1.078-1.51,5.139,5.139,0,0,0-2.673-1.26c-.324-.2-.66-.38-1-.554a22.471,22.471,0,0,0-10.5-2.582,22.486,22.486,0,0,0-10.52,2.6.524.524,0,0,0-.094.052,5.662,5.662,0,0,0-3.9,1.438,5.587,5.587,0,0,0-1.529,2.588,22.348,22.348,0,0,0-.571,5.677c-.068,3.374-.141,6.863-2.386,9l-.013.008a6.889,6.889,0,0,1-2.1,1.3,6.785,6.785,0,0,1,2.1,1.288l.007.007c2.251,2.131,2.324,5.621,2.391,9a22.627,22.627,0,0,0,.567,5.684,5.741,5.741,0,0,0,1.533,2.633,5.62,5.62,0,0,0,3.9,1.4c.033.017.063.03.093.047Zm30.469-17.847c-1.835,1.76-1.9,4.829-1.969,8.08-.024,1.248-.05,2.509-.186,3.72a22.524,22.524,0,0,0,4.845-13.092,5.221,5.221,0,0,0-2.685,1.294ZM2584.35-25.5a5.6,5.6,0,0,0,2.992-1.414c1.986-1.9,2.056-5.208,2.122-8.413a33.35,33.35,0,0,1,.274-4.333,22.541,22.541,0,0,0-5.388,14.16ZM2604.4-8.454a6.556,6.556,0,0,1-4.044-1.352c-1.76-1.436-1.9-3.5-2.047-5.68a12.631,12.631,0,0,0-1.594-6.232,9.035,9.035,0,0,0-1.87-2.139,1.528,1.528,0,0,1-.95.357,1.162,1.162,0,0,1-.156-.007,1.481,1.481,0,0,1-1.19-.925l-.052-.123.086-.1q.21-.249.413-.5l.261-.34a10.7,10.7,0,0,0,2.561-6.849,16.733,16.733,0,0,0-.384-2.714,9.756,9.756,0,0,1-.284-3.047,4.639,4.639,0,0,1,.225-.954,4.488,4.488,0,0,1,1.441-2.084c0-.01.012-.013.017-.017a5.6,5.6,0,0,1,1.167-.809,17.481,17.481,0,0,1,2.426-1.108c.14-.052.286-.1.435-.153l.345-.116c.112-.034.222-.069.337-.1.486-.14.976-.259,1.474-.365.256-.051.532-.1.828-.15.143-.02.3-.046.455-.067s.32-.04.482-.059.331-.035.5-.047c.337-.03.682-.052,1.045-.064.2,0,.392-.01.592-.01a19.035,19.035,0,0,1,8.9,2.191l.843.469a4.331,4.331,0,0,1,2.267,1.07,3.916,3.916,0,0,1,.917,1.279,14.5,14.5,0,0,1,.758,5.492c.059,2.923.121,5.95,2.122,7.862l.022.017a6.2,6.2,0,0,0,1.176.832h-1.682a5.425,5.425,0,0,1-1.063-.751l-.015-.017c-1.81-1.727-1.867-4.453-1.919-7.091a.544.544,0,0,1-.529.416.544.544,0,0,1-.544-.544.544.544,0,0,1,.159-.385.544.544,0,0,1,.385-.16.545.545,0,0,1,.524.4,12.3,12.3,0,0,0-.685-4.7,3.519,3.519,0,0,0-.827-1.156,3.948,3.948,0,0,0-2.045-.967l-.768-.427a17.241,17.241,0,0,0-8.037-1.976,14.676,14.676,0,0,0-4.584.614c-1.547.482-1.512.788-3.473,1.377a6.157,6.157,0,0,0-2.49,1.048,3.773,3.773,0,0,0-.64.681,3.921,3.921,0,0,0-.118.588,9.523,9.523,0,0,0,.281,2.916,17.277,17.277,0,0,1,.392,2.778,11.123,11.123,0,0,1-2.617,7.082h0a10.475,10.475,0,0,1,3.452,3.328,12.962,12.962,0,0,1,1.652,6.431c.151,2.177.279,4.061,1.893,5.377a6.01,6.01,0,0,0,3.789,1.257,8.064,8.064,0,0,0,5.313-2.2c4.705-3.78,5.034-10.934,5.021-13.039h.426c.014,2.147-.328,9.47-5.178,13.372a8.62,8.62,0,0,1-5.447,2.292C2604.5-8.451,2604.45-8.451,2604.4-8.454ZM2593-24.483a1.052,1.052,0,0,0,.788.554,1.076,1.076,0,0,0,.725-.2,11.008,11.008,0,0,0-1.147-.8C2593.25-24.784,2593.12-24.631,2593-24.483Zm.389-.477-.019.023.019-.022c.061-.081.125-.161.186-.241-.065.081-.135.159-.2.24Zm20.922-1.877a.6.6,0,0,1,.6-.6.6.6,0,0,1,.6.6.6.6,0,0,1-.6.6.6.6,0,0,1-.425-.175.6.6,0,0,1-.176-.425Zm1.823-3.427a.517.517,0,0,1,.517-.517.517.517,0,0,1,.366.151.517.517,0,0,1,.152.366.517.517,0,0,1-.152.366.517.517,0,0,1-.366.151.517.517,0,0,1-.368-.15.518.518,0,0,1-.153-.367Zm4.978-4.951a.762.762,0,0,1,.761-.761.761.761,0,0,1,.76.761.762.762,0,0,1-.222.539.761.761,0,0,1-.538.223.762.762,0,0,1-.763-.762Z" transform="translate(-2582 50)" fill="#a1b6e6"/>
</svg>
