<svg viewBox="0 0 537.82 647.09"><defs><style>.cls-1{fill:url(#linear-gradient);}</style><linearGradient id="linear-gradient" x1="-11.43" y1="323.54" x2="554.73" y2="323.54" gradientUnits="userSpaceOnUse"><stop offset="0" stop-color="#00122a"/><stop offset="1" stop-color="#2581c4" stop-opacity="0"/></linearGradient></defs><g id="Layer_2" data-name="Layer 2"><g id="logo-n"><path class="cls-1" d="M38.23,625.16A566.37,566.37,0,0,1,4.88,496.09a549.25,549.25,0,0,1-4.88-67l0-8.43c0-2.81,0-5.63.1-8.44.21-5.62.3-11.25.71-16.87l.52-8.43c.19-2.81.49-5.61.73-8.42s.49-5.62.78-8.43l1-8.4A464.11,464.11,0,0,1,40,231.08,478.58,478.58,0,0,1,71.8,171c5.93-9.65,12.24-19.07,18.82-28.29s13.4-18.25,20.53-27.06,14.51-17.4,22.19-25.74S149,73.46,157.26,65.65C173.83,50.08,191.51,35.57,211,23.09A199.76,199.76,0,0,1,242.29,6.64c1.42-.57,2.82-1.14,4.28-1.65s2.91-1,4.4-1.49,3-.9,4.54-1.33,3.11-.8,4.76-1.07A56.29,56.29,0,0,1,270.53,0a38.27,38.27,0,0,1,11.64,1.54,24.55,24.55,0,0,1,3.08,1.14,20.87,20.87,0,0,1,3.06,1.54l1.49.91c.48.36,1,.72,1.43,1.1a18.48,18.48,0,0,1,2.67,2.42,26.25,26.25,0,0,1,6.48,11.88,12.71,12.71,0,0,1,.33,1.47l.27,1.45c.08.48.17,1,.24,1.44l.11,1.37c.07.9.18,1.85.18,2.71v2.59c0,.88-.08,1.68-.13,2.51s-.1,1.65-.19,2.45c-.22,1.56-.37,3.18-.66,4.68a143.25,143.25,0,0,1-4.25,17.29c-1.68,5.53-3.54,10.88-5.46,16.17-3.85,10.58-8,20.9-12.07,31.19s-8.22,20.52-12.2,30.79-7.8,20.59-11.45,31-7.15,20.8-10.27,31.33A556.18,556.18,0,0,0,229.42,263q-2.86,16.25-4.51,32.69c-.57,5.47-.88,11-1.2,16.46l-.33,8.25q-.09,4.13-.1,8.25a333.13,333.13,0,0,0,26,128.38,358,358,0,0,0,31,57.87,372.33,372.33,0,0,0,40.64,51.36,303.49,303.49,0,0,0,23.65,22.45,202.14,202.14,0,0,0,26.05,19,108.36,108.36,0,0,0,14,7.12,45.4,45.4,0,0,0,14,3.65,14.76,14.76,0,0,0,5.78-.66,6.72,6.72,0,0,0,3.51-2.58,13.21,13.21,0,0,0,2-5.13,37.16,37.16,0,0,0,.68-7,108.53,108.53,0,0,0-1.14-15.52c-.71-5.29-1.6-10.64-2.57-16-1.95-10.74-4.2-21.55-6.38-32.4s-4.36-21.75-6.29-32.71-3.72-22-5.24-33a616.71,616.71,0,0,1-5.88-66.84,557,557,0,0,1,1.75-67.24,499.88,499.88,0,0,1,10.24-66.55,592.48,592.48,0,0,1,18.47-64.61A619.23,619.23,0,0,1,438.93,146a586,586,0,0,1,32-59,305.91,305.91,0,0,1,19.35-27.9c1.81-2.26,3.68-4.5,5.83-6.74a35.76,35.76,0,0,1,3.77-3.48c.42-.31.84-.63,1.42-1a10.7,10.7,0,0,1,2.47-1.16,7.88,7.88,0,0,1,2.87-.37,7.48,7.48,0,0,1,4.67,2,8.05,8.05,0,0,1,1.86,2.74,8.75,8.75,0,0,1,.52,1.76,12.15,12.15,0,0,1,.22,2.14c0,.31,0,.59,0,.82l0,.76-.12,1.34-.15,1.24c-.22,1.6-.51,3.06-.81,4.52-.61,2.89-1.31,5.65-2,8.4-3,10.92-6.35,21.49-9.82,32.06s-7.08,21-10.74,31.49l-9.9-6.26c4.52-4.33,9.14-8.59,14-12.69,2.42-2,4.91-4,7.5-6a93,93,0,0,1,8.19-5.53A36.65,36.65,0,0,1,520,100.79a15,15,0,0,1,7.38,0,11.2,11.2,0,0,1,4.12,2.19,12.13,12.13,0,0,1,1.65,1.71,14.27,14.27,0,0,1,1.15,1.87,16.69,16.69,0,0,1,1.56,6.77,32.7,32.7,0,0,1-.31,5.54,73.75,73.75,0,0,1-2.09,9.78c-1.72,6.22-3.81,12.13-6,18s-4.43,11.63-6.72,17.38c-4.58,11.5-9.23,22.91-13.73,34.36-9,22.89-17.45,46-24.3,69.47-3.43,11.75-6.46,23.61-8.93,35.57-1.23,6-2.37,12-3.21,18-.44,3-.95,6-1.34,9.05l-1,9.1a360.69,360.69,0,0,0-.13,73.24,445.15,445.15,0,0,0,13.29,72.3,577.12,577.12,0,0,0,24.15,69.66l7.33,17c2.59,5.59,5.31,11.12,8,16.68l4,8.33,4.32,8.17,8.63,16.36-1,.56L528,605.58l-4.42-8.14-4.11-8.3c-2.75-5.53-5.56-11-8.24-16.59l-7.63-16.89a587.06,587.06,0,0,1-25.38-69.61,449.34,449.34,0,0,1-14.75-72.7,366.06,366.06,0,0,1-1.22-74.3l.87-9.28c.33-3.09.79-6.16,1.18-9.24.74-6.18,1.77-12.31,2.89-18.42,2.28-12.21,5.11-24.32,8.35-36.3,6.46-24,14.55-47.44,23.07-70.67,4.26-11.62,8.67-23.16,13-34.69,2.15-5.77,4.26-11.54,6.25-17.3s3.86-11.55,5.3-17.27a65.51,65.51,0,0,0,1.6-8.36,22.82,22.82,0,0,0,.14-3.71,6.07,6.07,0,0,0-.48-2.21c0-.08-.07,0-.06-.1s0,0,0,.07.08.08,0,.06a5.27,5.27,0,0,0-1.76.24,26.76,26.76,0,0,0-6.69,3.25,110.28,110.28,0,0,0-13.76,10.77c-4.47,4-8.79,8.22-13,12.59l-19.38,20.09,8.32-27.08c3.24-10.54,6.5-21.07,9.48-31.65s5.87-21.2,8.15-31.67c.55-2.6,1.05-5.2,1.44-7.67.18-1.22.34-2.44.42-3.48l0-.73v-.6l0-.17c0-.08,0-.1,0-.08a1.54,1.54,0,0,0,0,.59,6.51,6.51,0,0,0,.4,1.35,8.3,8.3,0,0,0,2,2.92,9.15,9.15,0,0,0,5.65,2.45,8.6,8.6,0,0,0,2.95-.33,8.31,8.31,0,0,0,1.35-.55c.13-.07.08,0,0,.05-.34.34-1.11,1.14-1.81,2-1.46,1.72-3,3.75-4.48,5.84-3,4.22-5.82,8.71-8.57,13.28s-5.44,9.24-8,14a541.66,541.66,0,0,0-27.1,58.84A641.2,641.2,0,0,0,439.47,217q-2.16,7.74-4.12,15.53c-1.32,5.18-2.6,10.37-3.79,15.57s-2.3,10.41-3.34,15.63-2.06,10.42-3,15.64-1.74,10.46-2.49,15.69-1.49,10.45-2.1,15.68c-.32,2.62-.6,5.23-.85,7.86s-.53,5.24-.73,7.87-.49,5.24-.68,7.87-.4,5.25-.55,7.88c-2.65,42.07-.5,84.31,4.91,126.67q2,15.9,4.57,31.87c1.72,10.66,3.45,21.38,5.35,32.21.95,5.42,1.89,10.88,2.78,16.4s1.8,11.11,2.64,16.83,1.61,11.56,2.15,17.72a141.06,141.06,0,0,1,.55,20.12A66.81,66.81,0,0,1,439,616.7c-.27,1.17-.69,2.48-1.07,3.7s-1,2.67-1.51,4c-.31.69-.66,1.41-1,2.11s-.67,1.37-1.13,2.11-.9,1.46-1.36,2.17c-.24.36-.46.7-.73,1.07l-.83,1.08c-.57.72-1.15,1.42-1.75,2.11s-1.32,1.36-2,2a35.38,35.38,0,0,1-4.46,3.59,39.85,39.85,0,0,1-4.84,2.77,35.5,35.5,0,0,1-4.87,1.88,40.28,40.28,0,0,1-9.1,1.71c-1.39.08-2.73.11-4.05.1s-2.55-.1-3.73-.22c-9.51-1-16.43-3.81-22.79-6.73a130.27,130.27,0,0,1-17.13-9.86,223.3,223.3,0,0,1-28.26-23.06,317.08,317.08,0,0,1-24-25.77A399.84,399.84,0,0,1,236.1,462.38,341.14,341.14,0,0,1,226,429.67q-4.29-16.55-7-33.39t-3.79-33.77c-.69-11.28-1-22.56-1.17-33.82-.21-22.52.31-45.14,3.14-67.53,1.46-11.17,3.36-22.28,5.59-33.31s4.75-22,7.54-32.85c5.58-21.74,12.19-43.14,19.22-64.27,3.49-10.57,7.09-21.08,10.65-31.53s7.08-20.84,10.24-31.14c1.58-5.15,3.07-10.28,4.32-15.32a122.13,122.13,0,0,0,2.85-14.66c.17-1.18.2-2.25.32-3.38,0-.54,0-1,.05-1.57s.06-1.06,0-1.51L278,30.21c0-.46-.1-.82-.14-1.24l-.06-.6-.13-.48-.1-.48a1.34,1.34,0,0,0-.11-.42,3.32,3.32,0,0,1-.23-.67A1,1,0,0,1,277,26c-.15-.15-.19-.26-.27-.27s-.09,0-.14-.08a.13.13,0,0,1-.05-.07l-.16-.05c-.06,0-.07-.07-.15-.09a.86.86,0,0,1-.23-.06,3,3,0,0,0-.55-.17,14.29,14.29,0,0,0-4-.25,31.73,31.73,0,0,0-5.77.9,74.83,74.83,0,0,0-13.15,4.54,175,175,0,0,0-26.64,15.1C208.4,57.09,192,71,176.39,85.68a540.55,540.55,0,0,0-44.09,47.15,517,517,0,0,0-70,108.43c-18.71,38.84-31.51,80.52-39,123.26l-1.37,8c-.41,2.69-.76,5.38-1.14,8.07S20,386,19.71,388.68l-.89,8.11c-1.18,10.81-1.92,21.68-2.53,32.56a582.67,582.67,0,0,0,.77,65.53A663.28,663.28,0,0,0,39.3,624.81Z"/></g></g></svg>