<svg xmlns="http://www.w3.org/2000/svg" width="30.098" height="30" viewBox="0 0 30.098 30"><path d="M5.482,23.015a20.626,20.626,0,0,1-3.365-.625l-.1-.025.025-.1a20.709,20.709,0,0,1,1.231-3.1l.05-.1.087.05a21.955,21.955,0,0,0,2.324,1.118l.075.025-.013.075A21.784,21.784,0,0,0,5.584,22.9v.113h-.1ZM7.919,7.807V7.782c-.652.013-1.306.05-1.946.125.075.665.2,1.319.339,1.959A10.686,10.686,0,0,1,7.919,7.807ZM5.595,23.781v-.087l-.088-.013A20.811,20.811,0,0,1,2.633,23.2l-.25-.063.139.226a15.161,15.161,0,0,0,3.14,3.441l.2.164-.038-.25A24.063,24.063,0,0,1,5.6,23.784ZM10.255.86A14.8,14.8,0,0,0,6.964,2.471a19.937,19.937,0,0,1,2.273.54A22.36,22.36,0,0,1,10.255.86ZM15.12.06a15.4,15.4,0,0,0-1.707.1,20.919,20.919,0,0,1,2.266,1.825l.6.552-.59.565A17.951,17.951,0,0,0,14.285,4.61l-.025.025s-.088.1-.226.264A10.219,10.219,0,1,1,9.776,23.774a20.2,20.2,0,0,1-2.31.125c-.364,0-.716-.012-1.08-.025a28.433,28.433,0,0,0,.328,3.611A15,15,0,1,0,15.12.06ZM13.13,3.6c.3-.351.6-.691.916-1.03A18.709,18.709,0,0,0,11.824.939a19.289,19.289,0,0,0-1.244,2.5c.677.25,1.331.54,1.984.854.289-.389.5-.615.565-.691ZM2.946,12.165l.063.088L3.1,12.19a20.5,20.5,0,0,1,2.172-1.381l.075-.025L5.319,10.7A19.611,19.611,0,0,1,4.8,8.084l-.012-.1-.1.025a20.875,20.875,0,0,0-3.265.875l-.1.038.037.1a21.616,21.616,0,0,0,1.583,3.144ZM2.77,13.61l-.087.063a20.483,20.483,0,0,0-2.274,2.16l-.075.075.075.063a20.146,20.146,0,0,0,2.5,1.859L3,17.891l.05-.087A21.145,21.145,0,0,1,4.37,15.745l.05-.062-.05-.063a20.841,20.841,0,0,1-1.55-1.935Zm5.89,9.456.264-.013-.2-.164a9.722,9.722,0,0,1-2.06-2.3v-.025l-.168-.083-.025.139a20.016,20.016,0,0,0-.176,2.336v.1h.1c.351.025.716.025,1.067.025.389.013.791,0,1.193-.025ZM8.157,6.5a21.607,21.607,0,0,1,.6-2.185,22.5,22.5,0,0,0-2.875-.6,18.99,18.99,0,0,0-.038,2.926C6.612,6.552,7.391,6.515,8.157,6.5ZM9.6,6.452a10.489,10.489,0,0,1,2.1-1.03c-.528-.239-1.055-.465-1.608-.665-.189.551-.346,1.129-.49,1.694ZM2.632,18.632l-.075-.05A21.759,21.759,0,0,1,.334,16.975l-.2-.164.037.264a15.07,15.07,0,0,0,1.18,4.169l.1.239.088-.239a19.856,19.856,0,0,1,1.055-2.5ZM4.554,4.4A14.835,14.835,0,0,0,2.23,7.381a21.95,21.95,0,0,1,2.349-.553,22.261,22.261,0,0,1-.025-2.424Zm.452,10.524.013-.264a10.125,10.125,0,0,1,.464-2.68l.075-.25-.226.125a19.186,19.186,0,0,0-1.72,1.117l-.088.063.063.087c.389.552.8,1.092,1.244,1.607l.176.189Zm.1,1.532-.037-.25-.151.226a21.19,21.19,0,0,0-1.155,1.821l-.05.088.087.05a21.814,21.814,0,0,0,1.959.968l.239.1-.113-.239a10.065,10.065,0,0,1-.779-2.762ZM2.18,12.881l.075-.063-.05-.075A23.478,23.478,0,0,1,.936,10.4l-.113-.226-.075.25a14.925,14.925,0,0,0-.716,4.207L.02,14.89.209,14.7A17.922,17.922,0,0,1,2.18,12.88Z" transform="translate(-0.02 -0.06)" fill="#48556a"/></svg>