<svg xmlns="http://www.w3.org/2000/svg" width="24.07" height="24" viewBox="0 0 24.07 24"><path d="M4.39,18.424a16.5,16.5,0,0,1-2.692-.5l-.08-.02.02-.08a16.567,16.567,0,0,1,.985-2.481l.04-.08.07.04a17.564,17.564,0,0,0,1.859.894l.06.02-.01.06a17.427,17.427,0,0,0-.171,2.059v.09H4.39ZM6.339,6.258v-.02c-.522.01-1.045.04-1.557.1.06.532.161,1.055.271,1.567A8.549,8.549,0,0,1,6.339,6.258ZM4.48,19.037v-.07l-.07-.01a16.649,16.649,0,0,1-2.3-.382l-.2-.05.111.181a12.129,12.129,0,0,0,2.512,2.753l.161.131-.03-.2a19.25,19.25,0,0,1-.181-2.351ZM8.208.7A11.842,11.842,0,0,0,5.575,1.989a15.95,15.95,0,0,1,1.818.432A17.888,17.888,0,0,1,8.208.7ZM12.1.06a12.316,12.316,0,0,0-1.366.08A16.735,16.735,0,0,1,12.547,1.6l.482.442-.472.452A14.361,14.361,0,0,0,11.432,3.7l-.02.02s-.07.08-.181.211a8.175,8.175,0,1,1-3.406,15.1,16.156,16.156,0,0,1-1.848.1c-.291,0-.573-.01-.864-.02A22.746,22.746,0,0,0,5.375,22,12,12,0,1,0,12.1.06ZM10.508,2.893c.241-.281.482-.553.733-.824A14.967,14.967,0,0,0,9.463.763a15.431,15.431,0,0,0-.995,2c.542.2,1.065.432,1.587.683.231-.311.4-.492.452-.553ZM2.361,9.744l.05.07.07-.05A16.4,16.4,0,0,1,4.219,8.659l.06-.02-.02-.07a15.689,15.689,0,0,1-.412-2.09l-.01-.08-.08.02a16.7,16.7,0,0,0-2.612.7l-.08.03.03.08A17.293,17.293,0,0,0,2.361,9.744ZM2.22,10.9l-.07.05A16.386,16.386,0,0,0,.331,12.678l-.06.06.06.05a16.117,16.117,0,0,0,2,1.487l.07.05.04-.07A16.916,16.916,0,0,1,3.5,12.608l.04-.05-.04-.05A16.673,16.673,0,0,1,2.26,10.96l-.04-.06Zm4.712,7.565.211-.01-.161-.131a7.778,7.778,0,0,1-1.648-1.838v-.02L5.2,16.4l-.02.111a16.013,16.013,0,0,0-.141,1.869v.08h.08c.281.02.573.02.854.02.311.01.633,0,.954-.02ZM6.53,5.214a17.286,17.286,0,0,1,.482-1.748,18,18,0,0,0-2.3-.482,15.192,15.192,0,0,0-.03,2.341C5.294,5.254,5.917,5.224,6.53,5.214Zm1.155-.04A8.391,8.391,0,0,1,9.363,4.35c-.422-.191-.844-.372-1.286-.532C7.926,4.259,7.8,4.721,7.685,5.173ZM2.11,14.918l-.06-.04A17.407,17.407,0,0,1,.271,13.592L.11,13.461l.03.211a12.056,12.056,0,0,0,.944,3.335l.08.191.07-.191a15.885,15.885,0,0,1,.844-2ZM3.647,3.536A11.868,11.868,0,0,0,1.788,5.917a17.56,17.56,0,0,1,1.879-.442A17.809,17.809,0,0,1,3.647,3.536Zm.362,8.419.01-.211A8.1,8.1,0,0,1,4.39,9.6l.06-.2-.181.1a15.349,15.349,0,0,0-1.376.894l-.07.05.05.07c.311.442.643.874.995,1.286l.141.151Zm.08,1.226-.03-.2-.121.181a16.952,16.952,0,0,0-.924,1.457l-.04.07.07.04a17.451,17.451,0,0,0,1.567.774l.191.08-.09-.191a8.052,8.052,0,0,1-.623-2.21ZM1.748,10.317l.06-.05-.04-.06A18.782,18.782,0,0,1,.753,8.328l-.09-.181-.06.2A11.94,11.94,0,0,0,.03,11.713l-.01.211.151-.151a14.337,14.337,0,0,1,1.577-1.457Z" transform="translate(-0.02 -0.06)" fill="#48556a"/></svg>