<svg xmlns="http://www.w3.org/2000/svg" width="36.686" height="51" viewBox="0 0 36.686 51"><g transform="translate(-28.74 -18.952)"><g transform="translate(29.24 19.452)"><ellipse cx="2.221" cy="2.221" rx="2.221" ry="2.221" transform="translate(0.241 15.665)" fill="none" stroke="#e5f0ff" stroke-miterlimit="10" stroke-width="1"/><ellipse cx="2.221" cy="2.221" rx="2.221" ry="2.221" transform="translate(10.775 4.977)" fill="none" stroke="#e5f0ff" stroke-miterlimit="10" stroke-width="1"/><ellipse cx="2.221" cy="2.221" rx="2.221" ry="2.221" transform="translate(20.95 11.779)" fill="none" stroke="#e5f0ff" stroke-miterlimit="10" stroke-width="1"/><ellipse cx="2.221" cy="2.221" rx="2.221" ry="2.221" transform="translate(31.245 0)" fill="none" stroke="#e5f0ff" stroke-miterlimit="10" stroke-width="1"/><line y1="6.707" x2="7.626" transform="translate(4.032 9.152)" fill="none" stroke="#e5f0ff" stroke-miterlimit="10" stroke-width="1"/><line x2="6.979" y2="3.931" transform="translate(14.989 8.042)" fill="none" stroke="#e5f0ff" stroke-miterlimit="10" stroke-width="1"/><line y1="8.356" x2="7.499" transform="translate(24.427 3.571)" fill="none" stroke="#e5f0ff" stroke-miterlimit="10" stroke-width="1"/><rect width="4.441" height="20.013" rx="1.16" transform="translate(0 29.987)" fill="none" stroke="#e5f0ff" stroke-miterlimit="10" stroke-width="1"/><rect width="4.441" height="29.665" rx="1.17" transform="translate(10.548 20.334)" fill="none" stroke="#e5f0ff" stroke-miterlimit="10" stroke-width="1"/><rect width="4.441" height="24.651" rx="1.26" transform="translate(21.096 25.349)" fill="none" stroke="#e5f0ff" stroke-miterlimit="10" stroke-width="1"/><rect width="4.441" height="37.088" rx="1.17" transform="translate(31.088 12.912)" fill="none" stroke="#e5f0ff" stroke-miterlimit="10" stroke-width="1"/></g></g></svg>