<svg xmlns="http://www.w3.org/2000/svg" width="35.688" height="50.001" viewBox="0 0 35.688 50.001">
  <path id="analyticsCard" d="M-6302.818-3406.049a1,1,0,0,1-1-1v-35.088a1,1,0,0,1,1-1h2.442a1,1,0,0,1,1,1v35.088a1,1,0,0,1-1,1Zm-9.992,0a1,1,0,0,1-1-1V-3429.7a1,1,0,0,1,1-1h2.442a1,1,0,0,1,1,1v22.651a1,1,0,0,1-1,1Zm-21.1,0a1,1,0,0,1-1-1v-18.013a1,1,0,0,1,1-1h2.442a1,1,0,0,1,1,1v18.013a1,1,0,0,1-1,1Zm10.549,0a1,1,0,0,1-1-1v-27.665a1,1,0,0,1,1-1h2.44a1,1,0,0,1,1,1v27.665a1,1,0,0,1-1,1Zm-11.307-32.112a2.22,2.22,0,0,1,2.221-2.221,2.211,2.211,0,0,1,1.259.392l7.4-7.664a2.214,2.214,0,0,1-.348-1.195,2.22,2.22,0,0,1,2.221-2.221,2.221,2.221,0,0,1,2.221,2.221,2.217,2.217,0,0,1-.1.645l6.728,4.371a2.211,2.211,0,0,1,1.321-.436,2.215,2.215,0,0,1,.644.095l7.713-8.567a2.214,2.214,0,0,1-.283-1.087,2.221,2.221,0,0,1,2.221-2.221,2.221,2.221,0,0,1,2.221,2.221,2.22,2.22,0,0,1-2.221,2.221,2.212,2.212,0,0,1-1.26-.392l-7.507,8.338a2.216,2.216,0,0,1,.694,1.612,2.221,2.221,0,0,1-2.221,2.221,2.22,2.22,0,0,1-2.221-2.221,2.213,2.213,0,0,1,.247-1.019l-6.576-4.27a2.215,2.215,0,0,1-1.625.708,2.208,2.208,0,0,1-1.159-.326l-7.44,7.7a2.211,2.211,0,0,1,.286,1.09,2.222,2.222,0,0,1-2.221,2.221A2.221,2.221,0,0,1-6334.665-3438.163Z" transform="translate(6334.906 3456.05)" fill="#a1b6e6"/>
</svg>
