<svg xmlns="http://www.w3.org/2000/svg" width="24.615" height="24" viewBox="0 0 24.615 24"><path d="M4.359,0h15.9a4.355,4.355,0,0,1,4.359,4.359V19.641A4.355,4.355,0,0,1,20.256,24H4.359A4.355,4.355,0,0,1,0,19.641V4.359A4.355,4.355,0,0,1,4.359,0Z" fill="#49021f"/><g transform="translate(7.621 6.142)"><path d="M76.577,60.02V70.543c0,.113-.051.164-.144.164h-2c-.092,0-.133-.051-.133-.164V60.02c0-.092.051-.133.144-.133h2a.116.116,0,0,1,.133.1Z" transform="translate(-74.3 -59.885)" fill="#f36"/><path d="M118.194,89.939v1.7a.152.152,0,0,1-.082.144,3.162,3.162,0,0,1-.872.195c-.328.031-.646.051-.954.051a4.878,4.878,0,0,1-1.836-.318,3.927,3.927,0,0,1-1.374-.892,4.2,4.2,0,0,1-.872-1.354A4.644,4.644,0,0,1,111.9,87.8a4.342,4.342,0,0,1,.574-2.226,4.1,4.1,0,0,1,1.631-1.528,6.069,6.069,0,0,1,3.426-.5,5.549,5.549,0,0,1,.564.123.189.189,0,0,1,.082.185l-.021,1.7c0,.1-.041.133-.133.113a3.5,3.5,0,0,0-.564-.144,5.629,5.629,0,0,0-.821-.062,2.92,2.92,0,0,0-1.221.246,2.009,2.009,0,0,0-.862.738,2.333,2.333,0,0,0-.318,1.251,2.211,2.211,0,0,0,.369,1.354,2.007,2.007,0,0,0,.944.7,3.391,3.391,0,0,0,1.149.205,6.676,6.676,0,0,0,.79-.041,3.42,3.42,0,0,0,.564-.1C118.153,89.826,118.194,89.857,118.194,89.939Z" transform="translate(-108.04 -81.055)" fill="#f36"/></g></svg>