<svg xmlns="http://www.w3.org/2000/svg" width="30.772" height="30" viewBox="0 0 30.772 30"><path d="M5.449,0H25.324a5.444,5.444,0,0,1,5.449,5.449v19.1A5.444,5.444,0,0,1,25.32,30H5.449A5.444,5.444,0,0,1,0,24.551V5.449A5.444,5.444,0,0,1,5.449,0Z" transform="translate(0 0)" fill="#49021f"/><g transform="translate(9.526 7.678)"><path d="M77.146,60.054V73.207c0,.141-.064.2-.18.2h-2.5c-.115,0-.166-.064-.166-.2V60.054c0-.115.064-.166.18-.166h2.5a.145.145,0,0,1,.166.125Z" transform="translate(-74.3 -59.886)" fill="#f36"/><path d="M119.768,91.553v2.125a.19.19,0,0,1-.1.18,3.953,3.953,0,0,1-1.09.244c-.41.039-.807.064-1.192.064a6.1,6.1,0,0,1-2.295-.4,4.909,4.909,0,0,1-1.717-1.115,5.25,5.25,0,0,1-1.09-1.692,5.805,5.805,0,0,1-.38-2.081,5.427,5.427,0,0,1,.717-2.783,5.125,5.125,0,0,1,2.039-1.91,7.586,7.586,0,0,1,4.283-.625,6.939,6.939,0,0,1,.705.154.236.236,0,0,1,.1.231l-.026,2.125c0,.125-.051.166-.166.141a4.375,4.375,0,0,0-.7-.18,7.036,7.036,0,0,0-1.026-.078,3.65,3.65,0,0,0-1.526.308,2.511,2.511,0,0,0-1.078.923,2.916,2.916,0,0,0-.4,1.564,2.764,2.764,0,0,0,.461,1.692,2.509,2.509,0,0,0,1.18.875,4.239,4.239,0,0,0,1.436.256,8.346,8.346,0,0,0,.987-.051,4.276,4.276,0,0,0,.705-.125C119.716,91.412,119.768,91.451,119.768,91.553Z" transform="translate(-107.075 -80.449)" fill="#f36"/></g></svg>