<svg xmlns="http://www.w3.org/2000/svg" width="24.615" height="24" viewBox="0 0 24.615 24"><path d="M4.359,0h15.9a4.355,4.355,0,0,1,4.359,4.359V19.641A4.355,4.355,0,0,1,20.256,24H4.359A4.355,4.355,0,0,1,0,19.641V4.359A4.355,4.355,0,0,1,4.359,0Z" fill="#49021f"/><g transform="translate(6.656 5.26)"><path d="M67.187,60.02V70.584c0,.113-.051.164-.144.164h-2.01c-.092,0-.133-.051-.133-.164V60.02c0-.092.051-.133.144-.133h2a.116.116,0,0,1,.133.1A.038.038,0,0,1,67.187,60.02Z" transform="translate(-64.9 -59.003)" fill="#f36"/><path d="M107.215,63.153a5.1,5.1,0,0,1-2.205-.462,3.576,3.576,0,0,1-1.549-1.395,4.438,4.438,0,0,1-.564-2.338,4.212,4.212,0,0,1,.564-2.164,4.259,4.259,0,0,1,1.631-1.59,5.246,5.246,0,0,1,2.595-.595,1.832,1.832,0,0,1,.215.01c.092.01.195.01.318.021V51.4c0-.072.031-.113.1-.113H110.4a.092.092,0,0,1,.1.072v9.785c0,.185.01.39.021.615s.031.421.041.595a.167.167,0,0,1-.1.164,7.834,7.834,0,0,1-1.672.492A8.958,8.958,0,0,1,107.215,63.153ZM108.22,61.1V56.589a2.621,2.621,0,0,0-.277-.051c-.113-.01-.226-.021-.338-.021a2.528,2.528,0,0,0-1.159.267,2.3,2.3,0,0,0-.872.759,2.274,2.274,0,0,0-.338,1.3,2.858,2.858,0,0,0,.174,1.056,2,2,0,0,0,.462.728,1.772,1.772,0,0,0,.7.41,2.685,2.685,0,0,0,.851.133c.154,0,.3-.01.431-.021A.873.873,0,0,0,108.22,61.1Z" transform="translate(-98.999 -51.284)" fill="#f36"/></g></svg>