<svg xmlns="http://www.w3.org/2000/svg" width="30.772" height="30" viewBox="0 0 30.772 30"><path d="M5.449,0H25.324a5.444,5.444,0,0,1,5.449,5.449v19.1A5.444,5.444,0,0,1,25.32,30H5.449A5.444,5.444,0,0,1,0,24.551V5.449A5.444,5.444,0,0,1,5.449,0Z" transform="translate(0 0)" fill="#49021f"/><g transform="translate(8.32 6.578)"><path d="M67.759,60.054v13.2c0,.141-.064.2-.18.2H65.066c-.115,0-.166-.064-.166-.2v-13.2c0-.115.064-.166.18-.166h2.5a.145.145,0,0,1,.166.125A.048.048,0,0,1,67.759,60.054Z" transform="translate(-64.9 -58.785)" fill="#f36"/><path d="M108.3,66.12a6.375,6.375,0,0,1-2.756-.578A4.47,4.47,0,0,1,103.6,63.8a5.547,5.547,0,0,1-.705-2.922,5.265,5.265,0,0,1,.705-2.705,5.324,5.324,0,0,1,2.039-1.988,6.557,6.557,0,0,1,3.244-.744,2.29,2.29,0,0,1,.269.012c.115.012.244.012.4.026v-4.05c0-.09.039-.141.125-.141h2.6a.115.115,0,0,1,.125.09V63.608c0,.231.013.488.026.769s.039.526.051.744a.209.209,0,0,1-.125.205,9.792,9.792,0,0,1-2.09.615,11.2,11.2,0,0,1-1.969.179Zm1.256-2.566V57.915a3.277,3.277,0,0,0-.346-.064c-.141-.013-.282-.026-.422-.026a3.16,3.16,0,0,0-1.449.334,2.875,2.875,0,0,0-1.09.949,2.842,2.842,0,0,0-.423,1.625,3.573,3.573,0,0,0,.218,1.32,2.5,2.5,0,0,0,.577.91,2.215,2.215,0,0,0,.875.512,3.356,3.356,0,0,0,1.064.166c.193,0,.375-.012.539-.026a1.091,1.091,0,0,0,.457-.061Z" transform="translate(-98.025 -51.286)" fill="#f36"/></g></svg>