<svg xmlns="http://www.w3.org/2000/svg" width="30.58" height="30" viewBox="0 0 30.58 30"><path d="M6.959,5.148a3.375,3.375,0,0,0-.854.095V5.29h.048a6.552,6.552,0,0,0,.664.854l.474,1L7.338,7.1a1.156,1.156,0,0,0,.427-1.044c-.117-.125-.135-.279-.237-.427-.135-.2-.4-.309-.569-.474Zm22.955,24.33c.224.164.375.419.664.522v-.048c-.153-.194-.191-.461-.333-.664l-.616-.616a10.117,10.117,0,0,0-2.181-2.086c-.647-.466-2.1-1.095-2.375-1.85l-.048-.049a10.35,10.35,0,0,0,1.423-.332c.712-.191,1.35-.141,2.086-.331l1-.284v-.19c-.375-.382-.637-.887-1.042-1.234a30.466,30.466,0,0,0-3.415-2.566c-.661-.419-1.48-.69-2.181-1.044-.236-.125-.65-.181-.806-.375a10.1,10.1,0,0,1-.854-1.612c-.595-1.146-1.18-2.4-1.707-3.6a19.375,19.375,0,0,0-1.042-2.375A20.95,20.95,0,0,0,10.423,2.96a9.677,9.677,0,0,0-2.656-.854L6.2,2.016a8.306,8.306,0,0,1-.95-.711C4.062.554,1.011-1.081.126,1.068-.427,2.425.961,3.75,1.458,4.435A10.212,10.212,0,0,1,2.5,6c.164.356.191.714.332,1.091a25.11,25.11,0,0,0,1.09,2.8,9.954,9.954,0,0,0,.76,1.28c.175.239.474.344.52.711a5.8,5.8,0,0,0-.474,1.565,9.081,9.081,0,0,0,.616,6.972c.33.531,1.11,1.67,2.181,1.232.937-.381.727-1.565,1-2.609.06-.237.024-.411.142-.569v.048l.854,1.707a11.616,11.616,0,0,0,2.7,2.8c.492.375.875,1.015,1.517,1.234v-.049H13.7c-.125-.191-.317-.273-.474-.426a10.9,10.9,0,0,1-1.091-1.234,28.807,28.807,0,0,1-2.324-3.794c-.333-.639-.625-1.343-.9-1.993-.107-.25-.106-.625-.331-.759a9.479,9.479,0,0,0-1,1.422,12.19,12.19,0,0,0-.569,3.125c-.084.03-.046.01-.1.048-.661-.159-.892-.839-1.137-1.422a8.969,8.969,0,0,1-.19-5.549c.141-.439.781-1.824.521-2.229-.125-.4-.53-.639-.757-.949a7.429,7.429,0,0,1-.761-1.329c-.507-1.15-.75-2.441-1.28-3.6A10.569,10.569,0,0,0,2.263,3.909,9.375,9.375,0,0,1,1.126,2.3c-.109-.236-.25-.612-.1-.854a.375.375,0,0,1,.285-.285c.275-.212,1.041.07,1.327.19A11.575,11.575,0,0,1,4.683,2.4c.309.2.625.6,1,.711h.427c.669.154,1.416.047,2.04.237a12.326,12.326,0,0,1,2.987,1.422,18.5,18.5,0,0,1,6.5,7.114c.25.472.352.922.569,1.422.438,1.01.987,2.047,1.422,3.035a14.18,14.18,0,0,0,1.47,2.8c.322.431,1.569.661,2.135.9a12.584,12.584,0,0,1,1.422.569c.719.434,1.414.949,2.087,1.424.336.237,1.375.757,1.422,1.185a9.566,9.566,0,0,0-4.031.57c-.31.125-.8.134-.854.521.17.179.2.445.332.664A5.217,5.217,0,0,0,24.7,26.25c.429.322.875.669,1.327.949.816.5,1.727.782,2.514,1.281.465.294.925.664,1.375,1Z" transform="translate(0.002)" fill="#00758f" fill-rule="evenodd"/></svg>