<svg xmlns="http://www.w3.org/2000/svg" width="24.462" height="24" viewBox="0 0 24.462 24"><path d="M5.567,4.118a2.7,2.7,0,0,0-.683.076v.038h.038a5.242,5.242,0,0,0,.531.683l.379.8.038-.038a.925.925,0,0,0,.342-.835c-.094-.1-.108-.223-.19-.342-.108-.158-.318-.247-.455-.379ZM23.931,23.582c.179.131.3.335.531.418v-.038c-.122-.155-.153-.369-.266-.531l-.493-.493a8.094,8.094,0,0,0-1.745-1.669c-.518-.373-1.68-.876-1.9-1.48l-.038-.039a8.28,8.28,0,0,0,1.138-.266c.57-.153,1.08-.113,1.669-.265l.8-.227v-.152c-.3-.306-.51-.71-.834-.987A24.373,24.373,0,0,0,20.061,15.8c-.529-.335-1.184-.552-1.745-.835-.189-.1-.52-.145-.645-.3a8.078,8.078,0,0,1-.683-1.29c-.476-.917-.944-1.919-1.366-2.884a15.5,15.5,0,0,0-.834-1.9,16.76,16.76,0,0,0-6.45-6.223,7.742,7.742,0,0,0-2.125-.683L4.96,1.613A6.645,6.645,0,0,1,4.2,1.044C3.249.443.808-.865.1.854-.342,1.94.768,3,1.166,3.548A8.17,8.17,0,0,1,2,4.8c.131.285.153.571.266.873a20.088,20.088,0,0,0,.872,2.239,7.963,7.963,0,0,0,.608,1.024c.14.191.379.275.416.569a4.644,4.644,0,0,0-.379,1.252,7.265,7.265,0,0,0,.493,5.578c.264.425.888,1.336,1.745.986.75-.305.582-1.252.8-2.087.048-.19.019-.329.114-.455v.038l.683,1.366a9.293,9.293,0,0,0,2.163,2.239c.394.3.7.812,1.214.987V19.37h-.038c-.1-.153-.254-.218-.379-.341a8.716,8.716,0,0,1-.873-.987,23.046,23.046,0,0,1-1.859-3.035c-.266-.511-.5-1.074-.721-1.594-.086-.2-.085-.5-.265-.607a7.583,7.583,0,0,0-.8,1.138,9.752,9.752,0,0,0-.455,2.5c-.067.024-.037.008-.076.038-.529-.127-.714-.671-.91-1.138a7.175,7.175,0,0,1-.152-4.439c.113-.351.625-1.459.417-1.783-.1-.324-.424-.511-.606-.759A5.943,5.943,0,0,1,3.669,7.3c-.406-.92-.6-1.953-1.024-2.883a8.455,8.455,0,0,0-.835-1.29A7.5,7.5,0,0,1,.9,1.841C.813,1.652.7,1.351.824,1.158A.3.3,0,0,1,1.052.93c.22-.17.833.056,1.062.152a9.26,9.26,0,0,1,1.632.835c.247.164.5.481.8.569h.342c.535.123,1.133.038,1.632.19a9.861,9.861,0,0,1,2.39,1.138,14.8,14.8,0,0,1,5.2,5.691c.2.378.282.738.455,1.138.35.808.79,1.638,1.138,2.428a11.344,11.344,0,0,0,1.176,2.239c.258.345,1.255.529,1.708.721a10.067,10.067,0,0,1,1.138.455c.575.347,1.131.759,1.67,1.139.269.19,1.1.606,1.138.948a7.653,7.653,0,0,0-3.225.456c-.248.1-.642.107-.683.417.136.143.158.356.266.531A4.174,4.174,0,0,0,19.757,21c.343.258.7.535,1.062.759.653.4,1.382.626,2.011,1.025.372.235.74.531,1.1.8Z" fill="#00758f" fill-rule="evenodd"/></svg>