<svg xmlns="http://www.w3.org/2000/svg" width="24.498" height="24" viewBox="0 0 24.498 24"><path d="M105.1,1.109V2.223h-1.992v.725H105.1V5.167h.779V2.948h2.042V2.223H105.88V0H105.1Z" transform="translate(-93.242)" fill="#7099a6"/><path d="M27.385,25.844v1.617H24.369v1.014h3.016v3.283H28.5V28.475h3.061V27.461H28.5V24.228H27.385Z" transform="translate(-22.037 -21.909)" fill="#eb912c"/><path d="M159.454,25.844v1.617h-3.016v1.064h3.016v3.233h1.164V28.525h3.016V27.461h-3.016V24.228h-1.164Z" transform="translate(-141.467 -21.909)" fill="#59879b"/><path d="M89.193,81.544v1.811H85.837v1.349h3.355v3.623h1.359V84.705h3.355V83.356H90.551V79.733H89.193Z" transform="translate(-77.623 -72.103)" fill="#e8762c"/><path d="M204.711,97.522v1.137h-2.042v.919h2.042v2.269h1.019V99.577h2.042v-.919H205.73V96.389h-1.019Z" transform="translate(-183.274 -87.165)" fill="#5b6591"/><path d="M1.992,98.991v1.087H0v.77H1.992v2.174h.779v-2.174l2.042-.072v-.7H2.771V97.9H1.992Z" transform="translate(0 -88.535)" fill="#7099a6"/><path d="M27.385,147.455v1.617H24.369v1.064h3.016v3.233h1.164v-3.233h3.016v-1.064H28.549v-3.233H27.385Z" transform="translate(-22.037 -131.882)" fill="#c72035"/><path d="M159.454,147.455v1.617h-3.016v1.014h3.016v3.283h1.164v-3.283h3.016v-1.014h-3.016v-3.233h-1.164Z" transform="translate(-141.467 -131.882)" fill="#1f447e"/><path d="M103.637,194.91v1.132H101.6v.919h2.042v2.269h1.019v-2.269H106.7v-.919h-2.042v-2.269h-1.019Z" transform="translate(-91.873 -175.23)" fill="#5b6591"/></svg>