<svg xmlns="http://www.w3.org/2000/svg" width="30.622" height="30" viewBox="0 0 30.622 30"><path d="M105.6,1.386V2.779h-2.49v.906h2.49V6.459h.974V3.685h2.552V2.779h-2.551V0H105.6Z" transform="translate(-90.776)" fill="#7099a6"/><path d="M28.139,26.248v2.021h-3.77v1.267h3.77v4.1h1.394v-4.1h3.826V28.269H29.533V24.228H28.139Z" transform="translate(-21.454 -21.329)" fill="#eb912c"/><path d="M160.208,26.248v2.021h-3.77V29.6h3.77V33.64h1.455V29.6h3.77v-1.33h-3.77V24.228h-1.455Z" transform="translate(-137.724 -21.329)" fill="#59879b"/><path d="M90.032,82V84.26H85.837v1.686h4.194v4.529h1.7V85.948h4.194V84.262H91.73V79.733h-1.7Z" transform="translate(-75.57 -70.196)" fill="#e8762c"/><path d="M205.222,97.805v1.421h-2.553v1.149h2.553v2.836H206.5v-2.837h2.553V99.225H206.5V96.389h-1.274Z" transform="translate(-178.425 -84.859)" fill="#5b6591"/><path d="M2.49,99.264v1.359H0v.963H2.49V104.3h.974v-2.717l2.552-.09v-.875H3.464V97.9H2.49Z" transform="translate(0 -86.194)" fill="#7099a6"/><path d="M28.139,147.859v2.021h-3.77v1.33h3.77v4.041h1.455V151.21h3.77v-1.33h-3.77v-4.041H28.139Z" transform="translate(-21.454 -128.393)" fill="#c72035"/><path d="M160.208,147.859v2.021h-3.77v1.267h3.77v4.1h1.455v-4.1h3.77V149.88h-3.77v-4.041h-1.455Z" transform="translate(-137.724 -128.393)" fill="#1f447e"/><path d="M104.146,195.194v1.415H101.6v1.149h2.553v2.836h1.274v-2.836h2.549v-1.149h-2.552v-2.836h-1.274Z" transform="translate(-89.441 -170.594)" fill="#5b6591"/></svg>