<svg xmlns="http://www.w3.org/2000/svg" width="123.577" height="24.007" viewBox="0 0 123.577 24.007">
  <path id="nvivo" d="M62.374,24,52.218.057h3.574l8.455,19.915L71.735,0h2.5L63.962,24ZM45.508,24V.058L48.3,0V24ZM31.1,24,20.941.057h3.517l8.567,19.972L40.459,0h2.5L32.685,24ZM17.224,24,1.263,2.067V24H0V.058H4.076l13.894,19V0h1.493V24Zm94.77-5.792a6.61,6.61,0,0,0,5.935-5.934,6.513,6.513,0,0,0,5.6,5.934h.048A6.514,6.514,0,0,0,117.784,24a6.514,6.514,0,0,0-5.79-5.792ZM105.745,24a6.541,6.541,0,0,0-5.475-5.621,6.492,6.492,0,0,0,5.765-6.1,6.539,6.539,0,0,0,5.814,6.1A6.541,6.541,0,0,0,105.987,24ZM79.672,22.343a11.362,11.362,0,0,1-5.43-10.491,11.348,11.348,0,1,1,22.673,0A11.363,11.363,0,0,1,79.672,22.343ZM77.759,6.764v9.578a8.071,8.071,0,0,0,15.8-.163V7.251A8.226,8.226,0,0,0,85.843,1.06h-.254a8.227,8.227,0,0,0-7.83,5.7Zm34.235-.95A6.439,6.439,0,0,0,117.52,0a6.488,6.488,0,0,0,5.526,5.719l.384.336a6.486,6.486,0,0,0-5.574,5.67,6.488,6.488,0,0,0-5.862-5.911Zm-11.724.121A6.465,6.465,0,0,0,105.867,0a6.466,6.466,0,0,0,6.079,5.646v.193a6.417,6.417,0,0,0-5.79,5.886,6.417,6.417,0,0,0-5.886-5.79Z" transform="translate(0 0.007)" fill="#a1b6e6"/>
</svg>
