<svg xmlns="http://www.w3.org/2000/svg" width="154.427" height="30" viewBox="0 0 154.427 30"><path d="M77.945,29.993,65.254.073H69.72L80.286,24.96,89.643,0h3.124L79.93,29.993Zm-21.076,0V.074L60.358,0V29.993Zm-18,0L26.169.073h4.395L41.269,25.031,50.559,0h3.124L40.845,29.993Zm-17.34,0L1.578,2.585V29.993H0V.074H5.094L22.456,23.817V0h1.866V29.993Zm118.429-7.238a8.26,8.26,0,0,0,7.417-7.415,8.139,8.139,0,0,0,7,7.415h.06a8.14,8.14,0,0,0-7.239,7.238,8.14,8.14,0,0,0-7.235-7.238Zm-7.809,7.238a8.174,8.174,0,0,0-6.842-7.024,8.113,8.113,0,0,0,7.2-7.623,8.171,8.171,0,0,0,7.265,7.623,8.174,8.174,0,0,0-7.325,7.024ZM99.562,27.922a14.2,14.2,0,0,1-6.786-13.11,14.181,14.181,0,1,1,28.333,0,14.2,14.2,0,0,1-21.548,13.11ZM97.171,8.454V20.423a10.086,10.086,0,0,0,19.744-.2V9.063a10.28,10.28,0,0,0-9.642-7.737h-.317A10.281,10.281,0,0,0,97.171,8.45Zm42.782-1.187A8.046,8.046,0,0,0,146.858,0a8.108,8.108,0,0,0,6.906,7.147l.48.42a8.105,8.105,0,0,0-6.965,7.085,8.108,8.108,0,0,0-7.325-7.387ZM125.3,7.418A8.079,8.079,0,0,0,132.3,0a8.08,8.08,0,0,0,7.6,7.055V7.3a8.019,8.019,0,0,0-7.235,7.355A8.019,8.019,0,0,0,125.3,7.418Z" transform="translate(0 0.007)" fill="#96aee6"/></svg>