<svg xmlns="http://www.w3.org/2000/svg" width="50" height="50" viewBox="0 0 50 50">
  <g id="researchCard" transform="translate(-0.07 -0.07)">
    <path id="Path_327" data-name="Path 327" d="M25.07.07a25,25,0,1,0,25,25,25,25,0,0,0-25-25Zm0,48.512A23.512,23.512,0,1,1,48.582,25.07,23.512,23.512,0,0,1,25.07,48.582Z" transform="translate(0 0)" fill="#a1b6e6"/>
    <path id="Path_328" data-name="Path 328" d="M23.547,12.384l-5.972,3a2.473,2.473,0,0,1-2.2,0L9.087,12.342a.88.88,0,0,0-1.257.8v4.484a1.4,1.4,0,0,0,.335.9,11.19,11.19,0,0,0,8.4,3.709,11.023,11.023,0,0,0,8.005-3.793,1.236,1.236,0,0,0,.356-.88V13.18a.88.88,0,0,0-1.383-.8Zm.147,4.82a1.048,1.048,0,0,1-.293.775,9.849,9.849,0,0,1-6.957,3.164,9.933,9.933,0,0,1-7.23-3.1,1.194,1.194,0,0,1-.293-.8V13.851a.147.147,0,0,1,.21-.147l5.532,2.682a4.044,4.044,0,0,0,3.6,0l5.218-2.64a.147.147,0,0,1,.21.147Z" transform="translate(8.502 14.315)" fill="#a1b6e6"/>
    <path id="Path_329" data-name="Path 329" d="M32.668,12.293,20.744,6.007a1.614,1.614,0,0,0-1.425,0L6.075,12.65a1.551,1.551,0,0,0,0,2.787L18.816,21.6a1.593,1.593,0,0,0,1.383,0l9.723-5.176v6.685a1.383,1.383,0,0,0,0,2.494v1.7a.608.608,0,0,0,.629.629.629.629,0,0,0,.629-.629V25.6a1.446,1.446,0,0,0,.754-1.236,1.4,1.4,0,0,0-.754-1.236V15.772l1.4-.733a1.551,1.551,0,0,0,.084-2.745ZM31.473,14.2,19.759,20.361a.65.65,0,0,1-.524,0l-12.049-5.8a.587.587,0,0,1,0-1.048L19.654,7.222a.566.566,0,0,1,.545,0l11.3,5.909a.587.587,0,0,1-.021,1.069Z" transform="translate(5.625 6.322)" fill="#a1b6e6"/>
  </g>
</svg>
