<svg xmlns="http://www.w3.org/2000/svg" width="51.5" height="51.5" viewBox="0 0 51.5 51.5"><g transform="translate(0.355 0.75)"><g transform="translate(0.395 0)"><ellipse cx="1.627" cy="1.587" rx="1.627" ry="1.587" transform="translate(35.356 28.317)" fill="#e5f0ff"/><circle cx="25" cy="25" r="25" fill="none" stroke="#e5f0ff" stroke-miterlimit="10" stroke-width="1.5"/><path d="M5.549,11.436,18.068,5.528a1.9,1.9,0,0,1,1.627,0l11.818,5.981a1.11,1.11,0,0,1,0,1.977L19.22,19.418a1.92,1.92,0,0,1-1.753,0L5.524,13.413a1.087,1.087,0,0,1,.025-1.977Z" transform="translate(6.446 7.385)" fill="none" stroke="#e5f0ff" stroke-miterlimit="10" stroke-width="1.5"/><path d="M6.77,10.923v5.37a11.95,11.95,0,0,0,9.139,4.028,11.721,11.721,0,0,0,8.312-4.1V10.85L16.71,14.438a2.92,2.92,0,0,1-2.5,0Z" transform="translate(9.257 15.319)" fill="none" stroke="#e5f0ff" stroke-linejoin="round" stroke-width="1.5"/><line y2="12.157" transform="translate(36.983 21.482)" fill="none" stroke="#e5f0ff" stroke-linecap="round" stroke-miterlimit="10" stroke-width="1.5"/></g></g></svg>