<svg xmlns="http://www.w3.org/2000/svg" xmlns:xlink="http://www.w3.org/1999/xlink" width="30.25" height="30.25" viewBox="0 0 30.25 30.25"><defs><radialGradient id="a" cx="0.484" cy="0.52" fx="-0.1897200047969818" fy="-0.20869000256061554" r="0.825" gradientUnits="objectBoundingBox"><stop offset="0.1" stop-color="#b9d8ed"/><stop offset="0.19" stop-color="#b5d5eb"/><stop offset="0.28" stop-color="#a9cce6"/><stop offset="0.37" stop-color="#94bcdd"/><stop offset="0.47" stop-color="#78a6d0"/><stop offset="0.56" stop-color="#548bc0"/><stop offset="0.58" stop-color="#4c85bd"/></radialGradient></defs><g transform="translate(0.125 0.125)"><path d="M15,0A15,15,0,1,1,0,15,15,15,0,0,1,15,0Z" stroke="#17528e" stroke-width="0.25" fill="url(#a)"/><path d="M16.315,7.43l-.225-3H4.51v.345l6,7.5-6,7.5v.33h11.9l.555-3.735h-.345a2.22,2.22,0,0,1-.645,1.5,2.34,2.34,0,0,1-1.5.625L6.345,18.42l5.76-7.05L7,5.285v-.21h7.038a2.235,2.235,0,0,1,1.98,2.375Z" transform="translate(2.06 2.02)" fill="#fbffff" stroke="#17528e" stroke-miterlimit="10" stroke-width="0.02"/><path d="M10.54,9.61l-6,7.5v.362" transform="translate(2.075 4.61)" fill="none" stroke="#17528e" stroke-miterlimit="10" stroke-width="0.05"/><path d="M16.115,4.38H4.46v.33" transform="translate(2.035 1.995)" fill="none" stroke="#17528e" stroke-miterlimit="10" stroke-width="0.05"/><path d="M20.211,11.035h-.165c-.125.435-.375.81-.645.84s-.84-.51-.915-1.5c.3-1.05.615-2.115.915-3.18h-.885l-.48,1.5A2.415,2.415,0,0,0,15.921,7a2.25,2.25,0,0,0-1.71.96A3.09,3.09,0,0,0,14,11.395a2.385,2.385,0,0,0,1.2,1.065,2.3,2.3,0,0,0,1.75-.1,2.49,2.49,0,0,0,1.275-1.41,1.3,1.3,0,0,0,1.08,1.5,1.29,1.29,0,0,0,.9-1.41Zm-4.17,1.14c-.675,0-1.185-1.08-1.3-1.86-.225-1.26.4-2.865,1.26-3s1.5.825,1.815,2.1c-.21,1.74-1.035,2.805-1.725,2.76Z" transform="translate(6.594 3.305)" fill="#fbffff" stroke="#17528e" stroke-miterlimit="10" stroke-width="0.02"/><path d="M.57,0A.57.57,0,1,1,0,.57.57.57,0,0,1,.57,0Z" transform="translate(22.125 21.24)" fill="#fbffff" stroke="#17528e" stroke-width="0.02"/><path d="M.57,0A.57.57,0,1,1,0,.57.57.57,0,0,1,.57,0Z" transform="translate(22.125 24.66)" fill="#fbffff" stroke="#17528e" stroke-width="0.02"/><path d="M5.3.188H0V-.125H5.3Z" transform="translate(20.04 23.489)" fill="#fbffff"/></g></svg>