<svg xmlns="http://www.w3.org/2000/svg" xmlns:xlink="http://www.w3.org/1999/xlink" width="24.25" height="24.25" viewBox="0 0 24.25 24.25"><defs><radialGradient id="a" cx="0.484" cy="0.52" fx="-0.18972499668598175" fy="-0.20869499444961548" r="0.825" gradientUnits="objectBoundingBox"><stop offset="0.1" stop-color="#b9d8ed"/><stop offset="0.19" stop-color="#b5d5eb"/><stop offset="0.28" stop-color="#a9cce6"/><stop offset="0.37" stop-color="#94bcdd"/><stop offset="0.47" stop-color="#78a6d0"/><stop offset="0.56" stop-color="#548bc0"/><stop offset="0.58" stop-color="#4c85bd"/></radialGradient></defs><g transform="translate(0.125 0.125)"><circle cx="12" cy="12" r="12" transform="translate(0)" stroke="#17528e" stroke-miterlimit="10" stroke-width="0.25" fill="url(#a)"/><path d="M13.954,6.83l-.18-2.4H4.51v.276l4.8,6-4.8,6v.264h9.516l.444-2.988h-.276a1.776,1.776,0,0,1-.516,1.2,1.872,1.872,0,0,1-1.2.5l-6.5-.06,4.608-5.64L6.5,5.114V4.946H12.13a1.788,1.788,0,0,1,1.584,1.9Z" transform="translate(0.746 0.73)" fill="#fbffff" stroke="#17528e" stroke-miterlimit="10" stroke-width="0.02"/><path d="M9.34,9.61l-4.8,6V15.9" transform="translate(0.752 1.766)" fill="none" stroke="#17528e" stroke-miterlimit="10" stroke-width="0.05"/><path d="M13.784,4.38H4.46v.264" transform="translate(0.736 0.72)" fill="none" stroke="#17528e" stroke-miterlimit="10" stroke-width="0.05"/><path d="M18.884,10.228h-.132c-.1.348-.3.648-.516.672s-.672-.408-.732-1.2c.24-.84.492-1.692.732-2.544h-.708l-.384,1.2A1.932,1.932,0,0,0,15.452,7a1.8,1.8,0,0,0-1.368.768,2.472,2.472,0,0,0-.168,2.748,1.908,1.908,0,0,0,.96.852,1.836,1.836,0,0,0,1.4-.084,1.992,1.992,0,0,0,1.02-1.128,1.044,1.044,0,0,0,.864,1.2,1.032,1.032,0,0,0,.72-1.128Zm-3.336.912c-.54,0-.948-.864-1.044-1.488-.18-1.008.324-2.292,1.008-2.4s1.2.66,1.452,1.68c-.168,1.392-.828,2.244-1.38,2.208Z" transform="translate(2.56 1.244)" fill="#fbffff" stroke="#17528e" stroke-miterlimit="10" stroke-width="0.02"/><circle cx="0.456" cy="0.456" r="0.456" transform="translate(17.7 16.992)" fill="#fbffff" stroke="#17528e" stroke-miterlimit="10" stroke-width="0.02"/><circle cx="0.456" cy="0.456" r="0.456" transform="translate(17.7 19.728)" fill="#fbffff" stroke="#17528e" stroke-miterlimit="10" stroke-width="0.02"/><line x2="4.236" transform="translate(16.032 18.816)" fill="none" stroke="#fbffff" stroke-miterlimit="10" stroke-width="0.25"/></g></svg>