<svg xmlns="http://www.w3.org/2000/svg" width="50" height="50" viewBox="0 0 50 50"><path d="M2582-25a25.029,25.029,0,0,1,25-25,25.03,25.03,0,0,1,25,25,25.027,25.027,0,0,1-25,25A25.027,25.027,0,0,1,2582-25Zm14.476,20.059A22.5,22.5,0,0,0,2607-2.344a22.523,22.523,0,0,0,10.5-2.583c.328-.17.652-.35.967-.537a5.122,5.122,0,0,0,2.7-1.237,4.712,4.712,0,0,0,1.094-1.567c.784-1.739.831-4.054.883-6.468.068-3.453.14-7.019,2.506-9.269l.021-.017a7.287,7.287,0,0,1,1.386-.976,7.469,7.469,0,0,1-1.386-.98l-.025-.022c-2.361-2.258-2.433-5.825-2.5-9.272-.052-2.429-.1-4.757-.9-6.478a4.632,4.632,0,0,0-1.078-1.51,5.14,5.14,0,0,0-2.673-1.26c-.324-.2-.66-.38-1-.554A22.473,22.473,0,0,0,2607-47.656a22.485,22.485,0,0,0-10.519,2.595.53.53,0,0,0-.094.052,5.662,5.662,0,0,0-3.9,1.438,5.587,5.587,0,0,0-1.529,2.588,22.337,22.337,0,0,0-.571,5.677c-.068,3.374-.141,6.863-2.386,9l-.013.008a6.892,6.892,0,0,1-2.1,1.3,6.786,6.786,0,0,1,2.1,1.288l.007.007c2.251,2.131,2.324,5.621,2.391,9a22.625,22.625,0,0,0,.567,5.684,5.743,5.743,0,0,0,1.534,2.633,5.62,5.62,0,0,0,3.9,1.4C2596.417-4.969,2596.447-4.956,2596.477-4.939Zm30.469-17.847c-1.835,1.76-1.9,4.829-1.969,8.08-.024,1.248-.05,2.509-.186,3.72a22.521,22.521,0,0,0,4.845-13.092A5.221,5.221,0,0,0,2626.945-22.786ZM2584.351-25.5a5.6,5.6,0,0,0,2.992-1.414c1.986-1.9,2.056-5.208,2.122-8.413a33.4,33.4,0,0,1,.274-4.333A22.539,22.539,0,0,0,2584.351-25.5ZM2604.4-8.454a6.556,6.556,0,0,1-4.044-1.352c-1.76-1.436-1.9-3.5-2.047-5.68a12.635,12.635,0,0,0-1.594-6.232,9.033,9.033,0,0,0-1.87-2.139,1.528,1.528,0,0,1-.95.357,1.158,1.158,0,0,1-.156-.007,1.481,1.481,0,0,1-1.19-.925l-.052-.123.086-.1c.14-.166.277-.333.413-.5l.261-.34a10.7,10.7,0,0,0,2.561-6.849,16.706,16.706,0,0,0-.384-2.714,9.753,9.753,0,0,1-.284-3.047,4.635,4.635,0,0,1,.225-.954,4.488,4.488,0,0,1,1.441-2.084c0-.01.012-.013.017-.017a5.6,5.6,0,0,1,1.167-.809,17.483,17.483,0,0,1,2.426-1.108c.14-.052.286-.1.435-.153l.345-.116c.112-.034.222-.069.337-.1.486-.14.976-.259,1.474-.365.256-.051.532-.1.828-.15.143-.02.3-.046.455-.067s.32-.04.482-.059.331-.035.5-.047c.337-.03.682-.052,1.045-.064.2,0,.392-.01.592-.01a19.034,19.034,0,0,1,8.9,2.191l.843.469a4.332,4.332,0,0,1,2.267,1.07,3.917,3.917,0,0,1,.917,1.279,14.5,14.5,0,0,1,.758,5.492c.059,2.923.121,5.95,2.122,7.862l.022.017a6.2,6.2,0,0,0,1.176.832h-1.682a5.427,5.427,0,0,1-1.063-.751l-.015-.017c-1.81-1.727-1.867-4.453-1.919-7.091a.544.544,0,0,1-.529.416.544.544,0,0,1-.544-.544.544.544,0,0,1,.544-.545.545.545,0,0,1,.524.4,12.3,12.3,0,0,0-.685-4.7,3.52,3.52,0,0,0-.827-1.156,3.947,3.947,0,0,0-2.045-.967l-.768-.427a17.24,17.24,0,0,0-8.037-1.976,14.677,14.677,0,0,0-4.584.614c-1.547.482-1.512.788-3.473,1.377a6.156,6.156,0,0,0-2.49,1.048,3.778,3.778,0,0,0-.64.681,3.926,3.926,0,0,0-.118.588,9.511,9.511,0,0,0,.281,2.916,17.305,17.305,0,0,1,.392,2.778,11.121,11.121,0,0,1-2.617,7.082h0a10.475,10.475,0,0,1,3.452,3.328,12.965,12.965,0,0,1,1.652,6.431c.151,2.177.279,4.061,1.893,5.377a6.011,6.011,0,0,0,3.789,1.257,8.064,8.064,0,0,0,5.313-2.2c4.705-3.78,5.034-10.934,5.021-13.039h.426c.014,2.147-.328,9.47-5.178,13.372a8.62,8.62,0,0,1-5.447,2.292C2604.5-8.451,2604.45-8.451,2604.4-8.454Zm-11.4-16.029a1.052,1.052,0,0,0,.788.554,1.076,1.076,0,0,0,.725-.2,11,11,0,0,0-1.147-.8C2593.245-24.784,2593.118-24.631,2592.995-24.483Zm.389-.477-.019.023.019-.022c.061-.081.125-.161.186-.241C2593.508-25.119,2593.444-25.041,2593.383-24.96Zm20.922-1.877a.6.6,0,0,1,.6-.6.6.6,0,0,1,.6.6.6.6,0,0,1-.6.6A.6.6,0,0,1,2614.306-26.837Zm1.823-3.427a.517.517,0,0,1,.517-.517.517.517,0,0,1,.518.517.517.517,0,0,1-.518.517A.517.517,0,0,1,2616.128-30.264Zm4.978-4.951a.762.762,0,0,1,.761-.761.761.761,0,0,1,.761.761.761.761,0,0,1-.761.762A.762.762,0,0,1,2621.106-35.215Z" transform="translate(-2582 50)" fill="#ababce"/></svg>