<svg xmlns="http://www.w3.org/2000/svg" width="399.998" height="400" viewBox="0 0 399.998 400"><path d="M1558.484,963.968c0-110.289,89.726-200.014,199.987-200.014,110.287,0,200.011,89.724,200.011,200.014s-89.724,199.986-200.011,199.986C1648.21,1163.954,1558.484,1074.253,1558.484,963.968ZM1674.3,1124.441a180.974,180.974,0,0,0,168.141.1c2.624-1.364,5.211-2.8,7.733-4.3a40.991,40.991,0,0,0,21.587-9.887,37.7,37.7,0,0,0,8.751-12.537c6.275-13.912,6.647-32.425,7.062-51.75.549-27.625,1.123-56.147,20.052-74.151l.16-.135a58.272,58.272,0,0,1,11.086-7.812,59.8,59.8,0,0,1-11.086-7.839l-.2-.175c-18.891-18.061-19.465-46.6-20.014-74.176-.414-19.434-.787-38.048-7.189-51.824a37.008,37.008,0,0,0-8.624-12.076,41.066,41.066,0,0,0-21.386-10.085c-2.59-1.562-5.274-3.038-7.979-4.426a180.826,180.826,0,0,0-168.071.1,3.95,3.95,0,0,0-.75.41,45.306,45.306,0,0,0-31.19,11.511c-5.994,5.526-9.819,12.589-12.231,20.7-3.929,13.126-4.23,28.978-4.577,45.414-.536,27-1.125,54.912-19.085,72.038l-.1.063a55,55,0,0,1-16.835,10.363,54.222,54.222,0,0,1,16.835,10.3l.063.061c18,17.05,18.59,44.973,19.127,71.975.347,16.423.648,32.312,4.54,45.471,2.45,8.215,6.233,15.415,12.269,21.067a44.932,44.932,0,0,0,31.19,11.185C1673.821,1124.2,1674.058,1124.3,1674.3,1124.441Zm243.75-142.774c-14.684,14.074-15.2,38.624-15.752,64.638-.2,9.984-.408,20.073-1.5,29.761a180.161,180.161,0,0,0,38.761-104.736A41.729,41.729,0,0,0,1918.046,981.667Zm-340.751-21.688a44.8,44.8,0,0,0,23.938-11.313c15.89-15.176,16.439-41.661,16.978-67.3.24-11.723.475-23.625,2.187-34.672A180.317,180.317,0,0,0,1577.294,959.979Zm160.379,136.341c-12.823-.277-24-4.027-32.351-10.813-14.087-11.489-15.21-27.99-16.374-45.437-1.05-15.514-2.245-33.113-12.748-49.851a72.065,72.065,0,0,0-14.961-17.112l0,0a12.215,12.215,0,0,1-7.6,2.863,8.581,8.581,0,0,1-1.258-.063,11.846,11.846,0,0,1-9.517-7.4l-.414-.986.691-.788c1.123-1.327,2.212-2.662,3.3-3.987l2.088-2.725c14.29-18.787,21.2-37.163,20.486-54.788a133.329,133.329,0,0,0-3.071-21.713c-1.665-8.422-3.24-16.4-2.279-24.374a37.039,37.039,0,0,1,1.8-7.636,35.854,35.854,0,0,1,11.523-16.675c.038-.076.1-.1.137-.139a45.168,45.168,0,0,1,9.336-6.473,140.9,140.9,0,0,1,19.4-8.863c1.127-.416,2.29-.828,3.476-1.224l2.761-.929c.887-.275,1.779-.549,2.7-.824,3.888-1.123,7.8-2.075,11.788-2.923,2.048-.414,4.261-.824,6.624-1.2,1.148-.16,2.376-.371,3.64-.536s2.563-.311,3.859-.473c1.328-.139,2.65-.279,4.014-.376,2.7-.238,5.461-.414,8.363-.511,1.562-.036,3.135-.076,4.736-.076A152.259,152.259,0,0,1,1829,827.8l6.748,3.751a34.657,34.657,0,0,1,18.135,8.563,31.444,31.444,0,0,1,7.34,10.226c5.411,11.686,5.72,27.475,6.061,43.936.475,23.389.961,47.6,16.978,62.9l.171.133a49.411,49.411,0,0,0,9.412,6.653h-13.46a43.287,43.287,0,0,1-8.5-6l-.122-.139c-14.48-13.816-14.939-35.623-15.349-56.732a4.352,4.352,0,1,1-.045-2.2c-.3-14.131-.8-27.541-5.479-37.616a27.938,27.938,0,0,0-6.617-9.238,31.615,31.615,0,0,0-16.36-7.738l-6.138-3.413a137.929,137.929,0,0,0-64.3-15.809c-7.7,0-20.865,0-36.677,4.91-12.375,3.848-12.1,6.3-27.784,11.012-8.592,2.589-13.939,3.436-19.914,8.388a29.91,29.91,0,0,0-5.115,5.449,30.482,30.482,0,0,0-.947,4.7c-.889,7.477.648,15.176,2.248,23.326a138.332,138.332,0,0,1,3.137,22.226c.711,18.335-6.349,37.323-20.937,56.659-.608.853-1.3,1.679-1.937,2.527l-.175.2c-.927,1.2-1.939,2.423-2.939,3.613a8.413,8.413,0,0,0,6.311,4.437,8.613,8.613,0,0,0,5.8-1.636,87.107,87.107,0,0,0-9.173-6.409l.175-.2c.639-.846,1.327-1.674,1.939-2.527,11.865,7.324,21.1,16.227,27.612,26.627,10.949,17.487,12.175,35.526,13.225,51.449,1.2,17.415,2.228,32.49,15.141,43.013,5.421,4.435,15.033,9.752,30.312,10.064,20.146.572,34.7-11.248,42.509-17.562,37.638-30.24,40.268-87.474,40.162-104.313h1.589v-17q-.159.01-.321.011a4.787,4.787,0,1,1,0-9.574q.161,0,.321.011v0a4.787,4.787,0,0,1,0,9.553v17h1.825c.1,17.176-2.625,75.753-41.427,106.974-8.012,6.453-22.77,18.34-43.573,18.34C1738.485,1096.345,1738.084,1096.345,1737.674,1096.32Zm-22.892-117.677V950.455l38.066,18.45a14.6,14.6,0,0,0,12.814,0l38.435-18.839v28.2a59.457,59.457,0,0,1-42.537,21.524c-.269,0-.535.005-.8.005A60.491,60.491,0,0,1,1714.781,978.643Zm40.361-25.24-61.124-31.523a5.78,5.78,0,0,1-2.587-7.738,5.858,5.858,0,0,1,2.711-2.65v.013l64.076-31.014a9.5,9.5,0,0,1,8.338,0l60.473,31.386a5.911,5.911,0,0,1,2.4,7.988,5.983,5.983,0,0,1-2.4,2.4l-62.91,31.136a9.662,9.662,0,0,1-8.977,0Zm76.365-31.563a4.135,4.135,0,1,1,4.135,4.135A4.134,4.134,0,0,1,1831.507,921.841Zm39.823-39.6a6.093,6.093,0,1,1,6.093,6.093A6.092,6.092,0,0,1,1871.33,882.237Z" transform="translate(-1558.484 -763.954)" fill="#ababce" opacity="0.2"/></svg>