<svg xmlns="http://www.w3.org/2000/svg" width="457.139" height="500" viewBox="0 0 457.139 500">
  <g id="digiad" transform="translate(-1202.861 -108)">
    <path id="Path_208" data-name="Path 208" d="M277.047,225.744c5.721-3.913,13.084,4.711,9.079,10.08-4.049,5.428-12.9,3.889-15.949-1.653-3.889-7.071-.016-15.482,6.251-19.587,7.12-4.663,15.845-4.926,24.066-4.489,8.3.441,16.406,1.027,24.678-.163a82.783,82.783,0,0,0,20.358-5.71,86.489,86.489,0,0,0,34.2-25.906,68.648,68.648,0,0,0,10.578-17.778c1.86-4.936,2.742-11.428.106-16.26a8.277,8.277,0,0,0-12.584-2.528c-4.393,3.6-5.58,10.282-2.221,14.939,3.6,5,10.406,6.71,16.262,5.8,8.138-1.265,14.729-7.01,20.959-11.957L458.971,113.9c7.609-6.041,15.14-12.2,22.846-18.114,6.267-4.81,13.915-9.475,22.077-6.905,3.29,1.036,6.607,3.488,7.429,7.012a9.024,9.024,0,0,1-3.236,8.742,5.55,5.55,0,0,1-8.119-1.018,9.495,9.495,0,0,1-.871-8.531c2.648-7.245,12.363-8,18.847-7.414A52.949,52.949,0,0,1,539.6,94.8c13.7,7.958,23.835,20.9,29.779,35.458,6.586,16.126,8.614,33.97,8.346,51.281-.055,3.531-.3,7.436-2.287,10.48-1.946,2.982-5.342,3.884-8.388,1.89-.992-.649-2.267-1.914-2.008-3.249.325-1.675,3.663-1.688,5-1.624a15.629,15.629,0,0,1,9.741,4.507c6.23,5.911,6.714,14.955,5.9,23-.892,8.828-3.436,17.608-2.426,26.545,1.656,14.641,13.669,22.777,25.469,29.508,6.043,3.447,12.218,6.743,17.652,11.128a72.7,72.7,0,0,1,14.39,15.661A79.105,79.105,0,0,1,654.278,338.6a72.356,72.356,0,0,1-1.645,20.915c-1.552,6.7-4,15.157-10.44,18.758a8.644,8.644,0,0,1-9.85-.884c-2.61-2.095-3.886-5.813-1.189-8.43,2.234-2.168,5.809-1.711,8.5-.83a21.316,21.316,0,0,1,8.19,5.382c4.611,4.46,10.01,9.936,17.025,8.511,1.3-.263.748-2.246-.547-1.983-8.469,1.72-13.575-8.124-19.821-11.913-4.522-2.744-12.245-4.784-15.779.567-3.813,5.774,2.318,12,8.016,12.748,7.408.967,12.544-6.277,15.031-12.255,5.769-13.866,5.948-30.125,2.419-44.564a79.485,79.485,0,0,0-21.988-38.511c-5.469-5.212-11.738-9.208-18.279-12.928-6.6-3.755-13.483-7.357-19.132-12.51a28.687,28.687,0,0,1-9.706-22.12c.061-9.607,3.149-18.93,2.957-28.555-.16-7.981-2.872-15.774-9.814-20.267a15.869,15.869,0,0,0-9.73-2.716c-1.4.115-3.377.352-4.534,1.231-.932.708-1.108,2.365-.92,3.437.446,2.545,2.853,4.313,5.191,5.021a7.434,7.434,0,0,0,8.028-2.369c2.248-2.6,3.029-6.059,3.347-9.394a99.132,99.132,0,0,0-.006-13.682c-.809-18.389-4.443-37.217-14-53.188-8.123-13.575-20.757-24.958-35.9-29.994-7.138-2.373-15.606-3.8-22.971-1.637-6.337,1.857-11.193,7.072-10.147,13.98.886,5.847,6.944,9.892,12.284,6.2a10.643,10.643,0,0,0,1.705-16.041c-5.161-5.405-13.578-5.366-20.018-2.619a48.886,48.886,0,0,0-10.624,6.707c-4.222,3.282-8.384,6.643-12.572,9.968l-50.449,40.053c-3.982,3.161-7.9,6.438-12.014,9.426-3.84,2.788-8.076,5.371-12.8,6.267-6.656,1.261-17.193-2.046-16.386-10.488.313-3.279,2.485-6.9,5.8-7.84,3.254-.922,6.326,1.172,7.535,4.135,2.667,6.533-.465,14-3.58,19.74a83.951,83.951,0,0,1-56.832,41.343c-8.894,1.748-17.622,1.406-26.615.86-8.717-.529-17.871-.475-25.641,4.068-6.371,3.725-10.621,10.48-9.6,18.008.887,6.537,6.129,11.533,12.891,10.981,5.675-.463,11.377-5.31,9.364-11.465-1.667-5.1-8.1-9.117-13.026-5.75-1.086.743-.058,2.526,1.038,1.776Z" transform="translate(936.231 22.627)" fill="#3f3d56"/>
    <path id="Path_209" data-name="Path 209" d="M893.391,506.7H843.555a2.94,2.94,0,0,0-2.937,2.937v31.027a2.94,2.94,0,0,0,2.937,2.937h49.835a2.94,2.94,0,0,0,2.937-2.937V509.639A2.94,2.94,0,0,0,893.391,506.7Z" transform="translate(755.787 -109.825)" fill="#cecee2"/>
    <path id="Path_210" data-name="Path 210" d="M893.391,506.7H843.555a2.94,2.94,0,0,0-2.937,2.937v31.027a2.94,2.94,0,0,0,2.937,2.937h49.835a2.94,2.94,0,0,0,2.937-2.937V509.639A2.94,2.94,0,0,0,893.391,506.7Zm.964,22.287a12.073,12.073,0,0,1-11.869,12.025c-5.057.066,2.8.091-3.3.091-13.946,0-28.488-.133-33.913-.22a2.736,2.736,0,0,1-2.679-2.725V509.641a.967.967,0,0,1,.964-.966h49.833a.967.967,0,0,1,.966.963Z" transform="translate(755.787 -109.825)" fill="#ababce"/>
    <path id="Path_211" data-name="Path 211" d="M887.8,480.644H849.826a1.632,1.632,0,0,0-1.534,1.082l-5.864,16.452a1.629,1.629,0,0,0,1.532,2.175l50.923.09h0a1.629,1.629,0,0,0,1.5-2.27l-.089.038.089-.038-7.09-16.542A1.626,1.626,0,0,0,887.8,480.644Z" transform="translate(755.248 -101.634)" fill="#ababce"/>
    <path id="Path_212" data-name="Path 212" d="M896.514,505.985a1.633,1.633,0,0,1-.132.642l-7.089,12.734a1.633,1.633,0,0,1-1.5.986H849.827a1.633,1.633,0,0,1-1.535-1.081l-5.863-12.643a1.628,1.628,0,0,1,.988-2.08,1.6,1.6,0,0,1,.543-.1l6.221-.012,2.539,0,33.408-.059,2.54,0,6.216-.012h0a1.629,1.629,0,0,1,1.629,1.629Z" transform="translate(755.248 -109.088)" fill="#ababce"/>
    <path id="Path_213" data-name="Path 213" d="M849.727,540.647c.753,0,11.092.632,11.092,1.385s-10.339,1.342-11.092,1.342a1.363,1.363,0,1,1,0-2.727Z" transform="translate(753.353 -120.497)" fill="#ababce"/>
    <path id="Path_214" data-name="Path 214" d="M889.029,466.046H857.014a3.24,3.24,0,0,0-3.236,3.236V508.3h37.616a1.607,1.607,0,0,0,.872-.253V469.282a3.24,3.24,0,0,0-3.236-3.236Z" transform="translate(751.65 -97.044)" fill="#cecee2"/>
    <path id="Path_215" data-name="Path 215" d="M877.973,469.873H860.429a2.95,2.95,0,0,0-2.948,2.946v36.687h33.408V482.788A12.93,12.93,0,0,0,877.973,469.873Z" transform="translate(750.486 -98.248)" fill="#e5f0ff"/>
    <path id="Path_216" data-name="Path 216" d="M887.477,522.926H865.453a.718.718,0,1,0,0,1.436h22.025a.718.718,0,0,0,0-1.436Z" transform="translate(748.206 -114.926)" fill="#d8e3f1"/>
    <path id="Path_217" data-name="Path 217" d="M887.477,518.785H865.452a.719.719,0,1,0,0,1.437h22.025a.719.719,0,1,0,0-1.437Z" transform="translate(748.207 -113.624)" fill="#d8e3f1"/>
    <path id="Path_218" data-name="Path 218" d="M875,514.646h-9.547a.718.718,0,1,0,0,1.436H875a.718.718,0,0,0,0-1.436Z" transform="translate(748.206 -112.323)" fill="#d8e3f1"/>
    <path id="Path_219" data-name="Path 219" d="M887.477,505.975H865.452a.719.719,0,1,0,0,1.437h22.025a.719.719,0,1,0,0-1.437Z" transform="translate(748.207 -109.597)" fill="#d8e3f1"/>
    <path id="Path_220" data-name="Path 220" d="M887.477,501.836H865.453a.718.718,0,1,0,0,1.436h22.025a.718.718,0,0,0,0-1.436Z" transform="translate(748.206 -108.296)" fill="#d8e3f1"/>
    <path id="Path_221" data-name="Path 221" d="M875,497.695h-9.547a.719.719,0,1,0,0,1.437H875a.719.719,0,1,0,0-1.437Z" transform="translate(748.207 -106.994)" fill="#d8e3f1"/>
    <path id="Path_222" data-name="Path 222" d="M887.477,489.025H865.452a.719.719,0,1,0,0,1.437h22.025a.719.719,0,1,0,0-1.437Z" transform="translate(748.207 -104.268)" fill="#d8e3f1"/>
    <path id="Path_223" data-name="Path 223" d="M887.477,484.886H865.452a.719.719,0,1,0,0,1.437h22.025a.719.719,0,1,0,0-1.437Z" transform="translate(748.207 -102.967)" fill="#d8e3f1"/>
    <path id="Path_224" data-name="Path 224" d="M875,480.745h-9.547a.719.719,0,1,0,0,1.437H875a.719.719,0,1,0,0-1.437Z" transform="translate(748.207 -101.665)" fill="#d8e3f1"/>
    <path id="Path_289" data-name="Path 289" d="M21.253,0A21.253,21.253,0,1,1,0,21.253,21.253,21.253,0,0,1,21.253,0Z" transform="translate(1364.757 202.022)" fill="#b28e8e"/>
    <path id="Path_225" data-name="Path 225" d="M547.609,227.784c-2.236-3.459-6.431-5.764-10.5-5.116a14.336,14.336,0,0,0-24.02-8.362,4.458,4.458,0,0,0-4.359-.436,9.192,9.192,0,0,0-3.542,2.843A20.629,20.629,0,0,0,502.3,237.7c-.5-1.807,1.314-3.507,3.143-3.912s3.749-.022,5.6-.286c2.378-.338,4.516-1.718,6.9-2.028a15.7,15.7,0,0,1,5.967.767,16.179,16.179,0,0,0,5.964.8c2-.238,4.587,7.359,4.552,12.709-.007,1.014.2,2.316,1.193,2.531,1.22.265,1.927-1.419,3.089-1.878a2.149,2.149,0,0,1,2.636,1.4,3.5,3.5,0,0,1-.669,3.137,10.354,10.354,0,0,1-2.51,2.177l.478.4a2.847,2.847,0,0,0,3.593.446,7.755,7.755,0,0,0,2.58-2.938,34.565,34.565,0,0,0,4.732-11.339A16.517,16.517,0,0,0,547.609,227.784Z" transform="translate(862.661 -16.678)" fill="#2f2e41"/>
    <path id="Path_226" data-name="Path 226" d="M295.719,690.65H284.241l-5.46-44.273h16.941Z" transform="translate(1115.221 -95.2)" fill="#b28e8e"/>
    <path id="Path_227" data-name="Path 227" d="M554.521,805.039h-35.3v-.446a13.739,13.739,0,0,1,13.737-13.738h0l6.447-4.891,12.029,4.892h3.081Z" transform="translate(856.823 -197.616)" fill="#2f2e41"/>
    <path id="Path_228" data-name="Path 228" d="M314.991,665.466l-9,7.117-31.741-31.344,13.29-10.506Z" transform="translate(1116.646 -90.282)" fill="#b28e8e"/>
    <path id="Path_229" data-name="Path 229" d="M597.415,775l-27.69,21.889-.277-.35a13.739,13.739,0,0,1,2.257-19.3h0l2.024-7.836,12.471-3.623,2.417-1.911Z" transform="translate(841.965 -190.67)" fill="#2f2e41"/>
    <path id="Path_230" data-name="Path 230" d="M216.6,403.843l-.7,12.919,3.408,4.117-.391,12.922,3.307,8.458,2.326,26.908,32.572,112.276,29.351-9.414L254.418,467.368l38.563-.963,1.3-59.015-6.834-13.211Z" transform="translate(1134.99 -15.917)" fill="#2f2e41"/>
    <path id="Path_231" data-name="Path 231" d="M304.832,484.522l3.709,8.9L294.2,618.7l-20.12,1.469-8.688-140.057Z" transform="translate(1119.43 -42.931)" fill="#2f2e41"/>
    <path id="Path_232" data-name="Path 232" d="M274.659,213.085l-6.607-9.145-21.333.855-.409,7.041L232.139,345.688l13.917-.312,17.276,4.034,33.228-11.63Z" transform="translate(1129.884 43.888)" fill="#ff4500"/>
    <path id="Path_233" data-name="Path 233" d="M491.749,437.158H459.033l8.536-60.249,3.461-24.421s-2.45-17.454-3.636-26.573a5.162,5.162,0,0,1,.486-2.839,9.363,9.363,0,0,1,1.5-2.268c3.979-4.589,12.93-8.568,18.543-10.746,2.891-1.115,4.9-1.756,4.9-1.756l7.621-7.472C511.387,314.5,491.749,437.158,491.749,437.158Z" transform="translate(875.746 -45.107)" fill="#3f3d56"/>
    <path id="Path_234" data-name="Path 234" d="M551.558,295.393l10.379,5.948s30.738,5.049,33.727,16.593L584.35,352.089v71.781l-27.429,11S533.259,318.9,551.558,295.393Z" transform="translate(848.841 -43.397)" fill="#3f3d56"/>
    <path id="Path_235" data-name="Path 235" d="M270.463,475.879l-5.071,58.737,8.634,68.36" transform="translate(1119.43 -41.601)" opacity="0.4"/>
    <path id="Path_236" data-name="Path 236" d="M359.464,401.044a7.122,7.122,0,0,1,10.579,2.707l25.147-2.844-5.96,11.723-22.966.9a7.16,7.16,0,0,1-6.8-12.489Z" transform="translate(907.996 -76.189)" fill="#b28e8e"/>
    <path id="Path_237" data-name="Path 237" d="M209.524,241.42l7.2,4.3-40.3,56.778-49.193,4.18-1.959-14.045,36.245-10.874,17.916-34.726Z" transform="translate(1163.481 32.105)" fill="#3f3d56"/>
    <path id="Path_238" data-name="Path 238" d="M712.344,394.044a7.121,7.121,0,0,0-10.579,2.707l-25.147-2.844,5.96,11.723,22.966.9a7.16,7.16,0,0,0,6.8-12.489Z" transform="translate(807.344 -73.989)" fill="#b28e8e"/>
    <path id="Path_239" data-name="Path 239" d="M304.857,234.42l-7.2,4.3,40.3,56.778,49.193,4.18,1.958-14.045-36.245-10.874-17.916-34.726Z" transform="translate(1109.286 34.306)" fill="#3f3d56"/>
    <path id="Path_240" data-name="Path 240" d="M413.214,291.937v-.75H400.634V273.681h-.749v17.505H385.469V277.668q-.378.3-.746.612v12.907H375.2c-.106.248-.208.5-.3.75h9.826v14.709h-12.2c.012.252.029.5.05.75h12.15v11.735h-9.1c.112.252.229.5.352.746h8.751v9.865h.747v-9.865h14.417v9.865h.748v-9.865h12.579v-.747H400.634A11.733,11.733,0,0,1,412.371,307.4h.842v-.75H400.634V291.937Zm-13.328,27.195H385.469V307.4h14.417Zm0-12.485H385.469v-.294a14.416,14.416,0,0,1,14.416-14.415Z" transform="translate(902.942 -36.571)" fill="#cecee2"/>
    <path id="Path_241" data-name="Path 241" d="M590.544,147.321a.4.4,0,0,1-.523-.217l-1.042-2.517a.4.4,0,1,1,.74-.306l1.042,2.517A.4.4,0,0,1,590.544,147.321Z" transform="translate(834.904 4.186)" fill="#3f3d56"/>
    <path id="Path_242" data-name="Path 242" d="M609.044,116.854h0l-3.109-7.513a4.706,4.706,0,0,0-6.148-2.549h0l-15.918,6.587a4.706,4.706,0,0,0-2.549,6.148h0l17.057,41.218a4.706,4.706,0,0,0,6.148,2.549h0l15.918-6.587a4.706,4.706,0,0,0,2.549-6.148h0L611.258,122.2h0a.3.3,0,0,0,.161-.388l-1.986-4.8a.3.3,0,0,0-.388-.161Z" transform="translate(837.415 16.006)" fill="#3f3d56"/>
    <path id="Path_243" data-name="Path 243" d="M605.618,110.28l17.033,41.159a3.512,3.512,0,0,1-1.868,4.575.19.19,0,0,1-.034.017l-16,6.619a3.516,3.516,0,0,1-4.593-1.9l-17.033-41.159A3.514,3.514,0,0,1,585.034,115l1.94-.8a1.67,1.67,0,0,0,2.31,1.535l9.119-3.774a1.627,1.627,0,0,0,.531-.357,1.666,1.666,0,0,0,.014-2.36l2.08-.861a3.514,3.514,0,0,1,4.589,1.9Z" transform="translate(836.818 15.479)" fill="#ff4500"/>
    <path id="Path_244" data-name="Path 244" d="M587.953,141.058a.4.4,0,0,1-.523-.217l-1.042-2.517a.4.4,0,0,1,.74-.306l1.042,2.517A.4.4,0,0,1,587.953,141.058Z" transform="translate(835.719 6.155)" fill="#3f3d56"/>
    <path id="Path_245" data-name="Path 245" d="M584.9,133.976a.4.4,0,0,1-.523-.217l-1.042-2.517a.4.4,0,1,1,.74-.306l1.042,2.517A.4.4,0,0,1,584.9,133.976Z" transform="translate(836.68 8.381)" fill="#3f3d56"/>
    <path id="Path_246" data-name="Path 246" d="M594.166,114.773a.4.4,0,0,1,.217-.523l2.517-1.042a.4.4,0,0,1,.306.74l-2.517,1.042A.4.4,0,0,1,594.166,114.773Z" transform="translate(833.274 13.886)" fill="#e5f0ff"/>
    <path id="Path_290" data-name="Path 290" d="M.4,0A.4.4,0,1,1,0,.4.4.4,0,0,1,.4,0Z" transform="translate(1431.333 126.482)" fill="#e5f0ff"/>
    <path id="Path_247" data-name="Path 247" d="M711.7,340.658l-.152,0a3.7,3.7,0,0,1-2.972-1.69,41.754,41.754,0,0,0-8.79-9.521c-2.063-1.649-4.218-3.182-6.3-4.665-5.378-3.824-10.442-7.425-13.254-12.4-6.129-10.851,1.089-25.964,11.4-32.742,11.566-7.6,26.78-8.794,41.5-8.951q2.294-.024,4.591-.024h0a437.778,437.778,0,0,1,79.061,7.229c8.672,1.6,17.75,3.56,25.045,8.317,7.251,4.729,11.659,12.175,11.229,18.971-.628,9.921-11.145,17.334-20.722,19.273-9.128,1.846-18.611.6-28.65-.723-2.216-.291-4.508-.593-6.774-.855-24.628-2.847-70.893,5.927-72.85,6.3l-1.942.372-7.535,9.7a3.616,3.616,0,0,1-2.882,1.415Z" transform="translate(806.918 -35.621)" fill="#ff4500"/>
    <path id="Path_248" data-name="Path 248" d="M838.351,300.085H734.258a2.265,2.265,0,0,1,0-4.53H838.351a2.265,2.265,0,0,1,0,4.53Z" transform="translate(789.936 -43.448)" fill="#e5f0ff"/>
    <path id="Path_249" data-name="Path 249" d="M838.35,320.361H734.257a2.265,2.265,0,1,1,0-4.53h104.1a2.265,2.265,0,1,1,0,4.53Z" transform="translate(789.937 -49.822)" fill="#e5f0ff"/>
    <path id="Path_250" data-name="Path 250" d="M746.388,340.637h-12.13a2.265,2.265,0,0,1,0-4.53h12.131a2.265,2.265,0,0,1,0,4.53Z" transform="translate(789.936 -56.196)" fill="#e5f0ff"/>
    <path id="Path_291" data-name="Path 291" d="M11.009,0A11.009,11.009,0,1,1,0,11.009,11.009,11.009,0,0,1,11.009,0Z" transform="translate(1508.893 298.808)" fill="#fff"/>
    <path id="Path_251" data-name="Path 251" d="M723.928,385.759a11.143,11.143,0,1,1,11.144-11.144A11.144,11.144,0,0,1,723.928,385.759Z" transform="translate(795.975 -64.799)" fill="#3f3d56"/>
    <path id="Path_252" data-name="Path 252" d="M726.33,381.989l-.07,0a1.44,1.44,0,0,1-1.067-.555l-1.84-2.365a1.44,1.44,0,0,1,.253-2.021l.066-.052a1.44,1.44,0,0,1,2.022.253,1.05,1.05,0,0,0,1.591.077l3.736-3.944a1.442,1.442,0,0,1,2.036-.055l.061.058a1.44,1.44,0,0,1,.055,2.036l-5.8,6.119A1.439,1.439,0,0,1,726.33,381.989Z" transform="translate(792.748 -67.772)" fill="#e5f0ff"/>
    <path id="Path_253" data-name="Path 253" d="M426.114,149.589l-6.735-40.5a3.138,3.138,0,0,1,2.578-3.606l30.59-5.087a3.138,3.138,0,0,1,3.606,2.578l6.735,40.5a3.138,3.138,0,0,1-2.578,3.606l-30.59,5.087A3.138,3.138,0,0,1,426.114,149.589Z" transform="translate(888.225 17.919)" fill="#3f3d56"/>
    <path id="Path_254" data-name="Path 254" d="M427.673,138.243l-4.33-26.04a2.939,2.939,0,0,1,2.414-3.377l26.289-4.372a2.939,2.939,0,0,1,3.378,2.414l5.994,36.043A2.939,2.939,0,0,1,459,146.289L442.718,149a13.091,13.091,0,0,1-15.044-10.754Z" transform="translate(886.978 16.641)" fill="#e5f0ff"/>
    <path id="Path_255" data-name="Path 255" d="M431.314,122.417a2.872,2.872,0,0,1,2.359-3.3l18.237-3.033a2.869,2.869,0,1,1,.941,5.66l-18.237,3.033A2.872,2.872,0,0,1,431.314,122.417Z" transform="translate(884.472 12.985)" fill="#ff4500"/>
    <path id="Path_256" data-name="Path 256" d="M433.449,135.258a2.872,2.872,0,0,1,2.359-3.3l18.237-3.033a2.869,2.869,0,0,1,.941,5.66l-18.237,3.033A2.872,2.872,0,0,1,433.449,135.258Z" transform="translate(883.801 8.948)" fill="#ff4500"/>
    <path id="Path_257" data-name="Path 257" d="M435.584,148.1a2.872,2.872,0,0,1,2.359-3.3l18.237-3.033a2.869,2.869,0,0,1,.941,5.66l-18.237,3.033a2.872,2.872,0,0,1-3.3-2.359Z" transform="translate(883.129 4.911)" fill="#ff4500"/>
    <path id="Path_258" data-name="Path 258" d="M654.059,766.066l.485-10.9a35.211,35.211,0,0,1,16.423-4.157c-7.888,6.449-6.9,18.879-12.249,27.551a21.179,21.179,0,0,1-15.53,9.787l-6.6,4.041a35.488,35.488,0,0,1,7.48-28.757,34.278,34.278,0,0,1,6.3-5.854C651.947,761.944,654.059,766.066,654.059,766.066Z" transform="translate(820.104 -186.627)" fill="#cecee2"/>
    <path id="Path_259" data-name="Path 259" d="M657.571,812.586a1.062,1.062,0,0,1-1.065,1.065H369.878a1.065,1.065,0,1,1,0-2.13H656.506a1.062,1.062,0,0,1,1.065,1.065Z" transform="translate(904.108 -205.651)" fill="rgba(171,171,206,0.5)"/>
    <path id="Path_260" data-name="Path 260" d="M350.211,393.316c-5.083-.1-32.389-.885-36.867-.692-.253-.887-8.742,9.991-8.948,10.059a1.24,1.24,0,0,0,.415,1.994c.5.3,44.519-.511,45.053-.4a1.224,1.224,0,0,0,1.093-.712l.294-.659c.031-1.127.4-6.889.068-7.874a1.219,1.219,0,0,0-1.108-1.71Z" transform="translate(924.465 -73.947)" fill="#3f3d56"/>
    <path id="Path_261" data-name="Path 261" d="M351.252,407.634c-.258.621-.589,1.4-1.387,1.372l-44.588.5A1.23,1.23,0,0,1,304.2,407.7Z" transform="translate(924.464 -78.682)" opacity="0.17"/>
    <path id="Path_262" data-name="Path 262" d="M306.216,359.875c-.48-.83-12.4-59.813-13.4-60.307l-8.139-9.956-.727-.547c-1.012-.556-3.438-.18-3.219,1.365h0c1.912,9.167,14.21,61.377,14.48,69.516l1.481,10.37a1.277,1.277,0,0,0,1.577,1.049,2.456,2.456,0,0,0,1.973-1.426C300.356,369.574,306.774,360.087,306.216,359.875Z" transform="translate(931.801 -41.331)" fill="#3f3d56"/>
    <path id="Path_263" data-name="Path 263" d="M284.685,289.62l15.566,80.329c-.521,1.318-2.956,2.241-3.524.512-.01,0-15.969-79.975-15.985-80.022C280.572,288.514,283.752,288.453,284.685,289.62Z" transform="translate(931.797 -41.338)" opacity="0.17"/>
    <path id="Path_264" data-name="Path 264" d="M20.55,209.392l7.906,11.02,8.873,42.142-4.125,3.6Z" transform="translate(1196.4 42.174)" fill="#ff4500"/>
    <path id="Path_265" data-name="Path 265" d="M363.93,399.55l2.187.089a8.6,8.6,0,0,1,.315-1.892c.329-1.563.624-3.421-.74-3.414-.926-.089-1.241,1.083-1.406,2.359A18.047,18.047,0,0,1,363.93,399.55Z" transform="translate(905.643 -74.499)" fill="#2f2e41"/>
    <path id="Path_266" data-name="Path 266" d="M345.63,396.371l1.474.055.713.027c-.014-.782.35-2.393-.535-2.79a1.1,1.1,0,0,0-.446-.089c-.83-.048-1.076.583-1.152,1.31-.048.439-.027.905-.041,1.268C345.644,396.227,345.637,396.3,345.63,396.371Z" transform="translate(911.396 -74.261)" fill="#2f2e41"/>
    <path id="Path_267" data-name="Path 267" d="M339.26,396.111l1.481.062.706.027c-.014-.9.459-2.859-.98-2.886-1.33-.075-1.159,1.618-1.193,2.578C339.274,395.967,339.267,396.042,339.26,396.111Z" transform="translate(913.398 -74.179)" fill="#2f2e41"/>
    <path id="Path_268" data-name="Path 268" d="M332.89,395.861l1.474.055.713.027c-.014-.891.459-2.852-.98-2.88-1.33-.082-1.159,1.611-1.193,2.578C332.9,395.717,332.9,395.792,332.89,395.861Z" transform="translate(915.401 -74.1)" fill="#2f2e41"/>
    <path id="Path_269" data-name="Path 269" d="M326.52,395.6l1.481.062.706.027c-.014-.9.459-2.852-.98-2.887-1.33-.075-1.159,1.618-1.193,2.578C326.534,395.457,326.527,395.533,326.52,395.6Z" transform="translate(917.403 -74.019)" fill="#2f2e41"/>
    <path id="Path_270" data-name="Path 270" d="M320.15,395.351l1.474.055.713.027c-.014-.823.384-2.544-.672-2.839h-.007a1,1,0,0,0-.3-.041,1.032,1.032,0,0,0-.37.034h-.007c-.919.24-.789,1.68-.816,2.544C320.164,395.206,320.157,395.282,320.15,395.351Z" transform="translate(919.406 -73.939)" fill="#2f2e41"/>
    <path id="Path_271" data-name="Path 271" d="M357.5,394.671l2.187.089c0-.082,0-.171.007-.274a9.14,9.14,0,0,0,.027-1.57c-.075-.576-.322-1.028-1.015-1.042-.706-.041-.987.411-1.1.994a2.129,2.129,0,0,0-.055.3v.007C357.5,393.711,357.534,394.287,357.5,394.671Z" transform="translate(907.665 -73.726)" fill="#2f2e41"/>
    <path id="Path_272" data-name="Path 272" d="M351.13,394.414l2.187.089a15.958,15.958,0,0,0,.041-1.769c-.062-.6-.3-1.1-1.022-1.111-.727-.048-1.008.446-1.118,1.056C351.116,393.269,351.171,393.975,351.13,394.414Z" transform="translate(909.667 -73.647)" fill="#2f2e41"/>
    <path id="Path_273" data-name="Path 273" d="M344.76,394.161l.651.027,1.536.062c-.007-.329.055-.809.062-1.282a2.9,2.9,0,0,0-.014-.425c-.055-.638-.281-1.166-1.028-1.179-.761-.041-1.028.487-1.124,1.131C344.746,393.07,344.8,393.736,344.76,394.161Z" transform="translate(911.669 -73.566)" fill="#2f2e41"/>
    <path id="Path_274" data-name="Path 274" d="M357.56,400.411l2.187.082c-.007-.891.459-2.852-.98-2.88C357.327,397.524,357.642,399.513,357.56,400.411Z" transform="translate(907.646 -75.531)" fill="#2f2e41"/>
    <path id="Path_275" data-name="Path 275" d="M351.19,400.151l2.187.089c-.007-.9.459-2.859-.98-2.887C350.957,397.271,351.272,399.26,351.19,400.151Z" transform="translate(909.648 -75.449)" fill="#2f2e41"/>
    <path id="Path_276" data-name="Path 276" d="M344.82,399.9l2.187.082c-.007-.638.233-1.817-.158-2.448a.9.9,0,0,0-.823-.432.964.964,0,0,0-.638.158C344.69,397.72,344.889,399.173,344.82,399.9Z" transform="translate(911.65 -75.369)" fill="#2f2e41"/>
    <path id="Path_277" data-name="Path 277" d="M338.45,399.639l2.187.089c-.007-.638.226-1.81-.151-2.448a.907.907,0,0,0-.83-.439.952.952,0,0,0-.638.158C338.32,397.473,338.519,398.92,338.45,399.639Z" transform="translate(913.653 -75.287)" fill="#2f2e41"/>
    <path id="Path_278" data-name="Path 278" d="M332.08,399.389l2.187.082c-.007-.638.233-1.817-.158-2.448a.9.9,0,0,0-.823-.432.963.963,0,0,0-.638.158C331.95,397.209,332.149,398.663,332.08,399.389Z" transform="translate(915.656 -75.208)" fill="#2f2e41"/>
    <path id="Path_279" data-name="Path 279" d="M325.71,399.13l2.187.089c-.007-.638.226-1.81-.151-2.448a.9.9,0,0,0-.83-.439.953.953,0,0,0-.638.158C325.58,396.963,325.779,398.41,325.71,399.13Z" transform="translate(917.658 -75.127)" fill="#2f2e41"/>
    <path id="Path_280" data-name="Path 280" d="M319.34,398.88l2.187.082c-.007-.638.226-1.81-.158-2.448a.9.9,0,0,0-.823-.432.963.963,0,0,0-.638.158C319.21,396.706,319.409,398.152,319.34,398.88Z" transform="translate(919.661 -75.048)" fill="#2f2e41"/>
  </g>
</svg>
