<svg xmlns="http://www.w3.org/2000/svg" width="30" height="30" viewBox="0 0 30 30"><path d="M-7356.4-3426h-12.5a8.76,8.76,0,0,1-8.75-8.75v-12.5a8.758,8.758,0,0,1,8.75-8.75h12.5a8.759,8.759,0,0,1,8.751,8.75v12.5a8.761,8.761,0,0,1-8.75,8.75Zm-2.5-16.25a1.25,1.25,0,0,0-1.25,1.25,1.25,1.25,0,0,0,1.25,1.25h1.25v1.25a1.249,1.249,0,0,0,1.249,1.25,1.251,1.251,0,0,0,1.251-1.25v-1.25h1.25a1.249,1.249,0,0,0,1.249-1.25,1.25,1.25,0,0,0-1.249-1.25h-1.25v-1.25a1.251,1.251,0,0,0-1.251-1.25,1.249,1.249,0,0,0-1.249,1.25v1.25Zm-12.5,0a1.251,1.251,0,0,0-1.251,1.25,1.251,1.251,0,0,0,1.251,1.25h1.249v1.25a1.25,1.25,0,0,0,1.25,1.25,1.251,1.251,0,0,0,1.251-1.25v-1.25h1.249a1.25,1.25,0,0,0,1.25-1.25,1.25,1.25,0,0,0-1.25-1.25h-1.249v-1.25a1.251,1.251,0,0,0-1.251-1.25,1.25,1.25,0,0,0-1.25,1.25v1.25Z" transform="translate(7377.65 3456)" fill="#96aee6"/></svg>