<svg xmlns="http://www.w3.org/2000/svg" viewBox="0 0 24 24"><defs><style>.cls-1{fill:#ababce;}</style></defs><g id="Layer_2" data-name="Layer 2"><g id="Layer_1-2" data-name="Layer 1"><path class="cls-1" d="M17.44,0H6.56A6.56,6.56,0,0,0,0,6.56V17.44A6.56,6.56,0,0,0,6.56,24H17.44A6.56,6.56,0,0,0,24,17.44V6.56A6.56,6.56,0,0,0,17.44,0ZM10.05,13H7v3.1a.95.95,0,0,1-1.9,0V13H2a.95.95,0,0,1,0-1.9h3.1V8A1,1,0,1,1,7,8v3.1h3.1a.95.95,0,0,1,0,1.9Zm11.5,0h-3.1v3.1a.95.95,0,0,1-1.9,0V13h-3.1a.95.95,0,0,1,0-1.9h3.1V8a.95.95,0,1,1,1.9,0v3.1h3.1a.95.95,0,0,1,0,1.9Z"/></g></g></svg>