<svg xmlns="http://www.w3.org/2000/svg" width="24" height="24" viewBox="0 0 24 24">
  <path id="more" d="M-7360.645-3432h-10a7.009,7.009,0,0,1-7-7v-10a7.008,7.008,0,0,1,7-7h10a7.007,7.007,0,0,1,7,7v10A7.008,7.008,0,0,1-7360.645-3432Zm-2-13a1,1,0,0,0-1,1,1,1,0,0,0,1,1h1v1a1,1,0,0,0,1,1,1,1,0,0,0,1-1v-1h1a1,1,0,0,0,1-1,1,1,0,0,0-1-1h-1v-1a1,1,0,0,0-1-1,1,1,0,0,0-1,1v1Zm-10,0a1,1,0,0,0-1,1,1,1,0,0,0,1,1h1v1a1,1,0,0,0,1,1,1,1,0,0,0,1-1v-1h1a1,1,0,0,0,1-1,1,1,0,0,0-1-1h-1v-1a1,1,0,0,0-1-1,1,1,0,0,0-1,1v1Z" transform="translate(7377.645 3456.001)" fill="#a1b6e6"/>
</svg>
