<svg xmlns="http://www.w3.org/2000/svg" width="26.246" height="30" viewBox="0 0 26.246 30"><g transform="translate(-0.1 -0.136)"><path d="M24.522,6.315,15.053.695a3.568,3.568,0,0,0-3.653,0L1.931,6.318A3.777,3.777,0,0,0,.1,9.568V20.815a3.777,3.777,0,0,0,1.827,3.249L11.4,29.688a3.568,3.568,0,0,0,3.653,0l9.469-5.624a3.778,3.778,0,0,0,1.827-3.249V9.568A3.777,3.777,0,0,0,24.522,6.315Z" transform="translate(0 -0.055)" fill="#fefefe" fill-rule="evenodd"/><path d="M11.731,29.106,2.262,23.482a3.117,3.117,0,0,1-1.5-2.677V9.568a3.116,3.116,0,0,1,1.5-2.677l9.469-5.624a2.921,2.921,0,0,1,2.991,0l9.469,5.624a3.1,3.1,0,0,1,1.455,2.165c-.314-.67-1.022-.852-1.847-.375l-8.958,5.534A3.1,3.1,0,0,0,12.9,16.949V27.988c0,.806.325,1.328.825,1.481A2.834,2.834,0,0,1,11.73,29.1M24.522,6.315,15.053.695a3.567,3.567,0,0,0-3.653,0L1.931,6.318A3.777,3.777,0,0,0,.1,9.568V20.809a3.777,3.777,0,0,0,1.827,3.249L11.4,29.682a3.568,3.568,0,0,0,3.653,0l9.469-5.624a3.777,3.777,0,0,0,1.827-3.249V9.568a3.777,3.777,0,0,0-1.827-3.249" transform="translate(0 -0.055)" fill="#3e474a" fill-rule="evenodd"/><path d="M61.45,65.8l-2.358,1.41a.174.174,0,0,0-.109.152v.617c0,.075.05.106.112.07L61.49,66.6a.189.189,0,0,0,.072-.181v-.545c0-.075-.05-.106-.112-.07" transform="translate(-39.41 -43.961)" fill="#47b353" fill-rule="evenodd"/><path d="M47.758,50.1c.076-.039.139.009.14.109l.007.816a1.507,1.507,0,0,1,.907-.11c.059.015.084.095.06.189l-.18.722a.31.31,0,0,1-.081.144.191.191,0,0,1-.047.035.107.107,0,0,1-.071.008,1.2,1.2,0,0,0-.875.141,1.1,1.1,0,0,0-.646.972c0,.375.194.484.851.5.875.015,1.25.4,1.262,1.278a3.134,3.134,0,0,1-1.16,2.363l.015.807a.3.3,0,0,1-.139.25l-.479.275c-.076.039-.14-.009-.14-.106l-.009-.795a1.557,1.557,0,0,1-1.09.1c-.05-.02-.071-.094-.051-.177l.174-.73a.3.3,0,0,1,.086-.151.181.181,0,0,1,.045-.032.1.1,0,0,1,.077-.009,1.333,1.333,0,0,0,1-.125,1.311,1.311,0,0,0,.74-1.134c0-.41-.226-.581-.767-.585-.687,0-1.328-.134-1.34-1.146a2.941,2.941,0,0,1,1.111-2.25l-.009-.815a.294.294,0,0,1,.139-.25Z" transform="translate(-30.739 -33.45)" fill="#fefefe" fill-rule="evenodd"/></g></svg>