<svg xmlns="http://www.w3.org/2000/svg" width="21" height="24" viewBox="0 0 21 24"><g transform="translate(-0.104 -0.136)"><path d="M19.642,5.091,12.065.594a2.855,2.855,0,0,0-2.923,0l-7.577,4.5A3.022,3.022,0,0,0,.1,7.694v9a3.022,3.022,0,0,0,1.462,2.6l7.577,4.5a2.855,2.855,0,0,0,2.923,0l7.577-4.5a3.023,3.023,0,0,0,1.462-2.6v-9A3.022,3.022,0,0,0,19.642,5.091Z" transform="translate(0 -0.055)" fill="#fefefe" fill-rule="evenodd"/><path d="M9.407,23.328l-7.577-4.5a2.494,2.494,0,0,1-1.2-2.142V7.694a2.493,2.493,0,0,1,1.2-2.142l7.577-4.5a2.337,2.337,0,0,1,2.393,0l7.577,4.5a2.478,2.478,0,0,1,1.164,1.732c-.251-.536-.818-.682-1.478-.3l-7.168,4.428A2.481,2.481,0,0,0,10.341,13.6v8.833c0,.645.26,1.063.66,1.185a2.268,2.268,0,0,1-1.595-.291M19.642,5.091,12.065.594a2.854,2.854,0,0,0-2.923,0l-7.577,4.5A3.022,3.022,0,0,0,.1,7.694v8.995a3.022,3.022,0,0,0,1.462,2.6l7.577,4.5a2.855,2.855,0,0,0,2.923,0l7.577-4.5a3.022,3.022,0,0,0,1.462-2.6V7.694a3.022,3.022,0,0,0-1.462-2.6" transform="translate(0 -0.055)" fill="#3e474a" fill-rule="evenodd"/><path d="M60.957,65.8,59.07,66.928a.139.139,0,0,0-.087.122v.494c0,.06.04.085.09.056l1.916-1.164a.151.151,0,0,0,.058-.145v-.436c0-.06-.04-.085-.09-.056" transform="translate(-43.301 -48.295)" fill="#47b353" fill-rule="evenodd"/><path d="M47.412,50.1c.061-.031.111.007.112.087l.006.653a1.206,1.206,0,0,1,.726-.088c.047.012.067.076.048.151l-.144.578a.248.248,0,0,1-.065.115.153.153,0,0,1-.038.028A.086.086,0,0,1,48,51.63a.96.96,0,0,0-.7.113.878.878,0,0,0-.517.778c0,.3.155.387.681.4.7.012,1,.318,1.01,1.023a2.508,2.508,0,0,1-.928,1.891l.012.646a.237.237,0,0,1-.111.2l-.383.22c-.061.031-.112-.007-.112-.085l-.007-.636a1.246,1.246,0,0,1-.872.084c-.04-.016-.057-.075-.041-.142l.139-.584a.242.242,0,0,1,.069-.121.145.145,0,0,1,.036-.026.076.076,0,0,1,.062-.007,1.067,1.067,0,0,0,.8-.1,1.049,1.049,0,0,0,.592-.907c0-.328-.181-.465-.614-.468-.55,0-1.063-.107-1.072-.917a2.353,2.353,0,0,1,.889-1.8l-.007-.652a.235.235,0,0,1,.111-.2Z" transform="translate(-33.774 -36.748)" fill="#fefefe" fill-rule="evenodd"/></g></svg>