<svg xmlns="http://www.w3.org/2000/svg" width="21.714" height="24" viewBox="0 0 21.714 24"><g transform="translate(0 0)"><path d="M10.23.164a1.284,1.284,0,0,1,1.253,0l9.6,5.391a1.211,1.211,0,0,1,.627,1.055V17.391a1.213,1.213,0,0,1-.627,1.055l-9.6,5.391a1.284,1.284,0,0,1-1.253,0l-9.6-5.391A1.212,1.212,0,0,1,0,17.391V6.61A1.213,1.213,0,0,1,.627,5.555L10.23.164Z" transform="translate(0 0)" fill="#004482" fill-rule="evenodd"/><path d="M.174,17.945A.983.983,0,0,1,0,17.289V6.569A1.2,1.2,0,0,1,.625,5.52L10.2.16a1.377,1.377,0,0,1,1.3,0c1.91,1.07,7.641,4.262,9.551,5.332a1.2,1.2,0,0,1,.377.329Z" transform="translate(0 0)" fill="#659ad2" fill-rule="evenodd"/><path d="M13,7a8,8,0,1,1-8,8,8,8,0,0,1,8-8Zm0,4a4,4,0,1,1-4,4A4,4,0,0,1,13,11Z" transform="translate(-2.143 -3)" fill="#fff" fill-rule="evenodd"/><path d="M29.388,10.205a1.312,1.312,0,0,1,.289,1.019c0,2.169-.018,8.337.005,10.505a1.241,1.241,0,0,1-.185.644l-10.905-6Z" transform="translate(-7.968 -4.374)" fill="#00599c" fill-rule="evenodd"/></g></svg>