<svg xmlns="http://www.w3.org/2000/svg" width="27.154" height="30" viewBox="0 0 27.154 30"><g transform="translate(0.004 0.003)"><path d="M12.786.2a1.6,1.6,0,0,1,1.566,0l12,6.738a1.514,1.514,0,0,1,.784,1.319V21.736a1.516,1.516,0,0,1-.784,1.319l-12,6.738a1.6,1.6,0,0,1-1.566,0l-12-6.738A1.515,1.515,0,0,1,0,21.736V8.261A1.516,1.516,0,0,1,.784,6.943Z" transform="translate(0.001 0.001)" fill="#004482" fill-rule="evenodd"/><path d="M.219,22.429A1.229,1.229,0,0,1,0,21.609V8.211A1.5,1.5,0,0,1,.782,6.9L12.749.2a1.721,1.721,0,0,1,1.625,0c2.387,1.337,9.55,5.327,11.937,6.664a1.5,1.5,0,0,1,.471.411Z" transform="translate(0)" fill="#659ad2" fill-rule="evenodd"/><path d="M15,7A10,10,0,1,1,5,17,10,10,0,0,1,15,7Zm0,5a5,5,0,1,1-5,5,5,5,0,0,1,5-5Z" transform="translate(-1.428 -2)" fill="#fff" fill-rule="evenodd"/><path d="M32.085,10.2a1.64,1.64,0,0,1,.361,1.274c0,2.711-.022,10.42.006,13.129a1.551,1.551,0,0,1-.231.8l-13.629-7.5Z" transform="translate(-5.313 -2.916)" fill="#00599c" fill-rule="evenodd"/></g></svg>