<svg xmlns="http://www.w3.org/2000/svg" xmlns:xlink="http://www.w3.org/1999/xlink" width="52.844" height="30" viewBox="0 0 52.844 30"><defs><clipPath id="a"><path d="M43.555,2v9.529H39v4.765H35.182c-.016.138-.029.276-.043.414a12.8,12.8,0,0,0,1.25,7.036l.35.625a9.564,9.564,0,0,0,.713,1.075c.257.345.349.535.511.764,2.75,3.094,6.856,4.584,11.594,4.584,10.493,0,19.4-4.649,23.338-15.09,2.8.287,5.477-.43,6.7-2.816a6.593,6.593,0,0,0-5.891-.039L77.528,2l-14.92,9.529h-4.76V2Z" transform="translate(-35.066 -2)"/></clipPath></defs><path d="M55.333,9.474H60.07v4.843h2.395a10.386,10.386,0,0,0,3.291-.553,8.429,8.429,0,0,0,1.6-.722,5.94,5.94,0,0,1-1.11-3.063A6.467,6.467,0,0,1,67.408,5.42l.5-.576.594.477a7.542,7.542,0,0,1,2.971,4.789,7.24,7.24,0,0,1,5.5.511l.65.375-.343.669c-1.342,2.619-4.151,3.429-6.891,3.285C66.288,25.165,57.36,30,46.535,30c-5.6,0-10.721-2.09-13.646-7.052-.171-.309-.318-.625-.474-.948a13.736,13.736,0,0,1-1.094-6.967l.066-.716h4.051V9.474h4.736V4.738h9.474V0h5.684V9.474" transform="translate(-24.78)" fill="#394d54"/><g transform="translate(7.255 0.415)" clip-path="url(#a)"><g transform="translate(18.403 -4.361)"><path d="M123.859,3.811h4.1V7.922h-4.1Z" transform="translate(-123.859 -3.811)" fill="#00acd3"/><path d="M123.859,26.677h4.1v4.1h-4.1Z" transform="translate(-123.859 -21.94)" fill="#20c2ef"/><path d="M126.292,8.885V5.461m.616,3.421V5.461m.625,3.421V5.461m.625,3.421V5.461m.625,3.421V5.461m.606,3.424V5.461" transform="translate(-125.788 -5.12)" stroke="#394d54" stroke-width="0.25"/><path d="M126.292,8.885V5.461m.616,3.421V5.461m.625,3.421V5.461m.625,3.421V5.461m.625,3.421V5.461m.606,3.424V5.461" transform="translate(-125.788 -0.382)" stroke="#394d54" stroke-width="0.25"/><g transform="translate(4.736)"><path d="M123.859-19.523h4.1v-4.105h-4.1Z" transform="translate(-123.859 28.365)" fill="#00acd3"/><path d="M123.859-42.389h4.1v-4.1h-4.1Z" transform="translate(-123.859 46.494)" fill="#20c2ef"/><path d="M126.292-21.977v3.421m.616-3.421v3.421m.625-3.421v3.421m.625-3.421v3.421m.625-3.421v3.421m.615-3.421v3.421" transform="translate(-125.788 27.056)" stroke="#394d54" stroke-width="0.25"/><path d="M126.292-21.977v3.421m.616-3.421v3.421m.625-3.421v3.421m.625-3.421v3.421m.625-3.421v3.421m.615-3.421v3.421" transform="translate(-125.788 22.319)" stroke="#394d54" stroke-width="0.25"/></g></g><g transform="translate(-0.544 5.111)"><path d="M123.859,3.811h4.1V7.922h-4.1Z" transform="translate(-123.859 -3.811)" fill="#00acd3"/><path d="M123.859,26.677h4.1v4.1h-4.1Z" transform="translate(-123.859 -21.94)" fill="#20c2ef"/><path d="M126.292,8.885V5.461m.616,3.421V5.461m.625,3.421V5.461m.625,3.421V5.461m.625,3.421V5.461m.606,3.424V5.461" transform="translate(-125.788 -5.12)" stroke="#394d54" stroke-width="0.25"/><path d="M126.292,8.885V5.461m.616,3.421V5.461m.625,3.421V5.461m.625,3.421V5.461m.625,3.421V5.461m.606,3.424V5.461" transform="translate(-125.788 -0.382)" stroke="#394d54" stroke-width="0.25"/><g transform="translate(4.736)"><path d="M123.859-19.523h4.1v-4.105h-4.1Z" transform="translate(-123.859 28.365)" fill="#00acd3"/><path d="M123.859-42.389h4.1v-4.1h-4.1Z" transform="translate(-123.859 46.494)" fill="#20c2ef"/><path d="M126.292-21.977v3.421m.616-3.421v3.421m.625-3.421v3.421m.625-3.421v3.421m.625-3.421v3.421m.615-3.421v3.421" transform="translate(-125.788 27.056)" stroke="#394d54" stroke-width="0.25"/><path d="M126.292-21.977v3.421m.616-3.421v3.421m.625-3.421v3.421m.625-3.421v3.421m.625-3.421v3.421m.615-3.421v3.421" transform="translate(-125.788 22.319)" stroke="#394d54" stroke-width="0.25"/></g></g><g transform="translate(8.93 5.111)"><path d="M123.859,3.811h4.1V7.922h-4.1Z" transform="translate(-123.859 -3.811)" fill="#00acd3"/><path d="M123.859,26.677h4.1v4.1h-4.1Z" transform="translate(-123.859 -21.94)" fill="#20c2ef"/><path d="M126.292,8.885V5.461m.616,3.421V5.461m.625,3.421V5.461m.625,3.421V5.461m.625,3.421V5.461m.606,3.424V5.461" transform="translate(-125.788 -5.12)" stroke="#394d54" stroke-width="0.25"/><path d="M126.292,8.885V5.461m.616,3.421V5.461m.625,3.421V5.461m.625,3.421V5.461m.625,3.421V5.461m.606,3.424V5.461" transform="translate(-125.788 -0.382)" stroke="#394d54" stroke-width="0.25"/><g transform="translate(4.736)"><path d="M123.859-19.523h4.1v-4.105h-4.1Z" transform="translate(-123.859 28.365)" fill="#00acd3"/><path d="M123.859-42.389h4.1v-4.1h-4.1Z" transform="translate(-123.859 46.494)" fill="#20c2ef"/><path d="M126.292-21.977v3.421m.616-3.421v3.421m.625-3.421v3.421m.625-3.421v3.421m.625-3.421v3.421m.615-3.421v3.421" transform="translate(-125.788 27.056)" stroke="#394d54" stroke-width="0.25"/><path d="M126.292-21.977v3.421m.616-3.421v3.421m.625-3.421v3.421m.625-3.421v3.421m.625-3.421v3.421m.615-3.421v3.421" transform="translate(-125.788 22.319)" stroke="#394d54" stroke-width="0.25"/></g></g><g transform="translate(18.403 5.111)"><path d="M123.859,3.811h4.1V7.922h-4.1Z" transform="translate(-123.859 -3.811)" fill="#00acd3"/><path d="M123.859,26.677h4.1v4.1h-4.1Z" transform="translate(-123.859 -21.94)" fill="#20c2ef"/><path d="M126.292,8.885V5.461m.616,3.421V5.461m.625,3.421V5.461m.625,3.421V5.461m.625,3.421V5.461m.606,3.424V5.461" transform="translate(-125.788 -5.12)" stroke="#394d54" stroke-width="0.25"/><path d="M126.292,8.885V5.461m.616,3.421V5.461m.625,3.421V5.461m.625,3.421V5.461m.625,3.421V5.461m.606,3.424V5.461" transform="translate(-125.788 -0.382)" stroke="#394d54" stroke-width="0.25"/><g transform="translate(4.736)"><path d="M123.859-19.523h4.1v-4.105h-4.1Z" transform="translate(-123.859 28.365)" fill="#00acd3"/><path d="M123.859-42.389h4.1v-4.1h-4.1Z" transform="translate(-123.859 46.494)" fill="#20c2ef"/><path d="M126.292-21.977v3.421m.616-3.421v3.421m.625-3.421v3.421m.625-3.421v3.421m.625-3.421v3.421m.615-3.421v3.421" transform="translate(-125.788 27.056)" stroke="#394d54" stroke-width="0.25"/><path d="M126.292-21.977v3.421m.616-3.421v3.421m.625-3.421v3.421m.625-3.421v3.421m.625-3.421v3.421m.615-3.421v3.421" transform="translate(-125.788 22.319)" stroke="#394d54" stroke-width="0.25"/></g></g></g><g transform="translate(7.255 0.415)" clip-path="url(#a)"><path d="M72.444,33.989c.317-2.469-1.53-4.408-2.675-5.327-1.32,1.526-1.525,5.526.546,7.21a9.962,9.962,0,0,1-6.086,1.964H33.588c-.243,2.6,0,15.14,0,15.14H78.54l-.2-18.939a6.6,6.6,0,0,0-5.892-.041" transform="translate(-33.799 -23.139)" fill="#17b5eb"/></g><g transform="translate(7.255 0.415)" clip-path="url(#a)"><path d="M34,89v11.807H78.952V89" transform="translate(-34.212 -70.978)" fill="rgba(0,0,0,0.17)"/></g><g transform="translate(7.255 0.415)" clip-path="url(#a)"><path d="M58.721,121.311a9.976,9.976,0,0,1-5.2-5.115l-8.52.375,4.35,5.8,9.375-1.059" transform="translate(-42.933 -92.54)" fill="#d4edf1"/></g><g transform="translate(7.255 0.415)" clip-path="url(#a)"><path d="M73.049,50.816v.006A41.278,41.278,0,0,1,55.875,63.815c-5.936,2.28-11.111,2.291-14.683.46-.385-.217-.761-.459-1.139-.686a9.853,9.853,0,0,1-3.969-8.839H34V69.886H78.952V50H73.774Z" transform="translate(-34.212 -40.056)" fill="rgba(0,0,0,0.09)"/></g><path d="M45.625,114.479a25.4,25.4,0,0,0,8.8-.666" transform="translate(-36.174 -90.234)" fill="none" stroke="#394d54" stroke-linecap="round" stroke-width="0.6"/><path d="M93.5,102.627a1.132,1.132,0,1,1-1.132-1.132A1.132,1.132,0,0,1,93.5,102.627Z" transform="translate(-72.336 -80.465)" fill="#d4edf1"/><path d="M93.893,103.1a.331.331,0,1,0,.456.445.811.811,0,1,1-.456-.445Z" transform="translate(-73.567 -81.697)" fill="#394d54"/><path d="M0,81.791H52.685c-1.147-.291-3.625-.684-3.22-2.188-2.086,2.414-7.116,1.694-8.386.5-1.414,2.05-9.644,1.271-10.218-.326-1.773,2.08-7.264,2.08-9.036,0-.574,1.6-8.8,2.375-10.219.326-1.27,1.19-6.3,1.91-8.385-.5.4,1.5-2.074,1.9-3.221,2.188" transform="translate(0 -63.112)" fill="#394d54"/></svg>