<svg xmlns="http://www.w3.org/2000/svg" xmlns:xlink="http://www.w3.org/1999/xlink" width="42.269" height="24" viewBox="0 0 42.269 24"><defs><clipPath id="a"><path d="M41.857,2V9.623H38.211v3.812H35.159c-.013.11-.023.221-.034.331a10.239,10.239,0,0,0,1,5.629l.28.5a7.652,7.652,0,0,0,.57.86c.206.276.279.428.409.611,2.2,2.475,5.485,3.667,9.275,3.667,8.394,0,15.517-3.719,18.67-12.072,2.237.23,4.382-.344,5.36-2.253a5.274,5.274,0,0,0-4.713-.031L69.036,2,57.1,9.623H53.292V2Z" transform="translate(-35.075 -2)"/></clipPath></defs><g transform="translate(0 -0.001)"><path d="M50.516,7.579h3.789v3.874h1.916a8.309,8.309,0,0,0,2.633-.442,6.743,6.743,0,0,0,1.28-.578,4.752,4.752,0,0,1-.888-2.45,5.174,5.174,0,0,1,.93-3.647l.4-.461.475.382a6.034,6.034,0,0,1,2.377,3.831,5.792,5.792,0,0,1,4.4.409l.52.3-.274.535C67,11.427,64.753,12.075,62.561,11.96,59.28,20.132,52.137,24,43.477,24,39,24,34.9,22.328,32.56,18.358c-.137-.247-.254-.5-.379-.758a10.989,10.989,0,0,1-.875-5.574l.053-.573H34.6V7.579h3.789V3.79h7.579V0h4.547V7.579" transform="translate(-26.073)" fill="#394d54"/><g transform="translate(5.813 0.332)" clip-path="url(#a)"><g transform="translate(14.714 -3.489)"><g transform="translate(0 0)"><path d="M123.859,3.811h3.284V7.1h-3.284Z" transform="translate(-123.859 -3.811)" fill="#00acd3"/><path d="M123.859,26.677h3.284v3.284h-3.284Z" transform="translate(-123.859 -22.887)" fill="#20c2ef"/><path d="M126.292,8.2V5.461m.493,2.737V5.461m.5,2.737V5.461m.5,2.737V5.461m.5,2.737V5.461M128.77,8.2V5.461" transform="translate(-125.889 -5.188)" stroke="#394d54" stroke-width="0.25"/><path d="M126.292,8.2V5.461m.493,2.737V5.461m.5,2.737V5.461m.5,2.737V5.461m.5,2.737V5.461M128.77,8.2V5.461" transform="translate(-125.889 -1.398)" stroke="#394d54" stroke-width="0.25"/></g><g transform="translate(3.789)"><path d="M123.859-20.344h3.284v-3.284h-3.284Z" transform="translate(-123.859 27.418)" fill="#00acd3"/><path d="M123.859-43.21h3.284v-3.284h-3.284Z" transform="translate(-123.859 46.494)" fill="#20c2ef"/><path d="M126.292-21.977v2.737m.493-2.737v2.737m.5-2.737v2.737m.5-2.737v2.737m.5-2.737v2.737m.492-2.737v2.737" transform="translate(-125.889 26.04)" stroke="#394d54" stroke-width="0.25"/><path d="M126.292-21.977v2.737m.493-2.737v2.737m.5-2.737v2.737m.5-2.737v2.737m.5-2.737v2.737m.492-2.737v2.737" transform="translate(-125.889 22.251)" stroke="#394d54" stroke-width="0.25"/></g></g><g transform="translate(-0.444 4.089)"><g transform="translate(0 0)"><path d="M123.859,3.811h3.284V7.1h-3.284Z" transform="translate(-123.859 -3.811)" fill="#00acd3"/><path d="M123.859,26.677h3.284v3.284h-3.284Z" transform="translate(-123.859 -22.887)" fill="#20c2ef"/><path d="M126.292,8.2V5.461m.493,2.737V5.461m.5,2.737V5.461m.5,2.737V5.461m.5,2.737V5.461M128.77,8.2V5.461" transform="translate(-125.889 -5.188)" stroke="#394d54" stroke-width="0.25"/><path d="M126.292,8.2V5.461m.493,2.737V5.461m.5,2.737V5.461m.5,2.737V5.461m.5,2.737V5.461M128.77,8.2V5.461" transform="translate(-125.889 -1.398)" stroke="#394d54" stroke-width="0.25"/></g><g transform="translate(3.789 0)"><path d="M123.859-20.344h3.284v-3.284h-3.284Z" transform="translate(-123.859 27.418)" fill="#00acd3"/><path d="M123.859-43.21h3.284v-3.284h-3.284Z" transform="translate(-123.859 46.494)" fill="#20c2ef"/><path d="M126.292-21.977v2.737m.493-2.737v2.737m.5-2.737v2.737m.5-2.737v2.737m.5-2.737v2.737m.492-2.737v2.737" transform="translate(-125.889 26.04)" stroke="#394d54" stroke-width="0.25"/><path d="M126.292-21.977v2.737m.493-2.737v2.737m.5-2.737v2.737m.5-2.737v2.737m.5-2.737v2.737m.492-2.737v2.737" transform="translate(-125.889 22.251)" stroke="#394d54" stroke-width="0.25"/></g></g><g transform="translate(7.135 4.089)"><g transform="translate(0 0)"><path d="M123.859,3.811h3.284V7.1h-3.284Z" transform="translate(-123.859 -3.811)" fill="#00acd3"/><path d="M123.859,26.677h3.284v3.284h-3.284Z" transform="translate(-123.859 -22.887)" fill="#20c2ef"/><path d="M126.292,8.2V5.461m.493,2.737V5.461m.5,2.737V5.461m.5,2.737V5.461m.5,2.737V5.461M128.77,8.2V5.461" transform="translate(-125.889 -5.188)" stroke="#394d54" stroke-width="0.25"/><path d="M126.292,8.2V5.461m.493,2.737V5.461m.5,2.737V5.461m.5,2.737V5.461m.5,2.737V5.461M128.77,8.2V5.461" transform="translate(-125.889 -1.398)" stroke="#394d54" stroke-width="0.25"/></g><g transform="translate(3.789 0)"><path d="M123.859-20.344h3.284v-3.284h-3.284Z" transform="translate(-123.859 27.418)" fill="#00acd3"/><path d="M123.859-43.21h3.284v-3.284h-3.284Z" transform="translate(-123.859 46.494)" fill="#20c2ef"/><path d="M126.292-21.977v2.737m.493-2.737v2.737m.5-2.737v2.737m.5-2.737v2.737m.5-2.737v2.737m.492-2.737v2.737" transform="translate(-125.889 26.04)" stroke="#394d54" stroke-width="0.25"/><path d="M126.292-21.977v2.737m.493-2.737v2.737m.5-2.737v2.737m.5-2.737v2.737m.5-2.737v2.737m.492-2.737v2.737" transform="translate(-125.889 22.251)" stroke="#394d54" stroke-width="0.25"/></g></g><g transform="translate(14.714 4.089)"><g transform="translate(0 0)"><path d="M123.859,3.811h3.284V7.1h-3.284Z" transform="translate(-123.859 -3.811)" fill="#00acd3"/><path d="M123.859,26.677h3.284v3.284h-3.284Z" transform="translate(-123.859 -22.887)" fill="#20c2ef"/><path d="M126.292,8.2V5.461m.493,2.737V5.461m.5,2.737V5.461m.5,2.737V5.461m.5,2.737V5.461M128.77,8.2V5.461" transform="translate(-125.889 -5.188)" stroke="#394d54" stroke-width="0.25"/><path d="M126.292,8.2V5.461m.493,2.737V5.461m.5,2.737V5.461m.5,2.737V5.461m.5,2.737V5.461M128.77,8.2V5.461" transform="translate(-125.889 -1.398)" stroke="#394d54" stroke-width="0.25"/></g><g transform="translate(3.789 0)"><path d="M123.859-20.344h3.284v-3.284h-3.284Z" transform="translate(-123.859 27.418)" fill="#00acd3"/><path d="M123.859-43.21h3.284v-3.284h-3.284Z" transform="translate(-123.859 46.494)" fill="#20c2ef"/><path d="M126.292-21.977v2.737m.493-2.737v2.737m.5-2.737v2.737m.5-2.737v2.737m.5-2.737v2.737m.492-2.737v2.737" transform="translate(-125.889 26.04)" stroke="#394d54" stroke-width="0.25"/><path d="M126.292-21.977v2.737m.493-2.737v2.737m.5-2.737v2.737m.5-2.737v2.737m.5-2.737v2.737m.492-2.737v2.737" transform="translate(-125.889 22.251)" stroke="#394d54" stroke-width="0.25"/></g></g></g><g transform="translate(5.813 0.332)" clip-path="url(#a)"><path d="M64.651,32.923c.254-1.975-1.224-3.526-2.14-4.262-1.056,1.221-1.22,4.421.437,5.768A7.97,7.97,0,0,1,58.079,36H33.566c-.194,2.083,0,12.112,0,12.112H69.528l-.163-15.151a5.276,5.276,0,0,0-4.714-.033" transform="translate(-33.744 -24.243)" fill="#17b5eb"/></g><g transform="translate(5.813 0.332)" clip-path="url(#a)"><path d="M34,89v9.446H69.962V89" transform="translate(-34.178 -74.582)" fill="rgba(0,0,0,0.17)"/></g><g transform="translate(5.813 0.332)" clip-path="url(#a)"><path d="M55.977,120.288a7.981,7.981,0,0,1-4.161-4.092l-6.816.3,3.48,4.64,7.5-.847" transform="translate(-43.355 -97.271)" fill="#d4edf1"/></g><g transform="translate(5.813 0.332)" clip-path="url(#a)"><path d="M65.239,50.653v.005A33.022,33.022,0,0,1,51.5,61.052c-4.749,1.824-8.889,1.833-11.746.368-.308-.174-.609-.367-.911-.549A7.882,7.882,0,0,1,35.668,53.8H34V65.909H69.962V50H65.819Z" transform="translate(-34.178 -42.045)" fill="rgba(0,0,0,0.09)"/></g><path d="M45.625,114.346a20.321,20.321,0,0,0,7.038-.533" transform="translate(-38.064 -94.95)" fill="none" stroke="#394d54" stroke-linecap="round" stroke-width="0.6"/><path d="M93.048,102.4a.906.906,0,1,1-.906-.906A.906.906,0,0,1,93.048,102.4Z" transform="translate(-76.116 -84.671)" fill="#d4edf1"/><path d="M93.672,103.087a.265.265,0,1,0,.365.356.649.649,0,1,1-.365-.356Z" transform="translate(-77.411 -85.966)" fill="#394d54"/><path d="M0,81.353H42.148c-.918-.233-2.9-.547-2.576-1.75-1.669,1.931-5.693,1.355-6.709.4-1.131,1.64-7.715,1.017-8.174-.261-1.418,1.664-5.811,1.664-7.229,0-.459,1.278-7.043,1.9-8.175.261-1.016.952-5.04,1.528-6.708-.4C2.9,80.805.918,81.12,0,81.353" transform="translate(0 -66.41)" fill="#394d54"/></g></svg>