<svg xmlns="http://www.w3.org/2000/svg" xmlns:xlink="http://www.w3.org/1999/xlink" width="21.859" height="30" viewBox="0 0 21.859 30"><defs><filter id="a"><feOffset input="SourceAlpha"/><feGaussianBlur stdDeviation="17.5" result="b"/><feFlood flood-opacity="0.059" result="c"/><feComposite operator="out" in="SourceGraphic" in2="b"/><feComposite operator="in" in="c"/><feComposite operator="in" in2="SourceGraphic"/></filter><filter id="d"><feOffset dx="1" dy="-9" input="SourceAlpha"/><feGaussianBlur stdDeviation="3.5" result="e"/><feFlood flood-opacity="0.09" result="f"/><feComposite operator="out" in="SourceGraphic" in2="e"/><feComposite operator="in" in="f"/><feComposite operator="in" in2="SourceGraphic"/></filter></defs><g transform="translate(0 -0.005)"><path d="M0,24.219l.181-.25L8.775,7.659l.019-.173L5,.374A.7.7,0,0,0,3.69.594Z" fill="#ffc24a"/><g transform="translate(0.099 0.119)"><path d="M1.253,25.215l.138-.268,8.5-16.129L6.114,1.673A.639.639,0,0,0,4.9,1.894Z" transform="translate(-1.244 -1.308)" fill="#ffa712"/><g transform="matrix(1, 0, 0, 1, -0.1, -0.11)" filter="url(#a)"><path d="M1.253,25.215l.138-.268,8.5-16.129L6.114,1.673A.639.639,0,0,0,4.9,1.894Z" transform="translate(-1.15 -1.19)" fill="#fff"/></g></g><path d="M105.209,57.883l2.821-2.888-2.822-5.386a.726.726,0,0,0-1.28,0l-1.508,2.876v.25Z" transform="translate(-93.655 -45.014)" fill="#f4bd62"/><g transform="translate(8.792 4.32)"><path d="M105.45,58.926l2.742-2.808L105.45,50.9a.631.631,0,0,0-1.15-.05l-1.515,2.919-.045.149Z" transform="translate(-102.738 -50.498)" fill="#ffa50e"/><g transform="matrix(1, 0, 0, 1, -8.79, -4.31)" filter="url(#d)"><path d="M105.45,58.926l2.742-2.808L105.45,50.9a.631.631,0,0,0-1.15-.05l-1.515,2.919-.045.149Z" transform="translate(-93.95 -46.18)" fill="#fff"/></g></g><path d="M0,103.872l.083-.083.3-.125,11-10.951.139-.375L8.773,87.1Z" transform="translate(0 -79.652)" fill="#f6820c"/><path d="M11.907,95.153l9.951-5.55L19.016,72.1a.68.68,0,0,0-1.153-.375L0,89.623l9.895,5.524a2.066,2.066,0,0,0,2.013,0" transform="translate(0 -65.409)" fill="#fde068"/><path d="M22.948,90.446,20.128,73.076a.6.6,0,0,0-1.035-.375L1.289,90.483l9.786,5.47a2.049,2.049,0,0,0,2,0Z" transform="translate(-1.179 -66.297)" fill="#fcca3f"/><path d="M11.907,286.489a2.066,2.066,0,0,1-2.013,0L.079,281.044,0,281.127l9.895,5.524a2.065,2.065,0,0,0,2.013,0l9.951-5.55-.025-.15Z" transform="translate(0 -256.908)" fill="#eeab37"/></g></svg>