<svg xmlns="http://www.w3.org/2000/svg" xmlns:xlink="http://www.w3.org/1999/xlink" width="17.483" height="24" viewBox="0 0 17.483 24"><defs><filter id="a"><feOffset input="SourceAlpha"/><feGaussianBlur stdDeviation="17.5" result="b"/><feFlood flood-opacity="0.059" result="c"/><feComposite operator="out" in="SourceGraphic" in2="b"/><feComposite operator="in" in="c"/><feComposite operator="in" in2="SourceGraphic"/></filter><filter id="d"><feOffset dx="1" dy="-9" input="SourceAlpha"/><feGaussianBlur stdDeviation="3.5" result="e"/><feFlood flood-opacity="0.09" result="f"/><feComposite operator="out" in="SourceGraphic" in2="e"/><feComposite operator="in" in="f"/><feComposite operator="in" in2="SourceGraphic"/></filter></defs><path d="M0,19.372l.145-.2L7.018,6.127l.015-.138L4,.3A.562.562,0,0,0,2.951.476Z" fill="#ffc24a"/><g transform="translate(0.086 0.089)"><path d="M1.253,20.429l.11-.214,6.8-12.9L5.141,1.6a.511.511,0,0,0-.971.177Z" transform="translate(-1.253 -1.301)" fill="#ffa712"/><g transform="matrix(1, 0, 0, 1, -0.09, -0.09)" filter="url(#a)"><path d="M1.253,20.429l.11-.214,6.8-12.9L5.141,1.6a.511.511,0,0,0-.971.177Z" transform="translate(-1.17 -1.21)" fill="#fff"/></g></g><path d="M104.651,56.15l2.256-2.31-2.257-4.308a.581.581,0,0,0-1.024,0l-1.206,2.3v.2Z" transform="translate(-95.41 -45.856)" fill="#f4bd62"/><g transform="translate(7.033 3.457)"><path d="M104.907,57.239l2.193-2.246-2.193-4.176a.505.505,0,0,0-.92-.04l-1.212,2.335-.036.119Z" transform="translate(-102.739 -50.499)" fill="#ffa50e"/><g transform="matrix(1, 0, 0, 1, -7.03, -3.46)" filter="url(#d)"><path d="M104.907,57.239l2.193-2.246-2.193-4.176a.505.505,0,0,0-.92-.04l-1.212,2.335-.036.119Z" transform="translate(-95.71 -47.04)" fill="#fff"/></g></g><path d="M0,100.514l.066-.066.239-.1L9.1,91.589l.111-.3L7.017,87.1Z" transform="translate(0 -81.142)" fill="#f6820c"/><path d="M9.523,90.423l7.959-4.439-2.273-14a.544.544,0,0,0-.922-.3L0,86l7.914,4.418a1.652,1.652,0,0,0,1.61,0" transform="translate(0 -66.632)" fill="#fde068"/><path d="M18.612,86.855,16.357,72.963a.478.478,0,0,0-.828-.3L1.289,86.885,9.116,91.26a1.639,1.639,0,0,0,1.6,0Z" transform="translate(-1.201 -67.54)" fill="#fcca3f"/><path d="M9.523,285.38a1.652,1.652,0,0,1-1.61,0l-7.85-4.355L0,281.092l7.914,4.418a1.652,1.652,0,0,0,1.61,0l7.959-4.439-.02-.12Z" transform="translate(0 -261.72)" fill="#eeab37"/></svg>