<svg xmlns="http://www.w3.org/2000/svg" width="30.001" height="30" viewBox="0 0 30.001 30"><g transform="translate(-1.998 -1.999)"><path d="M31.431,15.663l-13.1-13.1a1.928,1.928,0,0,0-2.732,0l-2.72,2.72,3.45,3.45a2.294,2.294,0,0,1,2.905,2.925l3.321,3.321a2.3,2.3,0,1,1-1.377,1.3l-3.1-3.1v8.16a2.294,2.294,0,1,1-1.89-.066V13.035a2.3,2.3,0,0,1-1.248-3.015l-3.4-3.4L2.566,15.606a1.928,1.928,0,0,0,0,2.733l13.1,13.093a1.928,1.928,0,0,0,2.732,0l13.037-13.04a1.928,1.928,0,0,0,0-2.733" transform="translate(0 0)" fill="#dd4c35"/><path d="M12.247,5.067l3.45,3.45A2.294,2.294,0,0,1,18.6,11.441l3.321,3.321a2.3,2.3,0,1,1-1.377,1.3l-3.1-3.1v8.16a2.294,2.294,0,1,1-1.89-.066V12.816A2.3,2.3,0,0,1,14.307,9.8l-3.4-3.4" transform="translate(0.636 0.219)" fill="#fff"/></g></svg>