<svg xmlns="http://www.w3.org/2000/svg" width="13.502" height="30" viewBox="0 0 13.502 30"><g transform="translate(-6.32 -4.69)"><path d="M19.545,16.629C17.966,9.656,14.67,7.8,13.831,6.489a14.924,14.924,0,0,1-.919-1.8,1.83,1.83,0,0,1-.653,1.479A16.717,16.717,0,0,0,6.335,18.691c-.353,7.386,5.43,11.941,6.194,12.411a1.7,1.7,0,0,0,1.651-.259,14.384,14.384,0,0,0,5.365-14.215" transform="translate(0 0)" fill="#10aa50"/><path d="M67.125,222.46A15.185,15.185,0,0,1,66.5,226.4s.243,1.74.413,3.584h.6a33.523,33.523,0,0,1,.658-3.86C67.393,225.735,67.149,224.064,67.125,222.46Z" transform="translate(-53.967 -195.289)" fill="#b8c4c2"/><path d="M72.092,32.2h0c-.789-.365-1.016-2.071-1.053-3.66a74.925,74.925,0,0,0,.17-7.881c-.041-1.375.02-12.774-.34-14.442a13.865,13.865,0,0,0,.848,1.64c.84,1.312,4.135,3.169,5.715,10.141a14.375,14.375,0,0,1-5.34,14.2Z" transform="translate(-57.886 -1.362)" fill="#12924f"/></g></svg>