<svg xmlns="http://www.w3.org/2000/svg" width="24.001" height="24" viewBox="0 0 24.001 24"><path d="M17.812,22.505c-.089.047-.082.062,0,.019a.232.232,0,0,0,.071-.046c0-.016,0-.016-.075.027Zm.18-.1c-.043.035-.043.035.008.012a.186.186,0,0,0,.051-.035C18.051,22.364,18.039,22.369,17.992,22.408Zm.117-.071c-.043.035-.043.035.008.012a.184.184,0,0,0,.051-.036C18.168,22.294,18.156,22.3,18.109,22.337Zm.119-.07c-.043.035-.043.035.007.011a.159.159,0,0,0,.051-.035C18.285,22.225,18.273,22.228,18.228,22.267Zm.16-.106c-.082.055-.11.09-.035.051.05-.031.136-.1.121-.1a.626.626,0,0,0-.086.047ZM11.215.009,10.852.04A12.028,12.028,0,0,0,2.227,5.013,11.871,11.871,0,0,0,.109,10.255,9.153,9.153,0,0,0,0,12a9.115,9.115,0,0,0,.109,1.746,12.05,12.05,0,0,0,8.207,9.7,13.029,13.029,0,0,0,2.536.528,22.539,22.539,0,0,0,2.3,0,12.15,12.15,0,0,0,4.325-1.266c.207-.1.246-.133.218-.156-.66-.871-1.308-1.742-1.957-2.621l-1.918-2.59-2.4-3.559Q10.213,12,8.993,10.224c-.008,0-.019,1.582-.023,3.511a27.888,27.888,0,0,1-.051,3.594.429.429,0,0,1-.207.215c-.074.035-.141.043-.5.043H7.81L7.7,17.521a.446.446,0,0,1-.156-.172L7.5,17.244l0-4.7.008-4.7.074-.094a.565.565,0,0,1,.172-.14c.1-.047.137-.055.543-.055.476,0,.555.019.68.156.972,1.449,1.941,2.9,2.894,4.359,1.559,2.364,3.688,5.59,4.734,7.172l1.9,2.879.094-.062a12.26,12.26,0,0,0,2.464-2.164,11.951,11.951,0,0,0,2.825-6.133A9.157,9.157,0,0,0,24,12.006a9.111,9.111,0,0,0-.109-1.746,12.052,12.052,0,0,0-8.207-9.7,12.738,12.738,0,0,0-2.5-.523C12.962.018,11.411-.01,11.216.011Zm4.91,7.258a.467.467,0,0,1,.238.273c.02.063.024,1.367.02,4.305l-.008,4.218-.742-1.14-.746-1.141V10.72c0-1.985.008-3.1.019-3.153a.5.5,0,0,1,.235-.3c.093-.047.129-.051.5-.051.347,0,.406,0,.484.047Z" transform="translate(0 -0.004)" fill="#48556a"/></svg>