<svg xmlns="http://www.w3.org/2000/svg" width="30.013" height="30" viewBox="0 0 30.013 30"><path d="M22.266,28.131c-.111.059-.1.078,0,.024a.29.29,0,0,0,.089-.057c0-.02,0-.02-.094.034Zm.225-.125c-.054.044-.054.044.01.015a.233.233,0,0,0,.064-.044c0-.022-.015-.016-.074.033Zm.146-.089c-.054.044-.054.044.01.015a.23.23,0,0,0,.064-.045c0-.02-.015-.012-.074.034Zm.149-.088c-.054.044-.054.044.009.014a.2.2,0,0,0,.064-.044c0-.019-.016-.015-.073.034Zm.2-.132c-.1.069-.138.112-.044.064.063-.039.17-.125.151-.125a.783.783,0,0,0-.108.059ZM14.02.01l-.454.039A15.035,15.035,0,0,0,2.785,6.265,14.839,14.839,0,0,0,.138,12.818,11.441,11.441,0,0,0,0,15a11.394,11.394,0,0,0,.136,2.183A15.063,15.063,0,0,0,10.4,29.307a16.287,16.287,0,0,0,3.17.66,28.177,28.177,0,0,0,2.875,0,15.188,15.188,0,0,0,5.406-1.583c.259-.125.307-.166.273-.195-.825-1.089-1.635-2.178-2.446-3.276l-2.4-3.238-3-4.449Q12.768,15,11.243,12.779c-.01,0-.024,1.978-.029,4.389a34.86,34.86,0,0,1-.064,4.493.536.536,0,0,1-.259.269c-.093.044-.176.054-.625.054h-.5L9.626,21.9a.557.557,0,0,1-.2-.215l-.055-.131V15.679L9.386,9.8l.093-.118a.706.706,0,0,1,.215-.175c.125-.059.171-.069.679-.069.6,0,.694.024.85.2,1.215,1.811,2.426,3.625,3.618,5.449,1.949,2.955,4.61,6.988,5.918,8.965l2.375,3.6.118-.077a15.325,15.325,0,0,0,3.08-2.705A14.939,14.939,0,0,0,29.862,17.2a11.446,11.446,0,0,0,.14-2.2,11.389,11.389,0,0,0-.136-2.183A15.065,15.065,0,0,0,19.606.7,15.922,15.922,0,0,0,16.481.045C16.2.022,14.265-.013,14.021.013Zm6.138,9.073a.584.584,0,0,1,.3.341c.025.079.03,1.709.025,5.381l-.01,5.273-.928-1.425-.933-1.426V13.4c0-2.481.01-3.875.024-3.941a.625.625,0,0,1,.294-.375c.116-.059.161-.064.625-.064.434,0,.508,0,.605.059Z" transform="translate(0.005 -0.003)" fill="#ccdcff"/></svg>