<svg xmlns="http://www.w3.org/2000/svg" xmlns:xlink="http://www.w3.org/1999/xlink" width="26.404" height="30" viewBox="0 0 26.404 30"><defs><linearGradient id="a" x1="0.324" y1="0.248" x2="1.649" y2="1.377" gradientUnits="objectBoundingBox"><stop offset="0" stop-color="#5a9fd4"/><stop offset="1" stop-color="#306998"/></linearGradient><linearGradient id="b" x1="1.483" y1="1.955" x2="1.011" y2="1.297" gradientUnits="objectBoundingBox"><stop offset="0" stop-color="#ffd43b"/><stop offset="1" stop-color="#ffe873"/></linearGradient><radialGradient id="c" cx="0.5" cy="0.5" r="0.5" gradientTransform="translate(-0.127 1.408) rotate(-90) scale(1 0.852)" gradientUnits="objectBoundingBox"><stop offset="0" stop-color="#b8b8b8" stop-opacity="0.498"/><stop offset="1" stop-color="#7f7f7f" stop-opacity="0"/></radialGradient></defs><g transform="translate(-1215 -2459.518)"><path d="M13.044,0A18.184,18.184,0,0,0,10,.267C7.306.736,6.817,1.733,6.817,3.57V6h6.368v.809H4.426A3.977,3.977,0,0,0,.448,10.036a11.9,11.9,0,0,0,0,6.472c.453,1.886,1.534,3.229,3.385,3.229h2.19V16.827A4.048,4.048,0,0,1,10,12.87h6.361a3.208,3.208,0,0,0,3.184-3.236V3.57a3.554,3.554,0,0,0-3.179-3.3A19.858,19.858,0,0,0,13.044,0ZM9.6,1.953A1.214,1.214,0,1,1,8.4,3.169,1.214,1.214,0,0,1,9.6,1.953Z" transform="translate(1215 2459.518)" fill="url(#a)"/><path d="M42.223,28.657v2.828a4.085,4.085,0,0,1-3.978,4.038H31.884A3.249,3.249,0,0,0,28.7,38.759v6.064c0,1.726,1.5,2.741,3.184,3.236a10.662,10.662,0,0,0,6.361,0c1.6-.464,3.184-1.4,3.184-3.236V42.4H35.068v-.809h9.545c1.851,0,2.54-1.291,3.184-3.229a10.929,10.929,0,0,0,0-6.472c-.457-1.842-1.333-3.229-3.184-3.229ZM38.646,44.014a1.214,1.214,0,1,1-1.2,1.21,1.2,1.2,0,0,1,1.2-1.21Z" transform="translate(1193.117 2437.667)" fill="url(#b)"/><path d="M6.1,0c3.371,0,6.1.53,6.1,1.184S9.476,2.368,6.1,2.368,0,1.838,0,1.184,2.733,0,6.1,0Z" transform="translate(1222.627 2487.15)" opacity="0.444" fill="url(#c)"/></g></svg>