<svg xmlns="http://www.w3.org/2000/svg" xmlns:xlink="http://www.w3.org/1999/xlink" width="19.811" height="24" viewBox="0 0 19.811 24"><defs><linearGradient id="a" x1="0.324" y1="0.248" x2="1.649" y2="1.377" gradientUnits="objectBoundingBox"><stop offset="0" stop-color="#5a9fd4"/><stop offset="1" stop-color="#306998"/></linearGradient><linearGradient id="b" x1="1.483" y1="1.955" x2="1.011" y2="1.297" gradientUnits="objectBoundingBox"><stop offset="0" stop-color="#ffd43b"/><stop offset="1" stop-color="#ffe873"/></linearGradient><radialGradient id="c" cx="0.5" cy="0.5" r="0.5" gradientTransform="translate(-0.127 1.408) rotate(-90) scale(1 0.852)" gradientUnits="objectBoundingBox"><stop offset="0" stop-color="#b8b8b8" stop-opacity="0.498"/><stop offset="1" stop-color="#7f7f7f" stop-opacity="0"/></radialGradient></defs><g transform="translate(0)"><path d="M9.787,0A13.644,13.644,0,0,0,7.5.2C5.482.552,5.115,1.3,5.115,2.679V4.5H9.893v.607H3.321A2.984,2.984,0,0,0,.336,7.53a8.932,8.932,0,0,0,0,4.856c.34,1.415,1.151,2.423,2.54,2.423H4.519V12.626A3.037,3.037,0,0,1,7.5,9.657h4.773a2.407,2.407,0,0,0,2.389-2.428V2.679A2.667,2.667,0,0,0,12.277.2,14.9,14.9,0,0,0,9.787,0ZM7.2,1.465a.911.911,0,1,1-.9.913A.907.907,0,0,1,7.2,1.465Z" transform="translate(0 0)" fill="url(#a)"/><path d="M38.847,28.657v2.122a3.065,3.065,0,0,1-2.985,3.03H31.089A2.438,2.438,0,0,0,28.7,36.237v4.55c0,1.295,1.126,2.057,2.389,2.428a8,8,0,0,0,4.773,0c1.2-.348,2.389-1.049,2.389-2.428V38.966H33.478v-.607H40.64c1.389,0,1.906-.969,2.389-2.423a8.2,8.2,0,0,0,0-4.856c-.343-1.382-1-2.423-2.389-2.423ZM36.163,40.18a.911.911,0,1,1-.9.908A.9.9,0,0,1,36.163,40.18Z" transform="translate(-23.585 -23.55)" fill="url(#b)"/><ellipse cx="6.403" cy="1.242" rx="6.403" ry="1.242" transform="translate(3.544 21.517)" opacity="0.444" fill="url(#c)"/></g></svg>