<svg xmlns="http://www.w3.org/2000/svg" width="33.645" height="30" viewBox="0 0 33.645 30"><path d="M38.3,29.707q-.74-.6-1.482-1.324-.74.72-1.482,1.324c-2.773,2.254-5.234,2.956-6.93,1.976s-2.318-3.461-1.752-6.989c.1-.628.237-1.278.406-1.946-.662-.187-1.292-.395-1.886-.622C21.838,20.853,20,19.072,20,17.113s1.838-3.739,5.177-5.013c.594-.227,1.225-.434,1.887-.621-.169-.667-.3-1.317-.405-1.945-.566-3.528.057-6.009,1.754-6.989s4.156-.277,6.929,1.976q.74.6,1.481,1.323.739-.72,1.481-1.323c2.773-2.253,5.234-2.954,6.93-1.976s2.318,3.461,1.752,6.989c-.1.628-.236,1.277-.405,1.944.663.187,1.295.395,1.889.622,3.337,1.275,5.175,3.055,5.175,5.013s-1.838,3.74-5.175,5.013c-.594.227-1.225.435-1.887.622.169.667.3,1.318.406,1.945.565,3.528-.057,6.011-1.754,6.989a3.322,3.322,0,0,1-1.687.431C42.06,32.114,40.26,31.3,38.3,29.707Zm.9-1.1c2.251,1.829,4.192,2.5,5.325,1.848s1.521-2.672,1.061-5.536c-.094-.587-.221-1.2-.379-1.82a34.887,34.887,0,0,1-4.524.7,34.927,34.927,0,0,1-2.871,3.565Q38.505,28.041,39.2,28.606ZM28.058,24.918c-.459,2.864-.072,4.882,1.061,5.536s3.074-.019,5.325-1.848q.692-.563,1.388-1.239a34.9,34.9,0,0,1-2.87-3.565,34.881,34.881,0,0,1-4.524-.7C28.279,23.723,28.152,24.331,28.058,24.918Zm8.764,1.43c.681-.739,1.354-1.549,2.011-2.419q-.993.046-2.01.046t-2.011-.047C35.467,24.8,36.141,25.609,36.822,26.348Zm0-3.793c1.045,0,2.074-.038,3.076-.113.566-.83,1.113-1.7,1.636-2.608s1-1.817,1.441-2.722c-.436-.9-.917-1.815-1.44-2.72s-1.07-1.778-1.636-2.609c-1-.075-2.031-.113-3.077-.113s-2.075.038-3.078.113c-.566.831-1.114,1.7-1.637,2.609s-1,1.815-1.44,2.72c.436.906.918,1.817,1.441,2.722s1.07,1.777,1.636,2.607C34.747,22.517,35.777,22.555,36.822,22.555Zm5.942-2.01q-.508.879-1.046,1.718c1.082-.134,2.121-.312,3.1-.532-.3-.959-.665-1.949-1.09-2.953Q43.273,19.663,42.764,20.545ZM31.926,22.263q-.537-.837-1.045-1.718t-.967-1.768c-.425,1-.791,1.993-1.09,2.953C29.8,21.951,30.844,22.129,31.926,22.263Zm14.272-.88c.62-.176,1.211-.37,1.766-.582,2.709-1.035,4.262-2.378,4.262-3.687s-1.553-2.653-4.262-3.686c-.556-.213-1.147-.407-1.768-.583a34.936,34.936,0,0,1-1.651,4.268A34.9,34.9,0,0,1,46.2,21.382ZM25.682,13.427c-2.709,1.033-4.263,2.378-4.263,3.686s1.554,2.653,4.263,3.687c.555.212,1.145.406,1.765.582A34.9,34.9,0,0,1,29.1,17.112a34.9,34.9,0,0,1-1.652-4.268C26.828,13.02,26.238,13.214,25.682,13.427Zm4.232,2.021q.457-.883.965-1.764t1.046-1.72c-1.082.134-2.121.312-3.1.533C29.124,13.455,29.489,14.444,29.914,15.448Zm12.851-1.764q.507.879.964,1.763c.425-1,.79-1.992,1.089-2.951-.98-.22-2.019-.4-3.1-.532Q42.256,12.8,42.766,13.683ZM29.121,3.773c-1.133.655-1.52,2.673-1.061,5.536.094.587.221,1.2.379,1.82a34.909,34.909,0,0,1,4.523-.7A34.9,34.9,0,0,1,35.832,6.86q-.693-.674-1.386-1.237c-1.687-1.372-3.2-2.094-4.329-2.094A1.964,1.964,0,0,0,29.121,3.773Zm16.085,7.355c.158-.625.285-1.233.379-1.82.46-2.864.073-4.88-1.061-5.536s-3.074.019-5.325,1.848q-.692.562-1.387,1.238a34.924,34.924,0,0,1,2.872,3.566A34.924,34.924,0,0,1,45.206,11.129Zm-10.4-.83q.994-.046,2.013-.047t2.012.047c-.657-.87-1.331-1.681-2.013-2.42C36.14,8.617,35.466,9.428,34.81,10.3Zm-.99,6.815a3,3,0,1,1,3,3A3,3,0,0,1,33.82,17.113Z" transform="translate(-20 -2.114)" fill="#61dafb"/></svg>