<svg xmlns="http://www.w3.org/2000/svg" width="35.547" height="49.999" viewBox="0 0 35.547 49.999"><g transform="translate(-12.616 -29.689)"><path d="M13.726,48.736a6.986,6.986,0,0,1-4.743-1.925L8.969,46.8c-2.451-2.447-2.529-6.521-2.6-10.46-.072-3.759-.146-7.645-2.321-9.859A6.049,6.049,0,0,0,.112,24.745v-1.01A6.049,6.049,0,0,0,4.042,22c2.176-2.226,2.25-6.112,2.322-9.871C6.44,8.2,6.517,4.14,8.971,1.729L8.98,1.72A6.978,6.978,0,0,1,14.092-.245L14.044.764A5.976,5.976,0,0,0,9.676,2.454c-2.156,2.123-2.226,5.8-2.3,9.7C7.3,16.11,7.221,20.2,4.759,22.715l-.011.011a7.429,7.429,0,0,1-2.3,1.514,7.429,7.429,0,0,1,2.3,1.514l.01.01c2.463,2.5,2.541,6.595,2.617,10.554.075,3.907.145,7.6,2.3,9.757a5.94,5.94,0,0,0,4.363,1.641l.057,1.009Q13.911,48.736,13.726,48.736Z" transform="translate(12.504 30.447)" fill="#e5f0ff"/><path d="M10.207,49.246q-.208,0-.416-.012l.119-2.018a5.4,5.4,0,0,0,3.982-1.5c2.02-2.022,2.089-5.62,2.162-9.429.077-4.048.157-8.233,2.745-10.871l.023-.023a8.107,8.107,0,0,1,1.52-1.148,8.107,8.107,0,0,1-1.52-1.148l-.025-.025c-2.586-2.65-2.666-6.834-2.743-10.88-.073-3.8-.141-7.385-2.162-9.369A5.435,5.435,0,0,0,9.9,1.275L9.8-.744a7.44,7.44,0,0,1,5.485,2.1l.014.013c2.618,2.561,2.7,6.74,2.776,10.782.073,3.813.142,7.416,2.156,9.494a5.558,5.558,0,0,0,3.612,1.587v2.02a5.558,5.558,0,0,0-3.613,1.587c-2.014,2.066-2.083,5.669-2.156,9.483-.077,4.051-.157,8.239-2.77,10.836l-.025.024A7.449,7.449,0,0,1,10.207,49.246Z" transform="translate(24.32 30.442)" fill="#e5f0ff"/></g></svg>