<svg xmlns="http://www.w3.org/2000/svg" width="16" height="24" viewBox="0 0 16 24"><path d="M4,208a4,4,0,0,0,4-4v-4H4a4,4,0,1,0,0,8Z" transform="translate(0 -184)" fill="#0acf83"/><path d="M0,104a4,4,0,0,1,4-4H8v8H4A4,4,0,0,1,0,104Z" transform="translate(0 -92)" fill="#a259ff"/><path d="M0,4A4,4,0,0,1,4,0H8V8H4A4,4,0,0,1,0,4Z" fill="#f24e1e"/><path d="M100,0h4a4,4,0,1,1,0,8h-4Z" transform="translate(-92)" fill="#ff7262"/><path d="M108,104a4,4,0,1,1-4-4A4,4,0,0,1,108,104Z" transform="translate(-92 -92)" fill="#1abcfe"/></svg>