<svg xmlns="http://www.w3.org/2000/svg" width="20" height="30" viewBox="0 0 20 30"><path d="M5,210a5,5,0,0,0,5-5v-5H5a5,5,0,1,0,0,10Z" transform="translate(0 -180)" fill="#0acf83"/><path d="M0,105a5,5,0,0,1,5-5h5v10H5A5,5,0,0,1,0,105Z" transform="translate(0 -90)" fill="#a259ff"/><path d="M0,5A5,5,0,0,1,5,0h5V10H5A5,5,0,0,1,0,5Z" fill="#f24e1e"/><path d="M100,0h5a5,5,0,0,1,0,10h-5Z" transform="translate(-90)" fill="#ff7262"/><path d="M110,105a5,5,0,1,1-5-5A5,5,0,0,1,110,105Z" transform="translate(-90 -90)" fill="#1abcfe"/></svg>