<svg xmlns="http://www.w3.org/2000/svg" width="30.772" height="30" viewBox="0 0 30.772 30"><path d="M5.449,0H25.324a5.444,5.444,0,0,1,5.449,5.449v19.1A5.444,5.444,0,0,1,25.32,30H5.449A5.444,5.444,0,0,1,0,24.551V5.449A5.444,5.444,0,0,1,5.449,0Z" transform="translate(0 0)" fill="#300"/><g transform="translate(6.32 6.65)"><path d="M57.842,69.82H53.074L52.1,72.833a.225.225,0,0,1-.244.18h-2.41c-.141,0-.18-.077-.141-.231L53.43,60.9c.039-.125.077-.269.125-.423a4.479,4.479,0,0,0,.078-.834.125.125,0,0,1,.1-.141h3.32c.1,0,.154.039.166.1l4.68,13.2c.039.141,0,.205-.125.205H59.1a.194.194,0,0,1-.205-.141l-1.051-3.051Zm-4.026-2.6h3.256c-.078-.269-.18-.59-.295-.923s-.231-.717-.346-1.1-.244-.782-.375-1.18-.244-.769-.346-1.141-.193-.693-.283-1H55.4a15.739,15.739,0,0,1-.436,1.654c-.193.615-.385,1.256-.59,1.9-.172.655-.365,1.258-.557,1.8Z" transform="translate(-49.291 -58.523)" fill="#ff9a00"/><path d="M159.272,55.118a1.586,1.586,0,0,1-1.141-.449,1.665,1.665,0,0,1-.436-1.18,1.509,1.509,0,0,1,.461-1.141A1.641,1.641,0,0,1,159.3,51.9a1.535,1.535,0,0,1,1.166.449,1.763,1.763,0,0,1-.026,2.32,1.508,1.508,0,0,1-1.166.449Zm-1.436,11.125V56.368c0-.125.051-.18.166-.18h2.539c.115,0,.166.064.166.18v9.875c0,.141-.051.2-.166.2h-2.512a.18.18,0,0,1-.191-.2Z" transform="translate(-143.798 -51.897)" fill="#ff9a00"/></g></svg>