<svg xmlns="http://www.w3.org/2000/svg" width="24.615" height="24" viewBox="0 0 24.615 24"><path d="M4.359,0h15.9a4.355,4.355,0,0,1,4.359,4.359V19.641A4.355,4.355,0,0,1,20.256,24H4.359A4.355,4.355,0,0,1,0,19.641V4.359A4.355,4.355,0,0,1,4.359,0Z" fill="#300"/><g transform="translate(5.055 5.323)"><path d="M56.132,67.756H52.317l-.779,2.41a.18.18,0,0,1-.195.144H49.415c-.113,0-.144-.062-.113-.185l3.3-9.508c.031-.1.062-.215.1-.338a3.583,3.583,0,0,0,.062-.667.1.1,0,0,1,.082-.113h2.656c.082,0,.123.031.133.082l3.744,10.564c.031.113,0,.164-.1.164H57.138a.155.155,0,0,1-.164-.113l-.841-2.441Zm-3.221-2.082h2.605c-.062-.215-.144-.472-.236-.738s-.185-.574-.277-.882-.195-.626-.3-.944-.195-.615-.277-.913-.154-.554-.226-.8h-.021a12.592,12.592,0,0,1-.349,1.323c-.154.492-.308,1.005-.472,1.518C53.22,64.762,53.066,65.244,52.912,65.674Z" transform="translate(-49.29 -58.721)" fill="#ff9a00"/><path d="M158.956,54.474a1.269,1.269,0,0,1-.913-.359,1.332,1.332,0,0,1-.349-.944,1.207,1.207,0,0,1,.369-.913,1.313,1.313,0,0,1,.913-.359,1.228,1.228,0,0,1,.933.359,1.41,1.41,0,0,1-.021,1.856,1.206,1.206,0,0,1-.933.359Zm-1.149,8.9v-7.9c0-.1.041-.144.133-.144h2.031c.092,0,.133.051.133.144v7.9c0,.113-.041.164-.133.164h-2.01A.144.144,0,0,1,157.808,63.377Z" transform="translate(-146.576 -51.9)" fill="#ff9a00"/></g></svg>