<svg xmlns="http://www.w3.org/2000/svg" width="24.615" height="24" viewBox="0 0 24.615 24"><path d="M4.359,0h15.9a4.355,4.355,0,0,1,4.359,4.359V19.641A4.355,4.355,0,0,1,20.256,24H4.359A4.355,4.355,0,0,1,0,19.641V4.359A4.355,4.355,0,0,1,4.359,0Z" fill="#001e36"/><g transform="translate(5.538 6.103)"><path d="M54,70.228V59.674c0-.072.031-.113.1-.113.174,0,.338,0,.574-.01s.5-.01.779-.021.574-.01.892-.021.626-.01.933-.01a6.031,6.031,0,0,1,2.113.318,3.663,3.663,0,0,1,1.374.841,3.266,3.266,0,0,1,.749,1.169,3.926,3.926,0,0,1,.236,1.333,3.667,3.667,0,0,1-.615,2.185A3.514,3.514,0,0,1,59.487,66.6a6.647,6.647,0,0,1-2.308.349c-.246,0-.41,0-.513-.01s-.246-.01-.441-.01v3.292a.128.128,0,0,1-.113.144h-1.99C54.041,70.362,54,70.321,54,70.228Zm2.236-8.687v3.446c.144.01.277.021.4.021h.544a3.831,3.831,0,0,0,1.179-.185,1.764,1.764,0,0,0,.841-.544,1.585,1.585,0,0,0,.318-1.056,1.688,1.688,0,0,0-.236-.913,1.487,1.487,0,0,0-.718-.585,3.01,3.01,0,0,0-1.21-.205c-.267,0-.5,0-.7.01a2.349,2.349,0,0,0-.421.01Z" transform="translate(-54 -59.5)" fill="#31a8ff"/><path d="M145.591,86.618a3.631,3.631,0,0,0-.985-.349,5.407,5.407,0,0,0-1.149-.133,2.065,2.065,0,0,0-.615.072.527.527,0,0,0-.318.205.543.543,0,0,0-.082.277.456.456,0,0,0,.1.267,1.158,1.158,0,0,0,.349.277c.236.123.482.236.728.338a7.428,7.428,0,0,1,1.579.749,2.387,2.387,0,0,1,.81.851,2.214,2.214,0,0,1,.236,1.056,2.386,2.386,0,0,1-.4,1.364,2.57,2.57,0,0,1-1.149.913,4.7,4.7,0,0,1-1.856.328,7.066,7.066,0,0,1-1.395-.133,4.138,4.138,0,0,1-1.046-.328.2.2,0,0,1-.113-.195V90.392a.111.111,0,0,1,.041-.092.078.078,0,0,1,.092.01,4.391,4.391,0,0,0,1.272.5,4.775,4.775,0,0,0,1.21.154,1.958,1.958,0,0,0,.851-.144.476.476,0,0,0,.277-.431.543.543,0,0,0-.246-.41,4.35,4.35,0,0,0-1.005-.482,6.276,6.276,0,0,1-1.456-.738,2.656,2.656,0,0,1-.779-.872,2.2,2.2,0,0,1-.236-1.046,2.412,2.412,0,0,1,.349-1.241,2.528,2.528,0,0,1,1.077-.944,3.977,3.977,0,0,1,1.815-.359,8.842,8.842,0,0,1,1.272.092,3.609,3.609,0,0,1,.882.236.18.18,0,0,1,.1.092.515.515,0,0,1,.021.123v1.672a.126.126,0,0,1-.051.1A.273.273,0,0,1,145.591,86.618Z" transform="translate(-131.437 -81.756)" fill="#31a8ff"/></g></svg>