<svg xmlns="http://www.w3.org/2000/svg" width="30.772" height="30" viewBox="0 0 30.772 30"><path d="M5.449,0H25.324a5.444,5.444,0,0,1,5.449,5.449v19.1A5.444,5.444,0,0,1,25.32,30H5.449A5.444,5.444,0,0,1,0,24.551V5.449A5.444,5.444,0,0,1,5.449,0Z" transform="translate(0 0)" fill="#001e36"/><g transform="translate(6.922 7.624)"><path d="M54,72.911V59.718c0-.09.039-.141.125-.141.218,0,.423,0,.718-.012s.625-.013.974-.026.717-.013,1.115-.026.782-.013,1.166-.013a7.539,7.539,0,0,1,2.641.4,4.579,4.579,0,0,1,1.717,1.051,4.082,4.082,0,0,1,.936,1.461,4.907,4.907,0,0,1,.295,1.666,4.584,4.584,0,0,1-.769,2.731,4.393,4.393,0,0,1-2.06,1.569,8.309,8.309,0,0,1-2.885.436c-.307,0-.512,0-.641-.013s-.307-.012-.551-.012V72.9a.16.16,0,0,1-.141.18H54.153C54.051,73.078,54,73.027,54,72.911Zm2.795-10.859V66.36c.18.012.346.026.5.026h.68a4.788,4.788,0,0,0,1.474-.231,2.205,2.205,0,0,0,1.051-.68,1.981,1.981,0,0,0,.4-1.32,2.11,2.11,0,0,0-.295-1.141,1.859,1.859,0,0,0-.9-.731,3.763,3.763,0,0,0-1.512-.256c-.334,0-.625,0-.875.013a2.936,2.936,0,0,0-.526.012Z" transform="translate(-54 -59.497)" fill="#31a8ff"/><path d="M146.918,87.2a4.539,4.539,0,0,0-1.231-.436,6.758,6.758,0,0,0-1.436-.166,2.581,2.581,0,0,0-.769.09.659.659,0,0,0-.4.256.679.679,0,0,0-.1.346.57.57,0,0,0,.125.334,1.447,1.447,0,0,0,.436.346c.295.154.6.3.91.423a9.286,9.286,0,0,1,1.974.936,2.984,2.984,0,0,1,1.012,1.064,2.767,2.767,0,0,1,.295,1.32,2.983,2.983,0,0,1-.5,1.7,3.213,3.213,0,0,1-1.436,1.141,5.875,5.875,0,0,1-2.32.41,8.833,8.833,0,0,1-1.744-.166,5.173,5.173,0,0,1-1.307-.41.25.25,0,0,1-.141-.244V91.917a.139.139,0,0,1,.051-.115.1.1,0,0,1,.115.012,5.489,5.489,0,0,0,1.59.625,5.969,5.969,0,0,0,1.513.192,2.448,2.448,0,0,0,1.064-.18.6.6,0,0,0,.346-.539.679.679,0,0,0-.308-.512,5.437,5.437,0,0,0-1.256-.6,7.845,7.845,0,0,1-1.82-.922,3.32,3.32,0,0,1-.974-1.09,2.75,2.75,0,0,1-.3-1.308,3.015,3.015,0,0,1,.436-1.551,3.16,3.16,0,0,1,1.346-1.18,4.971,4.971,0,0,1,2.269-.449,11.051,11.051,0,0,1,1.59.115,4.51,4.51,0,0,1,1.1.3.225.225,0,0,1,.125.115.644.644,0,0,1,.026.154v2.09a.158.158,0,0,1-.064.125.341.341,0,0,1-.225.008Z" transform="translate(-129.225 -81.117)" fill="#31a8ff"/></g></svg>