<svg xmlns="http://www.w3.org/2000/svg" width="75" height="50.071" viewBox="0 0 75 50.071">
  <path id="uiuxCard" d="M65,0V3.5H7.5L4,0,0,4,4,8,7.5,4.5H59.2A36.039,36.039,0,0,0,31.9,39.4v.8a5.034,5.034,0,1,0,6.2,3.5,4.952,4.952,0,0,0-3.2-3.4v-.9A33.053,33.053,0,0,1,65,6.5V10H75V0ZM4,7,1,4,4,1,7,4ZM65,5.6A33.954,33.954,0,0,0,33.9,39.4V41c.3.1.7.2,1,.3a3.805,3.805,0,0,1,1.3.9,4.268,4.268,0,0,1,1,2.7,4,4,0,1,1-8,0,4.1,4.1,0,0,1,2.7-3.8,3.553,3.553,0,0,1,1-.2V39.3A34.95,34.95,0,0,1,65,4.5h1V1h8V9H66V5.5" fill="#a1b6e6"/>
</svg>
