<svg xmlns="http://www.w3.org/2000/svg" width="76.362" height="51.207" viewBox="0 0 76.362 51.207"><g transform="translate(-8.143 -32.036)"><g transform="translate(8.85 32.743)"><path d="M27.547,44.141a5.859,5.859,0,0,1,5.741-5.857,41.4,41.4,0,0,1,8.755-20.252l.01-.013A39.266,39.266,0,0,1,65.476,4.386V.25h9.68v9.68h-9.68V6.447a37.353,37.353,0,0,0-21.946,12.9,39.343,39.343,0,0,0-8.311,19.221,5.859,5.859,0,1,1-7.671,5.572ZM0,4.739,4.739,0,9.479,4.739,4.739,9.479Zm65.055-.975L9.48,4.739Z" fill="none" stroke="#e5f0ff" stroke-miterlimit="10" stroke-width="1"/></g></g></svg>