<svg xmlns="http://www.w3.org/2000/svg" width="24.615" height="24" viewBox="0 0 24.615 24"><path d="M4.359,0h15.9a4.355,4.355,0,0,1,4.359,4.359V19.641A4.355,4.355,0,0,1,20.256,24H4.359A4.355,4.355,0,0,1,0,19.641V4.359A4.355,4.355,0,0,1,4.359,0Z" fill="#470137"/><g transform="translate(3.586 5.26)"><path d="M44.319,60.154l-3.077,5.077,3.282,5.385a.177.177,0,0,1,.021.123c-.01.041-.051.01-.113.021H42.083c-.164,0-.277-.01-.349-.113-.215-.431-.441-.851-.656-1.282s-.451-.851-.7-1.292-.492-.882-.738-1.333h-.021c-.215.441-.451.882-.687,1.323s-.472.882-.7,1.313-.472.872-.708,1.292c-.041.1-.123.113-.236.113H35.037c-.041,0-.072.021-.072-.031a.142.142,0,0,1,.021-.113l3.19-5.231-3.108-5.262c-.031-.041-.041-.082-.021-.1a.119.119,0,0,1,.1-.041h2.328a.605.605,0,0,1,.144.021.291.291,0,0,1,.1.092c.195.441.421.882.656,1.323s.482.872.738,1.3.472.862.687,1.3h.021c.215-.451.441-.892.667-1.323s.462-.862.7-1.292.462-.872.687-1.292a.174.174,0,0,1,.062-.1.2.2,0,0,1,.133-.021h2.164a.094.094,0,0,1,.113.072c.01.01-.01.051-.031.072Z" transform="translate(-34.961 -59.106)" fill="#ff61f6"/><path d="M134.615,63.153a5.1,5.1,0,0,1-2.205-.462,3.576,3.576,0,0,1-1.549-1.395,4.438,4.438,0,0,1-.564-2.338,4.213,4.213,0,0,1,.564-2.164,4.259,4.259,0,0,1,1.631-1.59,5.246,5.246,0,0,1,2.595-.595,1.832,1.832,0,0,1,.215.01c.092.01.195.01.318.021V51.4c0-.072.031-.113.1-.113H137.8a.092.092,0,0,1,.1.072v9.785c0,.185.01.39.021.615s.031.421.041.595a.167.167,0,0,1-.1.164,7.834,7.834,0,0,1-1.672.492A9.048,9.048,0,0,1,134.615,63.153ZM135.62,61.1V56.589a2.62,2.62,0,0,0-.277-.051c-.113-.01-.226-.021-.338-.021a2.528,2.528,0,0,0-1.159.267,2.3,2.3,0,0,0-.872.759,2.273,2.273,0,0,0-.338,1.3,2.859,2.859,0,0,0,.174,1.056,2,2,0,0,0,.462.728,1.772,1.772,0,0,0,.7.41,2.685,2.685,0,0,0,.851.133c.154,0,.3-.01.431-.021A.9.9,0,0,0,135.62,61.1Z" transform="translate(-120.518 -51.284)" fill="#ff61f6"/></g></svg>