<svg xmlns="http://www.w3.org/2000/svg" width="30.772" height="30" viewBox="0 0 30.772 30"><path d="M5.449,0H25.324a5.444,5.444,0,0,1,5.449,5.449v19.1A5.444,5.444,0,0,1,25.32,30H5.449A5.444,5.444,0,0,1,0,24.551V5.449A5.444,5.444,0,0,1,5.449,0Z" transform="translate(0 0)" fill="#470137"/><g transform="translate(4.483 6.578)"><path d="M46.658,60.192l-3.846,6.346,4.1,6.731a.221.221,0,0,1,.026.154c-.012.051-.064.013-.141.026H43.863c-.2,0-.346-.013-.436-.141-.269-.539-.551-1.064-.82-1.6s-.564-1.064-.875-1.615-.615-1.1-.922-1.666h-.026c-.269.551-.564,1.1-.859,1.654s-.59,1.1-.875,1.641-.59,1.09-.885,1.615c-.051.125-.154.141-.3.141H35.056c-.051,0-.09.026-.09-.039a.177.177,0,0,1,.026-.141l3.987-6.539-3.885-6.577c-.039-.051-.051-.1-.026-.125A.149.149,0,0,1,35.193,60H38.1a.756.756,0,0,1,.18.026.364.364,0,0,1,.125.115c.244.551.526,1.1.82,1.654s.6,1.09.923,1.625.59,1.077.859,1.625h.026c.269-.564.551-1.115.834-1.654s.578-1.078.875-1.615.578-1.09.859-1.615a.218.218,0,0,1,.078-.125.25.25,0,0,1,.166-.026h2.7a.117.117,0,0,1,.141.09c.013.013-.012.064-.039.09Z" transform="translate(-34.961 -58.885)" fill="#ff61f6"/><path d="M135.7,66.12a6.375,6.375,0,0,1-2.756-.578A4.47,4.47,0,0,1,131,63.8a5.548,5.548,0,0,1-.7-2.923,5.266,5.266,0,0,1,.7-2.7,5.324,5.324,0,0,1,2.039-1.988,6.557,6.557,0,0,1,3.244-.744,2.29,2.29,0,0,1,.269.012c.115.012.244.012.4.026v-4.05c0-.09.039-.141.125-.141h2.6a.115.115,0,0,1,.125.09V63.608c0,.231.012.488.026.769s.039.526.051.744a.209.209,0,0,1-.125.205,9.793,9.793,0,0,1-2.09.615A11.311,11.311,0,0,1,135.7,66.12Zm1.256-2.566V57.915a3.272,3.272,0,0,0-.346-.064c-.141-.012-.283-.026-.422-.026a3.16,3.16,0,0,0-1.449.334,2.875,2.875,0,0,0-1.09.949,2.841,2.841,0,0,0-.423,1.625,3.575,3.575,0,0,0,.217,1.32,2.5,2.5,0,0,0,.578.91,2.215,2.215,0,0,0,.875.512,3.357,3.357,0,0,0,1.064.166c.192,0,.375-.012.539-.026A1.125,1.125,0,0,0,136.952,63.553Z" transform="translate(-118.074 -51.286)" fill="#ff61f6"/></g></svg>