<svg xmlns="http://www.w3.org/2000/svg" width="32" height="32" viewBox="0 0 32 32">
  <g id="call" transform="translate(3.765 4)">
    <path id="Path_285" data-name="Path 285" d="M10,0H22A10,10,0,0,1,32,10V22A10,10,0,0,1,22,32H10A10,10,0,0,1,0,22V10A10,10,0,0,1,10,0Z" transform="translate(-3.765 -4)" fill="#011d3c"/>
    <path id="Path_283" data-name="Path 283" d="M20.01,15.38a11.443,11.443,0,0,1-3.53-.56.977.977,0,0,0-1.01.24L13.9,17.03A15.183,15.183,0,0,1,7.01,10.2L8.96,8.54A1.021,1.021,0,0,0,9.2,7.52a11.153,11.153,0,0,1-.56-3.53A1,1,0,0,0,7.65,3H4.19C3.65,3,3,3.24,3,3.99A17.152,17.152,0,0,0,20.01,21,1.049,1.049,0,0,0,21,19.82V16.37a1,1,0,0,0-.99-.99Z" transform="translate(0.235 0)" fill="#a1b6e6"/>
  </g>
</svg>
