<svg xmlns="http://www.w3.org/2000/svg" width="30" height="30" viewBox="0 0 30 30"><path d="M15,0A15,15,0,1,0,30,15,15,15,0,0,0,15,0Zm4.2,26.427c-.086-1.174-.183-2.628-.188-3.217a2.846,2.846,0,0,0-1.177-2.335c4.332-.363,6.394-2.757,6.542-5.921a5.924,5.924,0,0,0-1.865-4.665,25.631,25.631,0,0,0-.129-3.7c-.977-.281-3.255.922-3.892,1.436a12.107,12.107,0,0,0-6.625,0c-1.416-1-3.027-1.611-3.906-1.439a4.671,4.671,0,0,0-.131,3.7c-1.044.954-2.5,2.129-2.106,4.59.635,3.608,3.173,5.555,7.261,6.031a1.323,1.323,0,0,0-1.092,1.111c-2.745,1.132-3.53-.7-3.877-1.177-1.152-1.426-2.186-1.012-2.25-.99a.18.18,0,0,0-.1.156c.058.307.685.62.716.645a5.336,5.336,0,0,1,1.359,2.1c1.22,2.005,4.055,1.174,4.082,1.191,0,.175-.02,1.651-.037,2.8a12.19,12.19,0,1,1,7.417-.317Z" fill="#212d45"/></svg>