<svg xmlns="http://www.w3.org/2000/svg" width="32" height="32" viewBox="0 0 32 32"><g transform="translate(0.235 0)"><circle cx="16" cy="16" r="16" transform="translate(-0.235 0)" fill="#212d45"/><path d="M114.066,112.869H100L107.033,108Z" transform="translate(-91.235 -97.918)" fill="#bdbde4"/><path d="M0,0H14.066V8.476H0Z" transform="translate(8.765 14.951)" fill="#b4b4e3"/><path d="M146.82,84.721A.723.723,0,0,0,146.1,84h-9.378a.723.723,0,0,0-.721.721v9.2a.723.723,0,0,0,.721.721H146.1a.723.723,0,0,0,.721-.721Z" transform="translate(-125.612 -75)" fill="#ababce"/><path d="M106.492,220.328,100,224.476V216Z" transform="translate(-91.235 -201.049)" fill="#c1c1e6"/><path d="M268,220.328l6.492,4.148V216Z" transform="translate(-251.661 -201.049)" fill="#c1c1e6"/><path d="M114.066,300.869H100L107.033,296Z" transform="translate(-91.235 -277.442)" fill="#bdbde4"/><path d="M0,0H7.935V5.951H0Z" transform="translate(11.831 10.262)" fill="#bdbde4"/><path d="M0,0H7.214V5.23H0Z" transform="translate(12.191 10.623)" fill="#c2e2f2"/><path d="M184,150.936l1.608-2.87.887.864,1.292-2.01,1.191,1.723.567-.544,1.307,2.837Z" transform="translate(-171.448 -135.083)" fill="#198058"/><ellipse cx="0.721" cy="0.721" rx="0.721" ry="0.721" transform="translate(12.496 10.803)" fill="#ffe399"/><path d="M239.336,148.671l.808-.83.225.158.2-.432.24.646.218-.579.8.767-1.191-1.728Z" transform="translate(-224.289 -134.847)" fill="#f5f5f5"/><path d="M241.443,126.932a.525.525,0,0,1-.541-.18.541.541,0,0,0-.541.541.39.39,0,0,0,0,.778h1.082a.57.57,0,0,0,0-1.138Z" transform="translate(-224.923 -115.825)" fill="#f5f5f5"/><path d="M258.366,126.936a.536.536,0,0,0-.4-.184.511.511,0,0,0-.1.01.405.405,0,0,0,.457.17C258.339,126.932,258.352,126.935,258.366,126.936Z" transform="translate(-241.985 -115.825)" fill="#e6e6e6"/><path d="M268.18,130.752a.457.457,0,0,0-.079.01.572.572,0,0,1,.439.559.566.566,0,0,1-.541.569h.18a.57.57,0,0,0,0-1.138Z" transform="translate(-251.661 -119.644)" fill="#e6e6e6"/></g></svg>