<svg xmlns="http://www.w3.org/2000/svg" width="32" height="32" viewBox="0 0 32 32">
  <g id="mail" transform="translate(0.235 0)">
    <path id="Path_331" data-name="Path 331" d="M16,0A16,16,0,1,1,0,16,16,16,0,0,1,16,0Z" transform="translate(-0.235 0)" fill="#011d3c"/>
    <path id="Path_143" data-name="Path 143" d="M114.066,112.869H100L107.033,108Z" transform="translate(-91.235 -97.918)" fill="#a1b6e6"/>
    <path id="Path_288" data-name="Path 288" d="M0,0H14.066V8.476H0Z" transform="translate(8.765 14.951)" fill="#96aee6"/>
    <path id="Path_144" data-name="Path 144" d="M146.82,84.721A.723.723,0,0,0,146.1,84h-9.378a.723.723,0,0,0-.721.721v9.2a.723.723,0,0,0,.721.721H146.1a.723.723,0,0,0,.721-.721Z" transform="translate(-125.612 -75)" fill="#b3caff"/>
    <path id="Path_145" data-name="Path 145" d="M106.492,220.328,100,224.476V216Z" transform="translate(-91.235 -201.049)" fill="#a1b6e6"/>
    <path id="Path_146" data-name="Path 146" d="M268,220.328l6.492,4.148V216Z" transform="translate(-251.661 -201.049)" fill="#a1b6e6"/>
    <path id="Path_147" data-name="Path 147" d="M114.066,300.869H100L107.033,296Z" transform="translate(-91.235 -277.442)" fill="#96aee6"/>
    <path id="Path_286" data-name="Path 286" d="M0,0H7.935V5.951H0Z" transform="translate(11.831 10.262)" fill="#a1b6e6"/>
    <path id="Path_287" data-name="Path 287" d="M0,0H7.214V5.23H0Z" transform="translate(12.191 10.623)" fill="#c2e2f2"/>
    <path id="Path_148" data-name="Path 148" d="M184,150.936l1.608-2.87.887.864,1.292-2.01,1.191,1.723.567-.544,1.307,2.837Z" transform="translate(-171.448 -135.083)" fill="#198058"/>
    <ellipse id="Ellipse_12" data-name="Ellipse 12" cx="0.721" cy="0.721" rx="0.721" ry="0.721" transform="translate(12.496 10.803)" fill="#ffe399"/>
    <path id="Path_149" data-name="Path 149" d="M239.336,148.671l.808-.83.225.158.2-.432.24.646.218-.579.8.767-1.191-1.728Z" transform="translate(-224.289 -134.847)" fill="#f5f5f5"/>
    <path id="Path_150" data-name="Path 150" d="M241.443,126.932a.525.525,0,0,1-.541-.18.541.541,0,0,0-.541.541.39.39,0,0,0,0,.778h1.082a.57.57,0,0,0,0-1.138Z" transform="translate(-224.923 -115.825)" fill="#f5f5f5"/>
    <path id="Path_151" data-name="Path 151" d="M258.366,126.936a.536.536,0,0,0-.4-.184.511.511,0,0,0-.1.01.405.405,0,0,0,.457.17C258.339,126.932,258.352,126.935,258.366,126.936Z" transform="translate(-241.985 -115.825)" fill="#e6e6e6"/>
    <path id="Path_152" data-name="Path 152" d="M268.18,130.752a.457.457,0,0,0-.079.01.572.572,0,0,1,.439.559.566.566,0,0,1-.541.569h.18a.57.57,0,0,0,0-1.138Z" transform="translate(-251.661 -119.644)" fill="#e6e6e6"/>
  </g>
</svg>
