<svg id="telegram" xmlns="http://www.w3.org/2000/svg" width="30" height="30" viewBox="0 0 30 30">
  <circle id="Ellipse_10" data-name="Ellipse 10" cx="15" cy="15" r="15" fill="#011d3c"/>
  <path id="Path_135" data-name="Path 135" d="M2,15A15,15,0,0,1,16,.034C15.669.012,15.336,0,15,0a15,15,0,0,0,0,30c.336,0,.669-.012,1-.034A15,15,0,0,1,2,15Z" fill="#011226"/>
  <path id="Path_136" data-name="Path 136" d="M106.073,107.664a.5.5,0,0,0-.492-.04l-16.118,7.5a.788.788,0,0,0,.018,1.436l14.86,6.472a.8.8,0,0,0,1.112-.671l.839-14.258A.5.5,0,0,0,106.073,107.664Z" transform="translate(-83.792 -101.275)" fill="#e5e5e5"/>
  <path id="Path_137" data-name="Path 137" d="M171.631,119.271l1,6.714,11.156-17.553Z" transform="translate(-161.575 -102.079)" fill="#ccdcff"/>
  <path id="Path_138" data-name="Path 138" d="M105.581,107.628l-16.118,7.5a.788.788,0,0,0,.017,1.436l4.369,1.9,12.16-10.839A.5.5,0,0,0,105.581,107.628Z" transform="translate(-83.792 -101.278)" fill="#a1b6e6"/>
  <path id="Path_139" data-name="Path 139" d="M190.1,120.287l-1.327,5.7,11.156-17.553Z" transform="translate(-177.711 -102.079)" fill="#96aee6"/>
  <path id="Path_140" data-name="Path 140" d="M221.311,108.468a.49.49,0,0,0-.064-.036l-9.829,11.855,8.16,3.554a.8.8,0,0,0,1.112-.671l.839-14.258A.5.5,0,0,0,221.311,108.468Z" transform="translate(-199.03 -102.079)" fill="#a1b6e6"/>
</svg>
