<svg xmlns="http://www.w3.org/2000/svg" width="32" height="32" viewBox="0 0 32 32"><g transform="translate(-1392.765 -5071)"><path d="M10,0H22A10,10,0,0,1,32,10V22A10,10,0,0,1,22,32H10A10,10,0,0,1,0,22V10A10,10,0,0,1,10,0Z" transform="translate(1392.765 5071)" fill="#212d45"/><path d="M116.088,136.341l1.023-4.75a10.085,10.085,0,1,1,3.654,3.435Z" transform="translate(1283.137 4960.776)" fill="none" stroke="#ababce" stroke-width="1"/><path d="M191.534,185.679c-.184-.123-.369-.184-.553.061l-.738.984a.458.458,0,0,1-.553.061,7.14,7.14,0,0,1-3.32-2.889.465.465,0,0,1,.184-.492l.553-.861c.123-.123.062-.246,0-.369l-.738-1.783c-.184-.492-.369-.43-.553-.43h-.492a.934.934,0,0,0-.615.307c-1.352,1.352-.8,3.258.184,4.488a9.419,9.419,0,0,0,4.057,3.627c1.967.861,2.4.738,2.951.615a2.35,2.35,0,0,0,1.66-1.168c.061-.184.369-.984.123-1.106" transform="translate(1219.922 4902.477)" fill="#ababce"/></g></svg>